<svg version="1.0" xmlns="http://www.w3.org/2000/svg" width="682.667" height="682.667" viewBox="0 0 512 512"><path d="M251.9 21.3c-3.8 2.9-3.9 4.3-3.9 56.4v50.9l-17.7 17.7-17.7 17.7h-75.7c-70.6 0-75.7.1-77.6 1.7-1.1 1-9.5 13.7-18.8 28.3-9.3 14.6-19.1 30.1-22 34.5C-1.7 260-1.7 260.1 2.2 265.2c1.5 2.1 2.6 2.3 11.6 2.6l9.9.4V476h-9.2c-8.7 0-9.4.2-11.9 2.7-2.2 2.2-2.6 3.4-2.2 5.6.3 1.6.6 3.3.6 3.8s1.3 1.5 3 2.4c2.6 1.3 30.7 1.5 251.9 1.5 153.5 0 249.9-.4 251.4-.9 2.3-.9 3.6-3 4.4-7.1 1-5.5-3.7-8-15.2-8-6.1 0-8.5-.4-8.6-1.3 0-.6-.1-47.4-.2-104l-.2-102.7h8.7c9.5 0 13.4-1.2 14.5-4.4 1.7-5.1 1.5-5.5-7.4-19.4-7-10.8-11.7-18.2-15.8-24.7-1.7-2.8-8.1-12.7-14-22-6-9.4-12.6-19.7-14.6-23-2.1-3.3-4.6-6.9-5.4-8-1.5-2-3.1-2-78-2.5l-76.5-.5-17.5-17.5-17.5-17.4V100h74.9l2.6-2.6c3.8-3.8 2.9-7.3-5-19.2L329.7 68l6.9-10.3c7.8-11.6 8.8-15.9 4.5-19.6-2.3-2-3.5-2.1-39.8-2.1H264v-4.3c0-6.3-1-8.6-4.1-10.2-3.4-1.8-5.9-1.9-8-.2z"/></svg>