<svg width="24" height="24" fill="none" xmlns="http://www.w3.org/2000/svg"><path d="M12 24c6.627 0 12-5.373 12-12S18.627 0 12 0 0 5.373 0 12s5.373 12 12 12z" fill="#1068FF"/><path d="M18 14.481a8.28 8.28 0 01-3.668-.838.763.763 0 00-.574-.035.756.756 0 00-.43.383l-.54 1.117a10.561 10.561 0 01-3.896-3.896l1.119-.54a.751.751 0 00.348-1.005A8.252 8.252 0 019.519 6a.75.75 0 00-.75-.75H6a.75.75 0 00-.75.75c0 7.03 5.72 12.75 12.75 12.75a.75.75 0 00.75-.75v-2.769a.75.75 0 00-.75-.75z" fill="#FAFAFA"/></svg>