<svg width="209" height="209" fill="none" xmlns="http://www.w3.org/2000/svg"><g clip-path="url(#clip0_1_2214)" fill="#000"><path d="M205.933 194.685h-6.749v-85.482h6.749a3.069 3.069 0 002.588-4.714l-22.904-35.993a3.069 3.069 0 00-2.589-1.42h-60.897l-14.563-14.563V40.491h29.652a3.067 3.067 0 002.552-4.77l-5.409-8.114 5.41-8.114a3.066 3.066 0 00-2.553-4.77h-29.652v-3.476a3.068 3.068 0 00-6.135 0v41.266L86.87 67.076H25.972a3.068 3.068 0 00-2.588 1.42L.479 104.49a3.068 3.068 0 002.589 4.714h6.748v85.482H3.068a3.067 3.067 0 100 6.135h202.865a3.068 3.068 0 000-6.135zM181.345 73.211l19 29.857h-42.222l-29.857-29.857h53.079zm-49.857-52.352l-3.364 5.047a3.067 3.067 0 000 3.403l3.364 5.047h-23.92V20.859h23.92zM27.656 73.21h53.078l-29.857 29.857H8.656l19-29.857zM15.95 109.203h36.196a3.1 3.1 0 00.304-.015c.044-.004.086-.013.13-.019.055-.008.111-.015.167-.026.05-.009.098-.023.148-.036.047-.011.096-.022.143-.036.048-.015.095-.033.143-.05.047-.017.094-.033.14-.052.045-.018.088-.04.13-.06.048-.023.096-.044.142-.069.042-.022.082-.048.123-.072.045-.027.09-.052.134-.082a2.17 2.17 0 00.133-.098c.036-.027.073-.052.108-.081.078-.064.154-.132.225-.204L104.5 58.121l50.183 50.183c.072.071.147.139.225.204.035.028.072.053.108.08.044.034.087.068.133.099.044.029.089.054.134.081.041.025.081.05.124.073.045.024.092.045.139.067.044.021.088.043.132.062.046.018.093.034.139.05.048.018.095.036.145.051.046.014.094.025.141.036.05.013.099.027.149.037.054.01.109.017.163.025.045.006.089.015.134.019.101.01.202.015.303.015h36.197v85.482H127.2v-42.741c0-5.3-4.312-9.612-9.612-9.612H91.412c-5.3 0-9.612 4.312-9.612 9.612v42.741H15.951v-85.482zm105.114 46.217h-33.13v-3.476a3.48 3.48 0 013.477-3.477h26.176a3.481 3.481 0 013.477 3.477v3.476zm-33.13 6.135h13.498v33.13H87.935v-33.13zm19.633 0h13.497v33.13h-13.497v-33.13z"/><path d="M104.5 132.107c12.517 0 22.7-10.183 22.7-22.699 0-12.517-10.183-22.7-22.7-22.7-12.516 0-22.7 10.183-22.7 22.7 0 12.516 10.184 22.699 22.7 22.699zm0-39.264c9.134 0 16.565 7.431 16.565 16.565 0 9.133-7.431 16.564-16.565 16.564-9.133 0-16.564-7.431-16.564-16.564 0-9.134 7.43-16.565 16.564-16.565z"/><path d="M104.501 112.476a3.068 3.068 0 003.067-3.068v-9.816a3.067 3.067 0 10-6.135 0v6.748h-6.748a3.068 3.068 0 000 6.136h9.816zM71.78 158.692H55.42a3.068 3.068 0 00-3.068 3.068v19.632a3.067 3.067 0 003.067 3.067h16.36a3.067 3.067 0 003.068-3.067V161.76a3.068 3.068 0 00-3.068-3.068zm-3.068 6.135v3.681H58.487v-3.681h10.225zm-10.225 13.497v-3.681h10.225v3.681H58.487zm-16.155-19.632h-16.36a3.068 3.068 0 00-3.068 3.068v19.632a3.067 3.067 0 003.068 3.067h16.36a3.067 3.067 0 003.067-3.067V161.76a3.068 3.068 0 00-3.067-3.068zm-3.068 6.135v3.681H29.04v-3.681h10.225zM29.04 178.324v-3.681h10.225v3.681H29.04zm41.717-58.896H56.442a4.095 4.095 0 00-4.09 4.09V145.4a3.067 3.067 0 003.067 3.067h16.36a3.067 3.067 0 003.068-3.067v-21.882a4.095 4.095 0 00-4.09-4.09zm-2.045 6.135v6.953H58.487v-6.953h10.225zm-10.225 16.769v-3.681h10.225v3.681H58.487zM41.31 119.428H26.993a4.095 4.095 0 00-4.09 4.09V145.4a3.067 3.067 0 003.068 3.067h16.36a3.067 3.067 0 003.067-3.067v-21.882a4.095 4.095 0 00-4.09-4.09zm-2.046 6.135v6.953H29.04v-6.953h10.225zM29.04 142.332v-3.681h10.225v3.681H29.04zm137.629 42.127h16.36a3.068 3.068 0 003.068-3.067V161.76a3.069 3.069 0 00-3.068-3.068h-16.36a3.068 3.068 0 00-3.067 3.068v19.632a3.067 3.067 0 003.067 3.067zm3.068-6.135v-3.681h10.225v3.681h-10.225zm10.225-13.497v3.681h-10.225v-3.681h10.225zm-42.742 19.632h16.36a3.067 3.067 0 003.067-3.067V161.76a3.068 3.068 0 00-3.067-3.068h-16.36a3.069 3.069 0 00-3.068 3.068v19.632a3.068 3.068 0 003.068 3.067zm3.067-6.135v-3.681h10.225v3.681h-10.225zm10.225-13.497v3.681h-10.225v-3.681h10.225zm16.157-16.36h16.36a3.068 3.068 0 003.068-3.067v-21.882a4.095 4.095 0 00-4.09-4.09h-14.315a4.094 4.094 0 00-4.09 4.09V145.4a3.067 3.067 0 003.067 3.067zm3.068-6.135v-3.681h10.225v3.681h-10.225zm10.225-16.769v6.953h-10.225v-6.953h10.225zm-42.742 22.904h16.36a3.067 3.067 0 003.067-3.067v-21.882a4.094 4.094 0 00-4.09-4.09h-14.315a4.095 4.095 0 00-4.09 4.09V145.4a3.068 3.068 0 003.068 3.067zm3.067-6.135v-3.681h10.225v3.681h-10.225zm10.225-16.769v6.953h-10.225v-6.953h10.225z"/></g><defs><clipPath id="clip0_1_2214"><path fill="#fff" d="M0 0h209v209H0z"/></clipPath></defs></svg>