<svg width="24" height="24" fill="none" xmlns="http://www.w3.org/2000/svg"><path d="M12 24c6.627 0 12-5.373 12-12S18.627 0 12 0 0 5.373 0 12s5.373 12 12 12z" fill="#1068FF"/><path d="M12.994 4.563c-2.454-.31-4.82.534-6.494 2.336-1.67 1.801-2.34 4.237-1.839 6.685a7.398 7.398 0 005.588 5.718 7.842 7.842 0 001.756.201 7.437 7.437 0 003.32-.778.753.753 0 00.339-1.007.753.753 0 00-1.007-.339c-1.252.623-2.662.782-4.075.46-2.205-.5-3.993-2.333-4.45-4.556-.406-1.968.131-3.923 1.468-5.364 1.338-1.44 3.232-2.12 5.202-1.868 2.964.384 5.197 3.075 5.197 6.263v.436a1.5 1.5 0 01-3 0v-3a.75.75 0 00-1.435-.3A2.894 2.894 0 0011.999 9c-1.767 0-3 1.388-3 3.375 0 1.988 1.233 3.375 3 3.375.932 0 1.707-.393 2.24-1.05a2.98 2.98 0 002.26 1.05c1.655 0 3-1.345 3-3v-.436c0-3.94-2.796-7.27-6.505-7.75zm-.995 9.687c-.925 0-1.5-.718-1.5-1.875 0-1.156.575-1.875 1.5-1.875.926 0 1.5.719 1.5 1.875 0 1.157-.574 1.875-1.5 1.875z" fill="#FAFAFA"/></svg>