<svg width="202" height="202" fill="none" xmlns="http://www.w3.org/2000/svg"><g clip-path="url(#clip0_1_2209)" fill="#000"><path d="M183.377 178.859h-3.598v-6.449c0-2.476-.274-4.208-.861-5.452-.802-1.699-2.286-2.673-4.071-2.673h-4.203v-60.326h4.203a4.937 4.937 0 004.932-4.932v-7.47h3.561a3.709 3.709 0 003.616-2.761 3.709 3.709 0 00-1.713-4.215L148.85 63.13a2.96 2.96 0 00-3.005 5.098l29.54 17.412H26.613L101 41.795l32.934 19.412a2.958 2.958 0 103.004-5.099l-32.98-19.438v-7.346h10.638v9.407a2.959 2.959 0 002.959 2.959h34.718a4.147 4.147 0 004.143-4.143V20.041a4.147 4.147 0 00-4.143-4.143H140.31V7.676a4.147 4.147 0 00-4.143-4.143h-32.209v-.574a2.96 2.96 0 00-5.918 0v33.71L16.755 84.582a3.71 3.71 0 00-1.713 4.215 3.71 3.71 0 003.616 2.762h3.562v7.47a4.937 4.937 0 004.931 4.931h4.204v60.326H27.15a4.937 4.937 0 00-4.931 4.931v9.642H18.62a4.938 4.938 0 00-4.931 4.932v13.278A4.937 4.937 0 0018.62 202h164.756a4.937 4.937 0 004.932-4.932V183.79a4.937 4.937 0 00-4.932-4.931zM120.514 33.393v-4.069h6.514l-6.514 4.07zm18.417-4.529a2.954 2.954 0 001.379-2.499v-4.549h10.188v13.956h-22.623l11.056-6.908zM103.958 9.451h30.434v13.955h-30.434V9.451zm37.179 154.834v-60.326h8.245v60.326h-8.245zm-61.973-14.56a2.959 2.959 0 00-2.959 2.959v11.159H66.78v-59.884h9.425v34.916a2.96 2.96 0 005.918 0v-34.916h8.246v60.326h-8.246v-11.601a2.959 2.959 0 00-2.959-2.959zm17.123 14.118v-59.884h9.425v59.884h-9.425zm15.343-59.884h8.245v60.326h-8.245v-60.326zm14.163 59.884v-59.884h9.426v59.884h-9.426zm38.933 0H155.3v-59.884h9.426v59.884zM28.138 91.558H173.86v6.483H28.138v-6.483zm18.56 12.401v59.884h-9.425v-59.884h9.425zm5.918 0h8.246v60.326h-8.246v-60.326zm129.775 92.123H19.607v-11.305h120.845a2.96 2.96 0 000-5.918H28.138v-8.656h145.596c.066.45.127 1.15.127 2.208v6.448h-19.6a2.96 2.96 0 000 5.918h28.13v11.305z"/><path d="M87.883 66.774c0 7.233 5.884 13.117 13.116 13.117 7.233 0 13.117-5.885 13.117-13.117 0-7.232-5.884-13.116-13.117-13.116-7.232 0-13.116 5.884-13.116 13.116zm20.315 0c0 3.97-3.229 7.198-7.199 7.198-3.969 0-7.198-3.229-7.198-7.198 0-3.969 3.229-7.198 7.198-7.198 3.97 0 7.199 3.229 7.199 7.198z"/></g><defs><clipPath id="clip0_1_2209"><path fill="#fff" d="M0 0h202v202H0z"/></clipPath></defs></svg>