<svg width="113" height="113" fill="none" xmlns="http://www.w3.org/2000/svg"><path d="M111.072 108.495h-7.467V56.228a5.605 5.605 0 00-5.6-5.6v-11.2a5.606 5.606 0 00-5.6-5.6v-11.2a5.606 5.606 0 00-5.6-5.6v-11.2a5.606 5.606 0 00-5.6-5.6H32.672a5.606 5.606 0 00-5.6 5.6v11.2a5.606 5.606 0 00-5.6 5.6v11.2a5.606 5.606 0 00-5.6 5.6v11.2a5.606 5.606 0 00-5.6 5.6v52.267H2.805a1.867 1.867 0 000 3.734h108.267a1.866 1.866 0 000-3.734zM30.805 5.829c0-1.031.836-1.866 1.867-1.867h48.533c1.03 0 1.866.836 1.867 1.867v11.2H54.883a9.333 9.333 0 00-18.29 0h-5.788v-11.2zm20.19 11.2H40.483a5.567 5.567 0 0110.512 0zm-25.79 5.6c0-1.031.836-1.866 1.867-1.867h59.733c1.03 0 1.866.836 1.867 1.866v11.2H49.283a9.333 9.333 0 00-18.29 0h-5.788v-11.2zm20.19 11.2H34.883a5.567 5.567 0 0110.512 0zm-25.79 5.6c0-1.031.836-1.866 1.867-1.867h70.933c1.03 0 1.866.836 1.867 1.867v11.2H43.683a9.333 9.333 0 00-18.29 0h-5.788v-11.2zm20.19 11.2H29.283a5.567 5.567 0 0110.512 0zm60.077 57.866H14.005V56.228c0-1.03.836-1.865 1.867-1.866h82.133c1.03 0 1.866.836 1.867 1.866v52.267z" fill="#4EC9FE"/><path d="M32.673 84.23c6.185 0 11.2-5.015 11.2-11.2 0-6.186-5.015-11.2-11.2-11.2-6.186 0-11.2 5.014-11.2 11.2.006 6.182 5.017 11.192 11.2 11.2zm0-18.668a7.467 7.467 0 11-7.467 7.467 7.474 7.474 0 017.467-7.466zM90.54 61.83h-39.2a1.866 1.866 0 100 3.732h39.2a1.866 1.866 0 100-3.733zm0 9.332h-39.2a1.867 1.867 0 000 3.733h39.2a1.867 1.867 0 000-3.733zm0 9.333h-39.2a1.866 1.866 0 100 3.733h39.2a1.866 1.866 0 100-3.733zm0 9.335h-67.2a1.866 1.866 0 100 3.732h67.2a1.866 1.866 0 100-3.733zm0 9.332h-67.2a1.867 1.867 0 000 3.733h67.2a1.866 1.866 0 100-3.733z" fill="#4EC9FE"/></svg>