<svg width="183" height="183" fill="none" xmlns="http://www.w3.org/2000/svg"><mask id="mask0_97_1020" style="mask-type:alpha" maskUnits="userSpaceOnUse" x="0" y="0" width="183" height="183"><circle cx="91.5" cy="91.5" r="91.5" fill="#C4C4C4"/></mask><g mask="url(#mask0_97_1020)" stroke="#6DA3FF"><path transform="scale(1.14008 .8368) rotate(45 201.217 -101.439)" d="M0-.5h245.096"/><path transform="scale(1.14008 .8368) rotate(45 193.278 -98.15)" d="M0-.5h245.096"/><path transform="scale(1.14008 .8368) rotate(45 185.34 -94.862)" d="M0-.5h245.096"/><path transform="scale(1.14008 .8368) rotate(45 177.4 -91.573)" d="M0-.5h245.096"/><path transform="scale(1.14008 .8368) rotate(45 169.46 -88.285)" d="M0-.5h245.096"/><path transform="scale(1.14008 .8368) rotate(45 161.522 -84.997)" d="M0-.5h245.096"/><path transform="scale(1.14008 .8368) rotate(45 153.582 -81.708)" d="M0-.5h245.096"/><path transform="scale(1.14008 .8368) rotate(45 145.642 -78.42)" d="M0-.5h245.096"/><path transform="scale(1.14008 .8368) rotate(45 137.703 -75.13)" d="M0-.5h245.096"/><path transform="scale(1.14008 .8368) rotate(45 129.764 -71.842)" d="M0-.5h245.096"/><path transform="scale(1.14008 .8368) rotate(45 121.824 -68.553)" d="M0-.5h245.096"/><path transform="scale(1.14008 .8368) rotate(45 113.885 -65.265)" d="M0-.5h245.096"/><path transform="scale(1.14008 .8368) rotate(45 105.946 -61.976)" d="M0-.5h245.096"/><path transform="scale(1.14008 .8368) rotate(45 98.006 -58.688)" d="M0-.5h245.096"/><path transform="scale(1.14008 .8368) rotate(45 90.067 -55.399)" d="M0-.5h245.096"/><path transform="scale(1.14008 .8368) rotate(45 82.128 -52.11)" d="M0-.5h245.096"/><path transform="scale(1.14008 .8368) rotate(45 74.188 -48.822)" d="M0-.5h245.096"/><path transform="scale(1.14008 .8368) rotate(45 66.249 -45.533)" d="M0-.5h245.096"/><path transform="scale(1.14008 .8368) rotate(45 58.31 -42.244)" d="M0-.5h245.096"/><path transform="scale(1.14008 .8368) rotate(45 50.37 -38.956)" d="M0-.5h245.096"/><path transform="scale(1.14008 .8368) rotate(45 42.43 -35.667)" d="M0-.5h245.096"/><path transform="scale(1.14008 .8368) rotate(45 34.491 -32.379)" d="M0-.5h245.096"/><path transform="scale(1.14008 .8368) rotate(45 26.551 -29.09)" d="M0-.5h245.096"/><path transform="scale(1.14008 .8368) rotate(45 18.613 -25.802)" d="M0-.5h245.096"/><path transform="scale(1.14008 .8368) rotate(45 10.673 -22.513)" d="M0-.5h245.096"/><path transform="scale(1.14008 .8368) rotate(45 2.734 -19.225)" d="M0-.5h245.096"/><path transform="scale(1.14008 .8368) rotate(45 -5.205 -15.936)" d="M0-.5h245.096"/><path transform="scale(1.14008 .8368) rotate(45 -13.145 -12.647)" d="M0-.5h245.096"/><path transform="scale(1.14008 .8368) rotate(45 -21.085 -9.359)" d="M0-.5h245.096"/><path transform="scale(1.14008 .8368) rotate(45 -29.024 -6.07)" d="M0-.5h245.096"/><path transform="scale(1.14008 .8368) rotate(45 -36.963 -2.781)" d="M0-.5h245.096"/><path transform="scale(1.14008 .8368) rotate(45 -44.903 .507)" d="M0-.5h245.096"/><path transform="scale(1.14008 .8368) rotate(45 -52.842 3.796)" d="M0-.5h245.096"/><path transform="scale(1.14008 .8368) rotate(45 -60.781 7.084)" d="M0-.5h245.096"/><path transform="scale(1.14008 .8368) rotate(45 -68.72 10.373)" d="M0-.5h245.096"/><path transform="scale(1.14008 .8368) rotate(45 -76.66 13.661)" d="M0-.5h245.096"/><path transform="scale(1.14008 .8368) rotate(45 -84.599 16.95)" d="M0-.5h245.096"/><path transform="scale(1.14008 .8368) rotate(45 -92.539 20.239)" d="M0-.5h245.096"/><path transform="scale(1.14008 .8368) rotate(45 -100.477 23.527)" d="M0-.5h245.096"/><path transform="scale(1.14008 .8368) rotate(45 -108.417 26.816)" d="M0-.5h245.096"/><path transform="scale(1.14008 .8368) rotate(45 -116.357 30.104)" d="M0-.5h245.096"/><path transform="scale(1.14008 .8368) rotate(45 -124.296 33.393)" d="M0-.5h245.096"/><path transform="scale(1.14008 .8368) rotate(45 -132.235 36.682)" d="M0-.5h245.096"/><path transform="scale(1.14008 .8368) rotate(45 -140.175 39.97)" d="M0-.5h245.096"/><path transform="scale(1.14008 .8368) rotate(45 -148.114 43.259)" d="M0-.5h245.096"/><path transform="scale(1.14008 .8368) rotate(45 -156.054 46.547)" d="M0-.5h245.096"/><path transform="scale(1.14008 .8368) rotate(45 -163.993 49.836)" d="M0-.5h245.096"/><path transform="scale(1.14008 .8368) rotate(45 -171.932 53.124)" d="M0-.5h245.096"/><path transform="scale(1.14008 .8368) rotate(45 -179.871 56.413)" d="M0-.5h245.096"/><path transform="scale(1.14008 .8368) rotate(45 -187.811 59.702)" d="M0-.5h245.096"/><path transform="scale(1.14008 .8368) rotate(45 -195.75 62.99)" d="M0-.5h245.096"/><path transform="scale(1.14008 .8368) rotate(45 -203.69 66.28)" d="M0-.5h245.096"/><path transform="scale(1.14008 .8368) rotate(45 -211.629 69.567)" d="M0-.5h245.096"/><path transform="scale(1.14008 .8368) rotate(45 -219.567 72.856)" d="M0-.5h245.096"/><path transform="scale(1.14008 .8368) rotate(45 -227.508 76.145)" d="M0-.5h245.096"/><path transform="scale(1.14008 .8368) rotate(45 -235.448 79.434)" d="M0-.5h245.096"/><path transform="scale(1.14008 .8368) rotate(45 -243.386 82.722)" d="M0-.5h245.096"/><path transform="scale(1.14008 .8368) rotate(45 -251.326 86.01)" d="M0-.5h245.096"/><path transform="scale(1.14008 .8368) rotate(45 -259.266 89.3)" d="M0-.5h245.096"/><path transform="scale(1.14008 .8368) rotate(45 -267.205 92.588)" d="M0-.5h245.096"/></g></svg>