<svg width="91" height="91" fill="none" xmlns="http://www.w3.org/2000/svg"><path d="M42.824 80.17c0-7.299-5.938-13.237-13.237-13.237H.29v15.884h42.535V80.17zm5.296 0v2.647h42.534V66.933H61.356c-7.298 0-13.237 5.938-13.237 13.237z" fill="#1068FF"/><path d="M50.513 18.097L45.5 8.182l-5.01 9.915-11.368 1.61 8.232 7.832-1.926 10.967L45.5 33.333l10.078 5.175-1.928-10.97 8.229-7.83-11.366-1.61z" fill="#F9D407"/><path d="M39.756 64.707c-3.318-5.029-9.002-8.364-15.463-8.364H5.76v5.295h23.826c3.757 0 7.245 1.14 10.169 3.069zm21.6-3.069h23.827v-5.295H66.65c-6.462 0-12.146 3.335-15.463 8.364a18.402 18.402 0 0110.168-3.07z" fill="#1068FF"/></svg>