<svg width="25" height="13" fill="none" xmlns="http://www.w3.org/2000/svg"><path d="M12.5 3.375A3.129 3.129 0 009.375 6.5 3.129 3.129 0 0012.5 9.625 3.129 3.129 0 0015.625 6.5 3.129 3.129 0 0012.5 3.375zm0 4.688c-.862 0-1.563-.701-1.563-1.563s.701-1.563 1.563-1.563 1.563.701 1.563 1.563-.701 1.563-1.563 1.563z" fill="#fff"/><path d="M23.926 4.62l-3.382-2.105C18.163 1.033 15.38.25 12.5.25c-2.881 0-5.663.783-8.044 2.265L1.074 4.62C.4 5.04 0 5.742 0 6.5c0 .758.401 1.461 1.074 1.88l3.382 2.105C6.837 11.967 9.62 12.75 12.5 12.75c2.881 0 5.663-.783 8.044-2.265l3.382-2.105C24.6 7.96 25 7.258 25 6.5c0-.758-.401-1.461-1.074-1.88zM12.5 11.187A4.693 4.693 0 017.812 6.5 4.693 4.693 0 0112.5 1.812 4.693 4.693 0 0117.188 6.5a4.693 4.693 0 01-4.688 4.688z" fill="#fff"/></svg>