<svg width="62" height="81" fill="none" xmlns="http://www.w3.org/2000/svg"><path d="M22.031-4.531h2.938v5.875H22.03v-5.875zM4.654 2.156L7.098.526l2.94 4.406-2.445 1.63-2.939-4.406zM36.977 4.94L39.916.534l2.443 1.63L39.42 6.57l-2.443-1.63zm51.896 39.647a31.917 31.917 0 00-4.514-10.922l1.71-3.45-7.723-7.721-3.452 1.71a31.857 31.857 0 00-10.92-4.514l-1.232-3.659H51.82l-1.235 3.659c-1.86.392-3.682.949-5.441 1.661-1.863-9.708-10.408-17.07-20.653-17.07H22.51c-11.602 0-21.04 9.438-21.04 21.04a21.13 21.13 0 004.61 13.145l3.792 4.74a15.337 15.337 0 013.27 8.075H11.75a4.412 4.412 0 00-4.406 4.407c0 2.03 1.388 3.729 3.26 4.235a4.381 4.381 0 00-.323 1.64c0 1.912 1.232 3.527 2.938 4.135v1.74c0 5.667 4.613 10.28 10.281 10.28a10.25 10.25 0 007.307-3.059l5.41 5.41 3.451-1.71a31.857 31.857 0 0010.92 4.514l1.232 3.658h10.922l1.234-3.658a31.899 31.899 0 0010.92-4.514l3.451 1.71 7.723-7.723-1.71-3.45a31.879 31.879 0 004.514-10.922l3.657-1.232V45.82l-3.658-1.233zM14.687 63.03a1.47 1.47 0 010-2.937h17.626a1.47 1.47 0 010 2.937H14.686zm21.709-3.108c1.872-.508 3.26-2.204 3.26-4.236a4.412 4.412 0 00-4.406-4.406h-1.39a15.327 15.327 0 013.27-8.075l3.79-4.741a20.993 20.993 0 001.674-2.457v13.804H57.28v-12.61l2.507-2.507-2.076-2.077-2.508 2.507H43.09a21.148 21.148 0 001.479-3.588A23.402 23.402 0 0157.28 27.78c12.958 0 23.5 10.543 23.5 23.5 0 12.958-10.542 23.5-23.5 23.5-8.674 0-16.53-4.72-20.65-12.348a4.38 4.38 0 00.088-.87c0-.58-.12-1.131-.323-1.64zm13.111-14.947l4.837-4.837v6.736H45.53v-8.813h6.736L47.43 42.9l2.077 2.077zM4.407 25.32c0-9.982 8.12-18.102 18.102-18.102h1.982c9.982 0 18.103 8.12 18.103 18.102 0 4.093-1.409 8.11-3.967 11.31l-1.948 2.436a7.29 7.29 0 00-1.444-.46l-5.196-1.042a2.939 2.939 0 01-1.72-1.349 7.358 7.358 0 001.904-2.56h.62a4.412 4.412 0 004.407-4.406 4.35 4.35 0 00-.395-1.802l.956-1.913a8.65 8.65 0 00.908-3.843c0-4.741-3.857-8.598-8.598-8.598h-9.24c-4.743 0-8.6 3.857-8.6 8.598a8.67 8.67 0 00.908 3.845l.955 1.91a4.38 4.38 0 00-.394 1.803 4.412 4.412 0 004.406 4.406h.623a7.35 7.35 0 001.905 2.562c-.37.64-.953 1.128-1.607 1.317l-5.314 1.07c-.5.102-.978.26-1.44.46l-1.95-2.434a18.17 18.17 0 01-3.967-11.31zm11.75 5.398a1.47 1.47 0 010-2.938v2.938zm1.468-7.344h-1.469v1.469c-.653 0-1.267.151-1.825.408l-.513-1.027a5.696 5.696 0 01-.6-2.533c0-3.121 2.54-5.66 5.661-5.66h9.24a5.667 5.667 0 015.662 5.66c0 .872-.207 1.748-.597 2.532l-.515 1.027a4.365 4.365 0 00-1.825-.407v-1.469h-1.469c-1.438 0-2.8-.55-3.838-1.548l-2.037-1.96-2.037 1.96a5.506 5.506 0 01-3.838 1.548zm13.219 4.406a1.47 1.47 0 010 2.938V27.78zm-11.75 2.938v-4.533a8.438 8.438 0 004.406-2.241 8.433 8.433 0 004.406 2.241v4.533a4.412 4.412 0 01-4.406 4.406 4.412 4.412 0 01-4.406-4.406zm2.144 6.95c.717.235 1.467.394 2.262.394.795 0 1.547-.16 2.263-.394.181.31.391.6.626.87A2.936 2.936 0 0123.5 41a2.937 2.937 0 01-2.889-2.451c.235-.273.447-.566.627-.88zm-8.97 3.842c.027-.006.05-.019.078-.023l5.426-1.1c.101-.03.197-.072.295-.108a5.876 5.876 0 005.433 3.657 5.866 5.866 0 005.431-3.667c.137.05.27.106.412.147l5.31 1.07c.027.006.052.02.078.026a18.27 18.27 0 00-3.826 9.768H16.093a18.28 18.28 0 00-3.825-9.77zm-.518 12.71h23.5a1.47 1.47 0 010 2.937h-23.5a1.47 1.47 0 010-2.937zM23.5 74.78c-4.05 0-7.344-3.294-7.344-7.344V65.97h14.688v1.469c0 4.049-3.295 7.343-7.344 7.343zm66.094-20.148l-3.287 1.107-.154.852a29.018 29.018 0 01-4.696 11.357l-.49.71 1.534 3.1-4.74 4.74-3.099-1.536-.71.49a29.004 29.004 0 01-11.357 4.697l-.852.154-1.11 3.29H53.93l-1.108-3.287-.852-.154a29.018 29.018 0 01-11.356-4.696l-.711-.49-3.1 1.534-4.23-4.231a10.259 10.259 0 001.208-4.832v-1.74c.37-.132.723-.3 1.04-.52 4.804 7.784 13.22 12.54 22.46 12.54 14.578 0 26.438-11.86 26.438-26.437 0-14.577-11.86-26.437-26.438-26.437-4.18 0-8.26 1.001-11.902 2.857.09-.79.152-1.582.152-2.38 0-.307-.032-.607-.045-.91a29.35 29.35 0 016.484-2.001l.852-.154 1.108-3.287h6.703l1.107 3.287.852.154a29.018 29.018 0 0111.357 4.696l.71.49 3.1-1.535 4.74 4.74-1.536 3.1.49.71a29.004 29.004 0 014.697 11.356l.154.852 3.29 1.11v6.704z" fill="#fff"/><path d="M57.281 54.827l2.507-2.507-2.076-2.077-2.508 2.507h-12.61v14.688H57.28v-12.61zM45.531 64.5v-8.812h6.736l-4.837 4.836 2.077 2.077 4.837-4.836V64.5H45.53zm14.688 0h11.75v2.938h-11.75V64.5zm0-5.875h11.75v2.938h-11.75v-2.938zm0-5.875h11.75v2.938h-11.75V52.75zm0-5.875h11.75v2.938h-11.75v-2.938zm0-5.875h11.75v2.938h-11.75V41zm0-5.875h11.75v2.938h-11.75v-2.938z" fill="#fff"/></svg>