<svg width="170" height="13" fill="none" xmlns="http://www.w3.org/2000/svg"><path d="M1 1s7.685 12.628 16.46 10.824C26.235 10.02 23.888 1 34.04 1c10.15 0 3.842 10.824 16.46 10.824S59.641 1 66.96 1c7.32 0 5.943 10.824 16.58 10.824C94.176 11.824 100 1 100 1" stroke="#F9D407" stroke-width="2" stroke-miterlimit="10"/><path d="M169 1s-7.685 12.628-16.46 10.824C143.765 10.02 146.112 1 135.96 1c-10.151 0-3.842 10.824-16.46 10.824S110.359 1 103.04 1c-7.32 0-5.943 10.824-16.58 10.824C75.824 11.824 70 1 70 1" stroke="#F9D407" stroke-width="2" stroke-miterlimit="10"/></svg>