<svg width="99" height="99" fill="none" xmlns="http://www.w3.org/2000/svg"><g clip-path="url(#clip0_430_396)" fill="#fff"><path d="M105.913 91.461c-.911 0-1.651.74-1.651 1.65v8.472c0 .615-.496 1.115-1.106 1.116l-41.999.067h-.002a1.112 1.112 0 01-1.109-1.116v-8.417c0-4.238-3.44-7.686-7.67-7.686h-7.555a9.593 9.593 0 01-6.944-2.942 9.648 9.648 0 01-2.735-7.075l.47-15.044a3.888 3.888 0 00-3.593-4.007l-4.171-.32a.576.576 0 01-.468-.299.585.585 0 01-.013-.565l5.77-11.416a1.65 1.65 0 10-2.946-1.49l-5.77 11.417a3.894 3.894 0 00.082 3.675 3.883 3.883 0 003.092 1.97l4.172.32a.592.592 0 01.545.612l-.47 15.044a12.923 12.923 0 003.665 9.475 12.867 12.867 0 009.314 3.946h7.555c2.41 0 4.37 1.967 4.37 4.385v8.416c0 1.183.46 2.294 1.296 3.129a4.378 4.378 0 003.113 1.288h.008L103.16 106a4.42 4.42 0 004.403-4.417v-8.472a1.65 1.65 0 00-1.651-1.65zm3.8-85.819C101.222-2.581 90-6.93 78.12-6.6A43.647 43.647 0 0050.78 4.054c-7.514 6.525-12.623 15.49-14.385 25.243a8.656 8.656 0 01-.783 2.368l-2.598 5.14a1.65 1.65 0 102.946 1.49l2.598-5.14a11.977 11.977 0 001.086-3.271c1.629-9.016 6.352-17.304 13.3-23.338A40.337 40.337 0 0178.213-3.3C89.199-3.603 99.569.414 107.417 8.013c7.87 7.621 12.231 17.9 12.281 28.944.041 9.12-2.873 17.741-8.425 24.932-4.521 5.854-7.011 13.264-7.011 20.866v3.754a1.65 1.65 0 003.302 0v-3.754c0-6.875 2.245-13.569 6.322-18.848 6.006-7.779 9.158-17.102 9.113-26.964-.054-11.941-4.772-23.057-13.286-31.301z"/><path d="M80.941 67.735c17.177 0 31.152-13.975 31.152-31.152S98.118 5.431 80.941 5.431 49.79 19.406 49.79 36.583s13.975 31.152 31.152 31.152zm0-59.003c15.357 0 27.851 12.494 27.851 27.851s-12.494 27.85-27.85 27.85c-15.358 0-27.852-12.493-27.852-27.85 0-15.357 12.494-27.85 27.851-27.85z"/><path d="M67.192 50.806a7.994 7.994 0 005.69 2.357 7.99 7.99 0 005.688-2.357l3.197-3.197 3.197 3.197a7.994 7.994 0 005.69 2.357 7.994 7.994 0 005.689-2.357c3.137-3.137 3.137-8.242 0-11.379l-3.197-3.197 3.197-3.197c3.137-3.137 3.137-8.241 0-11.379-3.137-3.136-8.242-3.137-11.379 0l-3.197 3.197-3.196-3.196c-3.138-3.138-8.242-3.138-11.38 0-3.136 3.137-3.136 8.241 0 11.378l3.198 3.197-3.197 3.197c-3.137 3.137-3.137 8.242 0 11.379zm26.816-9.044a4.75 4.75 0 010 6.71 4.714 4.714 0 01-3.355 1.39 4.713 4.713 0 01-3.354-1.39l-3.197-3.197 6.71-6.71 3.196 3.197zm-12.24 1.178l-6.71-6.71 6.71-6.71 6.71 6.71-6.71 6.71zm5.53-18.95a4.73 4.73 0 013.355-1.388 4.73 4.73 0 013.355 1.387 4.75 4.75 0 010 6.71l-3.196 3.197-6.71-6.71 3.197-3.197zM69.527 30.7a4.75 4.75 0 010-6.71 4.73 4.73 0 013.355-1.388 4.73 4.73 0 013.355 1.387l3.197 3.197-6.71 6.71-3.197-3.197zm0 11.062l3.197-3.197 6.71 6.71-3.197 3.197a4.713 4.713 0 01-3.355 1.39 4.714 4.714 0 01-3.355-1.39 4.75 4.75 0 010-6.71z"/></g><defs><clipPath id="clip0_430_396"><path d="M0 0h89c5.523 0 10 4.477 10 10v79c0 5.523-4.477 10-10 10H0V0z" fill="#fff"/></clipPath></defs></svg>