<svg width="120" height="126" fill="none" xmlns="http://www.w3.org/2000/svg"><g clip-path="url(#clip0_430_427)" fill="#fff"><path d="M168.438 41.623h-5.684v-3.656l3.547-3.906a10.974 10.974 0 002.855-7.391v-9.263c0-6.477-5.27-11.747-11.747-11.747h-5.403c-6.477 0-11.747 5.27-11.747 11.747v9.263c0 2.739 1.014 5.364 2.855 7.391l3.547 3.907v3.655h-5.684c-5.523 0-10.151 3.893-11.291 9.078a12.786 12.786 0 00-1.774-.126h-6.658v-4.472l4.061-4.472a12.103 12.103 0 003.149-8.153V23.045c0-7.154-5.82-12.974-12.974-12.974a2.029 2.029 0 100 4.06c4.916 0 8.915 3.998 8.915 8.914v10.433c0 2.01-.744 3.936-2.095 5.424l-4.182 4.606c-.561.36-.933.99-.933 1.708v7.389c0 1.12.908 2.03 2.03 2.03h8.687c4.801 0 8.707 3.905 8.707 8.706v12.735H88.277V63.34c0-3.743 2.374-6.942 5.695-8.17.157-.032.305-.084.446-.15a8.684 8.684 0 012.565-.387h8.688a2.029 2.029 0 002.029-2.03v-7.388c0-.717-.372-1.347-.933-1.708l-4.182-4.606a8.053 8.053 0 01-2.095-5.424V23.045c0-4.916 3.998-8.915 8.914-8.915a2.03 2.03 0 100-4.059c-7.154 0-12.973 5.82-12.973 12.974v10.433c0 3.02 1.118 5.916 3.149 8.153l4.061 4.472v4.472h-6.659c-.567 0-1.124.04-1.672.113-1.145-5.179-5.77-9.065-11.287-9.065h-5.684v-3.656l3.546-3.906a10.973 10.973 0 002.855-7.391v-9.263c0-6.477-5.27-11.747-11.746-11.747H67.59c-6.477 0-11.747 5.27-11.747 11.747v9.263c0 2.739 1.014 5.364 2.855 7.391l3.547 3.907v3.655h-5.684C50.187 41.623 45 46.809 45 53.185v13.108a2.03 2.03 0 002.03 2.03h31.576a2.03 2.03 0 100-4.059H49.06v-11.08c0-4.136 3.366-7.502 7.503-7.502h7.714a2.03 2.03 0 002.03-2.03v-6.56c0-.706-.361-1.328-.908-1.691l-3.694-4.068a6.922 6.922 0 01-1.801-4.663v-9.263c0-4.24 3.449-7.688 7.688-7.688h5.403c4.239 0 7.688 3.449 7.688 7.688v9.263c0 1.728-.64 3.384-1.801 4.663L75.186 35.4a2.028 2.028 0 00-.906 1.69v6.56a2.03 2.03 0 002.03 2.03h7.713c3.685 0 6.755 2.671 7.383 6.178-4.252 2.074-7.189 6.44-7.189 11.481v14.764a2.03 2.03 0 002.03 2.03h52.401a2.029 2.029 0 002.029-2.03V63.34c0-5.002-2.893-9.339-7.093-11.431.608-3.532 3.691-6.228 7.393-6.228h7.713c1.122 0 2.03-.908 2.03-2.03v-6.56c0-.705-.36-1.327-.908-1.69l-3.693-4.068a6.919 6.919 0 01-1.801-4.663v-9.263c0-4.24 3.449-7.688 7.688-7.688h5.403c4.239 0 7.688 3.449 7.688 7.688v9.263c0 1.728-.64 3.384-1.801 4.663l-3.694 4.068a2.027 2.027 0 00-.907 1.69v6.56c0 1.122.908 2.03 2.029 2.03h7.714c4.137 0 7.503 3.366 7.503 7.504v11.079h-29.198a2.03 2.03 0 100 4.059h31.228a2.029 2.029 0 002.029-2.03V53.184c0-6.375-5.186-11.561-11.562-11.561zm-35.528 64.233a2.029 2.029 0 00-1.601-1.376l-11.087-1.82-5.156-9.982a2.03 2.03 0 00-3.606 0l-5.157 9.982-11.086 1.82a2.028 2.028 0 00-1.115 3.43l7.899 7.988-1.695 11.106a2.03 2.03 0 002.917 2.12l10.039-5.044 10.039 5.044a2.028 2.028 0 002.917-2.12l-1.695-11.106 7.899-7.988c.535-.54.723-1.333.488-2.054zm-11.989 7.913a2.03 2.03 0 00-.563 1.733l1.256 8.231-7.44-3.738a2.03 2.03 0 00-1.822 0l-7.44 3.738 1.256-8.231a2.029 2.029 0 00-.563-1.733l-5.855-5.92 8.216-1.349a2.03 2.03 0 001.475-1.071l3.821-7.397 3.822 7.397c.294.57.841.967 1.474 1.071l8.216 1.349-5.853 5.92zM88.484 90.933a2.03 2.03 0 00-1.601-1.376l-11.087-1.82-5.156-9.982a2.03 2.03 0 00-3.607 0l-5.156 9.982-11.086 1.82a2.03 2.03 0 00-1.115 3.43l7.9 7.989-1.696 11.106a2.03 2.03 0 002.918 2.12l10.039-5.045 10.038 5.045a2.026 2.026 0 002.104-.172 2.03 2.03 0 00.813-1.948l-1.695-11.106 7.9-7.989c.534-.54.722-1.332.487-2.054zm-11.99 7.914a2.03 2.03 0 00-.563 1.733l1.257 8.23-7.44-3.738a2.029 2.029 0 00-1.822 0l-7.44 3.738 1.256-8.23a2.03 2.03 0 00-.563-1.733l-5.854-5.92 8.216-1.35a2.03 2.03 0 001.475-1.07l3.821-7.398 3.822 7.398c.294.57.841.967 1.474 1.07l8.216 1.35-5.854 5.92z"/></g><defs><clipPath id="clip0_430_427"><path d="M0 0h110c5.523 0 10 4.477 10 10v106c0 5.523-4.477 10-10 10H0V0z" fill="#fff"/></clipPath></defs></svg>