<svg width="74" height="81" fill="none" xmlns="http://www.w3.org/2000/svg"><path fill-rule="evenodd" clip-rule="evenodd" d="M21.602 10.826c0-3.847-3.13-6.977-6.978-6.977a6.986 6.986 0 00-6.978 6.977 6.985 6.985 0 006.978 6.978 6.985 6.985 0 006.978-6.977zm-10.557 0a3.583 3.583 0 013.579-3.578 3.583 3.583 0 013.58 3.578 3.583 3.583 0 01-3.58 3.58 3.583 3.583 0 01-3.58-3.58zM61.521 41.52c-4.378 0-8.1 1.091-10.35 2.825l-6.093-1.357a1.699 1.699 0 10-.738 3.317l4.67 1.04c-.087.34-.133.688-.133 1.045 0 2.309 1.89 4.281 4.916 5.513l-2.72 2.8a1.7 1.7 0 002.437 2.368l4.02-4.136a24.05 24.05 0 003.991.325c7.209 0 12.645-2.954 12.645-6.87s-5.436-6.87-12.645-6.87zm0 10.341c-5.558 0-9.246-2.09-9.246-3.471 0-.29.164-.61.47-.935a1.48 1.48 0 00.148-.147c1.268-1.185 4.408-2.39 8.628-2.39 5.559 0 9.247 2.09 9.247 3.472 0 1.382-3.688 3.471-9.247 3.471zM41.314 71.618l2.72-2.8a1.7 1.7 0 00-2.437-2.368l-4.02 4.135a24.012 24.012 0 00-3.991-.325c-7.208 0-12.645 2.954-12.645 6.87S26.378 84 33.586 84c7.208 0 12.645-2.954 12.645-6.87 0-2.308-1.89-4.281-4.917-5.512zm-7.728 8.984c-5.558 0-9.246-2.09-9.246-3.472 0-1.382 3.688-3.471 9.246-3.471s9.246 2.09 9.246 3.471c0 1.382-3.688 3.472-9.246 3.472z" fill="#fff"/><path fill-rule="evenodd" clip-rule="evenodd" d="M31.067 43.35a1.694 1.694 0 002.028-1.289 1.699 1.699 0 00-1.289-2.028l-4.671-1.04c.087-.34.133-.688.133-1.045 0-3.184-3.542-5.335-7.599-6.302l7.583-15.186.035-.075a13.733 13.733 0 001.163-5.558C28.45 3.203 22.248-3 14.624-3 7-3 .797 3.203.797 10.827a13.726 13.726 0 001.2 5.633l7.589 15.201c-4.068.99-7.607 3.142-7.607 6.288 0 3.916 5.436 6.869 12.645 6.869 4.378 0 8.1-1.091 10.35-2.825l6.093 1.357zM4.195 10.827C4.195 5.077 8.873.398 14.624.398c5.75 0 10.428 4.679 10.428 10.429 0 1.444-.29 2.841-.86 4.153l-9.568 19.165L5.056 14.98a10.343 10.343 0 01-.86-4.153zm1.182 27.122c0-.893 2.213-2.445 5.773-3.154l1.954 3.912a1.699 1.699 0 003.04 0l1.958-3.923c3.6.683 5.768 2.231 5.768 3.164 0 .29-.165.611-.472.938a1.547 1.547 0 00-.147.145c-1.268 1.184-4.408 2.388-8.627 2.388-5.559 0-9.247-2.088-9.247-3.47zm42.177 23.112c-.936 0-1.7.763-1.7 1.7 0 .935.764 1.699 1.7 1.699.936 0 1.699-.764 1.699-1.7 0-.936-.763-1.699-1.7-1.699zm-9.482-16.193c.936 0 1.7-.763 1.7-1.7 0-.935-.764-1.698-1.7-1.698-.936 0-1.699.763-1.699 1.699s.763 1.7 1.7 1.7z" fill="#fff"/></svg>