<svg width="99" height="110" fill="none" xmlns="http://www.w3.org/2000/svg"><path d="M119.109 35.922V5.672h-32.45c-.738-2.19-2.787-3.781-5.222-3.781h-.549c-2.873 0-5.295 2.244-5.514 5.106l-3 38.98-9.845-6.563a20.713 20.713 0 00-6.173-2.78c3.658-2.762 6.035-7.13 6.035-12.056 0-8.34-6.786-15.125-15.125-15.125-8.34 0-15.125 6.786-15.125 15.125 0 4.436 1.93 8.42 4.981 11.187a17.054 17.054 0 01-6.658-2.367L11.508 21.733a6.292 6.292 0 00-3.306-.936 6.318 6.318 0 00-6.311 6.31v.738a6.297 6.297 0 002.88 5.301l24.942 16.137a9.414 9.414 0 014.318 7.937v29.915c-12.949 5.993-23.557 16.25-29.945 29.029l-1.473 2.945h115.774l-1.473-2.947c-7.347-14.694-20.371-26.059-35.878-31.41l1.246-16.19.74.455a6.304 6.304 0 003.308.936c3.478 0 6.31-2.83 6.31-6.31v-.778a6.3 6.3 0 00-2.809-5.25l-6.379-4.252 1.34-17.441h34.317zm-3.781-3.781H85.084l1.745-22.688h28.499v22.688zM79.142 7.286a1.76 1.76 0 011.746-1.614h.549c.964 0 1.75.784 1.745 1.885L75.89 102.37a1.76 1.76 0 01-1.747 1.614h-.549c-.966 0-1.75-.784-1.745-1.885l7.293-94.813zm-9.537 74.69a62.493 62.493 0 00-9.107-.66l.002-26.159 10.663 6.563-1.558 20.256zm-20.504-29.53L47.266 55.2l-1.836-2.755 1.195-12.743h1.282L49.1 52.446zm-13.18-27.868c0-6.256 5.089-11.344 11.345-11.344s11.343 5.088 11.343 11.344c0 6.256-5.087 11.344-11.343 11.344s-11.344-5.088-11.344-11.344zm-4.153 21.529L6.828 29.972a2.529 2.529 0 01-1.156-2.127v-.737a2.534 2.534 0 012.53-2.53c.468 0 .926.129 1.325.375l18.955 11.665a20.784 20.784 0 0010.902 3.085h3.442L41.54 53.43l5.727 8.59 5.726-8.59-1.281-13.673c3.113.13 6.12 1.068 8.723 2.806L72.042 50.3l-.552 7.18-10.455-6.433h-4.316l-.004 53.022c0 2.039-1.658 3.697-3.863 3.697a3.7 3.7 0 01-3.696-3.697V69.954h-3.781v34.114c0 2.038-1.658 3.696-3.866 3.696a3.7 3.7 0 01-3.697-3.696V57.22c0-4.511-2.259-8.665-6.044-11.113zm-8.598 52.26a5.66 5.66 0 011.408 3.727 5.679 5.679 0 01-5.672 5.672 5.667 5.667 0 01-3.8-1.467 59.537 59.537 0 018.064-7.932zm83.406 8.739a5.582 5.582 0 01-2.592.66 5.679 5.679 0 01-5.671-5.672c0-.97.27-1.891.733-2.719a59.744 59.744 0 017.53 7.731zM96.07 96.976a9.317 9.317 0 00-1.539 5.118c0 5.212 4.24 9.453 9.453 9.453a9.354 9.354 0 004.905-1.405 58.846 58.846 0 013.301 5.186H8.808c1.188-2.112 2.54-4.114 3.967-6.054a9.436 9.436 0 006.131 2.273c5.213 0 9.453-4.241 9.453-9.453a9.44 9.44 0 00-2.181-6.007 59.06 59.06 0 017.853-4.72v12.701c0 4.123 3.354 7.477 7.648 7.477 2.236 0 4.224-1.008 5.594-2.567a7.638 7.638 0 005.746 2.569c4.123 0 7.477-3.354 7.477-7.478l.002-18.97a59.82 59.82 0 018.816.658l-1.234 16.049a5.537 5.537 0 005.515 5.96h.548c2.873 0 5.295-2.245 5.515-5.107l1.077-14.011a59.288 59.288 0 0115.335 8.328zM87.733 60.76a2.526 2.526 0 011.126 2.104v.777a2.534 2.534 0 01-2.53 2.53 2.53 2.53 0 01-1.325-.374l-2.395-1.475.51-6.638 4.614 3.076z" fill="#fff"/><path d="M92.64 13.234h3.782v3.782H92.64v-3.782zm-5.671 85.079h3.781v3.781h-3.781v-3.781zm-5.672 9.453h3.781v3.781h-3.781v-3.781z" fill="#fff"/></svg>