<svg width="99" height="94" fill="none" xmlns="http://www.w3.org/2000/svg"><g clip-path="url(#clip0_430_403)" fill="#fff"><path d="M64.503 72.914l8.117-1.822.867-4.14c-4.723-2.529-8.176-6.974-9.215-12.233h-.434c-4.653 0-8.438-3.61-8.438-8.047 0-1.453.438-2.797 1.146-3.975l-.177-.507c-.103-.27-2.556-6.68-2.556-11.541 0-4.432 3.597-8.084 8.184-8.498l1.443-1.81c3.726-4.675 9.656-7.466 15.862-7.466 2.319 0 4.597.377 6.774 1.122l16.146 5.525c5.363 1.834 8.966 6.677 8.966 12.054 0 1.05-.137 2.099-.416 3.143l-2.089 7.326-.221.842c.64 1.133 1.038 2.409 1.038 3.785 0 4.437-3.785 8.047-8.438 8.047h-.335c-1.04 5.26-4.492 9.704-9.216 12.233l.868 4.14 8.116 1.822c12.257 2.75 20.817 13.056 20.817 25.065v3.412H43.688v-3.412c0-12.01 8.56-22.314 20.815-25.065zm5.61 2.047l3.008 7.648 6.473-5.145-5.812-3.325-3.668.823zM63.84 51.5h.103c0-.034-.005-.066-.005-.101v-9.555h-.098c-2.792 0-5.063 2.166-5.063 4.828 0 2.662 2.271 4.828 5.063 4.828zm37.243-28.948l-16.148-5.525a17.344 17.344 0 00-5.633-.933c-5.159 0-10.084 2.316-13.178 6.196L63.7 25.332h-.837c-3.13 0-5.677 2.385-5.677 5.319 0 3.185 1.286 7.36 1.962 9.339a8.672 8.672 0 014.692-1.365h.097v-1.107c0-4.714 4.002-8.55 8.92-8.55 7.097 0 11.22 2.455 15.207 4.83 3.167 1.885 6.446 3.83 11.503 4.827h1.495a8.68 8.68 0 014.729 1.387l1.718-6.112a9.082 9.082 0 00.303-2.324c0-4.022-2.705-7.648-6.729-9.024zm-.021 28.948c2.792 0 5.063-2.166 5.063-4.828 0-2.662-2.271-4.828-5.063-4.828V51.4c0 .034-.005.066-.005.102h.005V51.5zm-3.374-.1v-9.877c-4.99-1.171-8.386-3.193-11.411-4.995-3.914-2.329-7.292-4.34-13.42-4.34-3.057 0-5.544 2.391-5.544 5.331V51.4c0 8.042 6.814 14.584 15.187 14.584S97.688 59.442 97.688 51.4zM82.5 69.203c-2.045 0-4.008-.331-5.849-.919l-.7 3.341 6.549 3.749 6.55-3.749-.701-3.34a19.205 19.205 0 01-5.849.918zm8.718 4.934l-5.812 3.325 6.473 5.146 3.007-7.648-3.668-.822zM47.062 98.172h70.876v-.193c0-10.506-7.49-19.527-18.214-21.931l-1.523-.343-4.83 12.28-10.871-8.64-10.87 8.64-4.83-12.28-1.524.343c-10.724 2.404-18.213 11.425-18.213 21.93v.194zM31.537 65.019l-2.7 1.931-2.025-2.575v30.578h-3.375V64.375l-2.025 2.575-2.7-1.931 6.413-8.155 6.412 8.155z"/><path d="M45.374 67.594c0 .888.758 1.61 1.688 1.61h5.062l-2.7-1.932 2.025-2.575L60 70.812l-8.549 6.116-2.025-2.575 2.698-1.931h-5.062c-2.791 0-5.063-2.166-5.063-4.828v-4.828h3.375v4.828zm-11.811 24.14h-3.376v3.22h3.375v-3.22zm0-6.437h-3.376v3.219h3.375v-3.22zm0-6.437h-3.376v3.218h3.375V78.86zm11.812-28.97H42v3.22h3.375v-3.22zm0 6.438H42v3.219h3.375v-3.219zm28.688-8.047c-.933 0-1.688-.72-1.688-1.61 0-.888.755-1.608 1.688-1.608.931 0 1.687.72 1.687 1.609s-.755 1.61-1.688 1.61zm16.875 0c-.933 0-1.688-.72-1.688-1.61 0-.888.755-1.608 1.688-1.608.931 0 1.687.72 1.687 1.609s-.755 1.61-1.688 1.61zm-17.031 6.111l-.255-.487 3.018-1.44.254.488c1.048 2 3.156 3.243 5.498 3.243 2.343 0 4.45-1.24 5.498-3.242l.258-.488 3.02 1.44-.255.488c-1.624 3.098-4.888 5.021-8.517 5.021-3.63 0-6.895-1.925-8.519-5.023zM25.125 41.844v-7.709c-5.228-3.254-8.438-8.85-8.438-14.822 0-5.028 2.255-9.837 6.185-13.192 3.927-3.354 9.206-4.95 14.489-4.399 8.635.91 15.515 7.563 16.36 15.819.677 6.59-2.58 13.002-8.346 16.594v7.71c0 2.661-2.271 4.827-5.063 4.827H30.188c-2.792 0-5.063-2.166-5.063-4.828zm25.238-23.99c-.692-6.749-6.316-12.189-13.373-12.932a16.647 16.647 0 00-1.759-.095c-3.748 0-7.285 1.283-10.106 3.692-3.218 2.745-5.063 6.68-5.063 10.794 0 5.14 2.911 9.943 7.596 12.53l.623.345h5.282v-8.343c-1.96-.666-3.376-2.437-3.376-4.532 0-2.662 2.272-4.828 5.063-4.828s5.063 2.166 5.063 4.828c0 2.095-1.416 3.866-3.376 4.532v8.343h5.282l.623-.345c5.228-2.888 8.108-8.25 7.521-13.988zm-13.425 1.459c0-.889-.758-1.61-1.688-1.61-.93 0-1.688.721-1.688 1.61 0 .888.758 1.61 1.688 1.61.93 0 1.688-.722 1.688-1.61zM42 41.844v-6.437H28.5v6.437c0 .889.758 1.61 1.688 1.61h10.125c.93 0 1.687-.721 1.687-1.61z"/></g><defs><clipPath id="clip0_430_403"><path d="M0 0h89c5.523 0 10 4.477 10 10v74c0 5.523-4.477 10-10 10H0V0z" fill="#fff"/></clipPath></defs></svg>