<svg width="35" height="35" fill="none" xmlns="http://www.w3.org/2000/svg"><g clip-path="url(#clip0_1_838)"><path d="M29.043 19c-.566-.715-.404-1.033 0-1.672.007-.007 4.678-6.462 5.16-8.65l.002-.002c.24-.798 0-1.384-1.156-1.384h-3.827c-.974 0-1.423.503-1.664 1.066 0 0-1.948 4.664-4.704 7.687-.89.873-1.301 1.153-1.787 1.153-.24 0-.611-.28-.611-1.077V8.676c0-.957-.273-1.384-1.08-1.384H13.36c-.611 0-.974.446-.974.862 0 .907 1.378 1.115 1.52 3.668v5.537c0 1.213-.22 1.436-.708 1.436-1.3 0-4.458-4.682-6.33-10.042-.377-1.04-.746-1.46-1.727-1.46H1.312C.22 7.293 0 7.797 0 8.36c0 .995 1.3 5.94 6.05 12.474 3.164 4.46 7.62 6.876 11.675 6.876 2.436 0 2.734-.537 2.734-1.46 0-4.261-.22-4.664 1-4.664.566 0 1.54.28 3.815 2.431 2.6 2.55 3.028 3.693 4.483 3.693h3.827c1.09 0 1.643-.537 1.326-1.596-.728-2.227-5.646-6.807-5.867-7.113z" fill="#458AFF"/></g><defs><clipPath id="clip0_1_838"><path fill="#fff" d="M0 0h35v35H0z"/></clipPath></defs></svg>