<svg width="33" height="33" fill="none" xmlns="http://www.w3.org/2000/svg"><path d="M31.077.076H1.886c-1 0-1.81.811-1.81 1.811V31.08c0 1 .811 1.81 1.811 1.81h15.717V20.2h-4.262v-4.966h4.262v-3.655c0-4.24 2.588-6.546 6.369-6.546 1.81 0 3.367.135 3.82.195v4.43h-2.607c-2.057 0-2.455.978-2.455 2.412v3.164h4.919l-.641 4.966H22.73v12.69h8.346c1 0 1.811-.81 1.812-1.81V1.885c0-1-.812-1.81-1.812-1.81z" fill="url(#paint0_linear_1_841)"/><defs><linearGradient id="paint0_linear_1_841" x1="16.482" y1=".076" x2="16.482" y2="32.889" gradientUnits="userSpaceOnUse"><stop stop-color="#005EFF"/><stop offset="1" stop-color="#1A55BA"/></linearGradient></defs></svg>