<svg width="53" height="31" fill="none" xmlns="http://www.w3.org/2000/svg"><path d="M43.98 17.776c-.856-1.085-.611-1.567 0-2.537.012-.011 7.085-9.812 7.814-13.135l.004-.003C52.16.891 51.798 0 50.047 0h-5.795c-1.475 0-2.155.764-2.52 1.619 0 0-2.95 7.08-7.124 11.671-1.347 1.327-1.97 1.752-2.705 1.752-.362 0-.926-.425-.926-1.637V2.101C30.977.65 30.564 0 29.343 0h-9.112c-.925 0-1.475.678-1.475 1.309 0 1.377 2.087 1.694 2.303 5.569v8.407c0 1.843-.333 2.181-1.073 2.181-1.97 0-6.751-7.11-9.584-15.247C9.83.639 9.27.002 7.785.002H1.988C.333.002 0 .766 0 1.621 0 3.13 1.97 10.64 9.16 20.56 13.953 27.33 20.702 31 26.841 31c3.69 0 4.14-.815 4.14-2.216 0-6.47-.333-7.082 1.516-7.082.857 0 2.332.425 5.777 3.691C42.212 29.266 42.859 31 45.063 31h5.794c1.652 0 2.49-.815 2.008-2.422-1.102-3.382-8.549-10.337-8.885-10.802z" fill="#fff"/></svg>