<svg width="41" height="40" fill="none" xmlns="http://www.w3.org/2000/svg"><path d="M29.658 0h-18.65C4.938 0 0 4.857 0 10.828v18.345C0 35.142 4.938 40 11.008 40h18.65c6.07 0 11.008-4.857 11.008-10.828V10.828C40.666 4.858 35.728 0 29.658 0zm-9.325 30.937c-6.131 0-11.12-4.906-11.12-10.937s4.989-10.937 11.12-10.937c6.132 0 11.12 4.906 11.12 10.937 0 6.03-4.988 10.937-11.12 10.937zM31.72 11.642c-1.812 0-3.286-1.45-3.286-3.232 0-1.782 1.474-3.232 3.285-3.232 1.812 0 3.287 1.45 3.287 3.232 0 1.783-1.475 3.232-3.287 3.232z" fill="#fff"/><path d="M20.334 11.408c-4.816 0-8.735 3.855-8.735 8.592 0 4.738 3.918 8.593 8.735 8.593 4.817 0 8.735-3.855 8.735-8.593 0-4.737-3.918-8.592-8.735-8.592zm11.385-3.885a.895.895 0 00-.902.887c0 .49.405.887.902.887a.895.895 0 00.902-.887.895.895 0 00-.902-.887z" fill="#fff"/></svg>