<svg width="172" height="172" fill="none" xmlns="http://www.w3.org/2000/svg"><g clip-path="url(#clip0_4_1448)"><path d="M135.652 112.371l-10.094-2.964-21.963-14.345v-3.287c6.359-4.796 10.725-12.127 11.537-20.53 3.189-.514 5.632-3.285 5.632-6.616V55.59c0-.035-.003-.069-.005-.104v-11.45a4.966 4.966 0 002.077-4.053V29.505l15.156-2.581c2.491-.425 4.282-2.403 4.458-4.924.176-2.52-1.323-4.728-3.731-5.494L87.624.254a5.346 5.346 0 00-3.258 0L33.27 16.506c-2.408.766-3.907 2.974-3.732 5.494.112 1.601.877 2.982 2.058 3.886v13.702h-.125a5.224 5.224 0 00-5.218 5.218v6.802l-3.368 19.77c-.582 3.42 2.051 6.55 5.528 6.55h11.405c3.47 0 6.112-3.123 5.529-6.55l-3.369-19.77v-6.802a5.224 5.224 0 00-5.218-5.218h-.124V27.373l12.528 2.133v10.477c0 1.655.803 3.135 2.067 4.046l.005 11.562v9.038c0 3.331 2.443 6.102 5.632 6.615.811 8.4 5.173 15.727 11.526 20.523v3.303l-21.958 14.342-10.086 2.961c-10.794 3.167-18.415 13.077-18.415 24.595v7.509a2.52 2.52 0 105.04 0v-7.509c0-9.078 6.083-17.204 14.794-19.761l9.398-2.758 37.547 22.31c.762.453 1.77.477 2.573 0l37.549-22.312 9.397 2.759c8.71 2.557 14.794 10.683 14.794 19.761v24.334a5.668 5.668 0 01-5.661 5.661h-11.105v-10.86a2.52 2.52 0 10-5.039 0v10.86H44.767v-10.86a2.52 2.52 0 10-5.04 0v10.86H28.635a5.668 5.668 0 01-5.66-5.661v-5.046a2.52 2.52 0 10-5.04 0v5.046c0 5.9 4.8 10.699 10.7 10.699h114.732c5.899 0 10.699-4.799 10.699-10.699v-24.335c0-11.247-7.361-21.35-18.413-24.595zM39.818 72.889H28.414a.568.568 0 01-.562-.665L30.9 54.34h6.433l3.047 17.884a.568.568 0 01-.561.665zm-2.879-28.083v4.496h-5.647v-4.496c0-.099.08-.179.18-.179h5.288c.099 0 .18.08.18.18zm40.05 80.556l1.003 1.542-25.723-15.285 16.327-10.664a52.923 52.923 0 008.393 24.407zm-.017-10.876c5.93.843 12.123.843 18.056 0a48.148 48.148 0 01-4.24 8.129L86 129.973l-4.788-7.358a48.148 48.148 0 01-4.24-8.129zm18.039 10.876a52.918 52.918 0 008.392-24.407l16.327 10.664-25.722 15.285 1.003-1.542zm14.738-80.387h5.971v8.096h-2.964a3.012 3.012 0 01-3.008-3.008v-5.088h.001zM34.797 21.308L85.894 5.056a.331.331 0 01.202 0l51.096 16.252c.106.034.251.08.232.342-.018.262-.168.287-.277.306l-16.894 2.877-6.342-.784a2.52 2.52 0 00-.619 5l4.505.558v10.33l-63.594-.003V29.607l26.07-3.226a46.61 46.61 0 0111.443 0l9.867 1.22a2.52 2.52 0 00.619-5l-9.867-1.221a51.692 51.692 0 00-12.68 0l-27.914 3.454-16.899-2.878c-.11-.019-.259-.044-.277-.306-.018-.262.127-.308.232-.342zm21.476 31.763l-.003-8.096h5.981v5.088a3.011 3.011 0 01-3.008 3.008h-2.97zm5.545 16.878c-.13-2.051-1.834-3.658-3.881-3.658a1.664 1.664 0 01-1.663-1.663V58.11h2.97c4.436 0 8.046-3.61 8.046-8.047v-5.088h37.42v5.088c0 4.437 3.61 8.047 8.046 8.047h2.969v6.518c0 .917-.745 1.663-1.662 1.663-2.047 0-3.752 1.607-3.882 3.659C109.378 82.67 98.757 92.637 86 92.637c-12.758 0-23.379-9.966-24.182-22.688zM86 97.676a29.08 29.08 0 0012.556-2.847v1.597c0 4.308-.58 8.557-1.7 12.655-6.847 1.306-14.588 1.359-21.713 0a48.011 48.011 0 01-1.7-12.655c0-.053-.007-.106-.01-.158v-1.444A29.085 29.085 0 0086 97.676z" fill="#FEE"/></g><defs><clipPath id="clip0_4_1448"><path fill="#fff" d="M0 0h172v172H0z"/></clipPath></defs></svg>