<svg width="142" height="161" fill="none" xmlns="http://www.w3.org/2000/svg"><path d="M118.376 160.779H23.099a5.379 5.379 0 01-3.753-1.525 5.154 5.154 0 01-1.557-3.676v-97.94c.011-8.88 3.618-17.392 10.03-23.67 6.412-6.28 15.105-9.812 24.172-9.823h37.493c9.069.01 17.763 3.541 24.176 9.82 6.413 6.28 10.02 14.793 10.031 23.673v97.94a5.147 5.147 0 01-1.559 3.677 5.376 5.376 0 01-3.756 1.524zM51.998 28.739c-7.824.009-15.326 3.056-20.86 8.474-5.533 5.417-8.647 12.763-8.658 20.425v97.94a.6.6 0 00.181.429.625.625 0 00.438.178h95.277a.624.624 0 00.438-.178.602.602 0 00.182-.429v-97.94c-.011-7.66-3.124-15.005-8.656-20.423-5.532-5.417-13.032-8.465-20.856-8.476H51.998z" fill="#FEE"/><path d="M136.716 157.671H119v-51.372h8.749a13.889 13.889 0 019.703 3.941 13.32 13.32 0 014.025 9.503v33.256a4.575 4.575 0 01-.36 1.787 4.666 4.666 0 01-1.032 1.516 4.766 4.766 0 01-1.545 1.013 4.849 4.849 0 01-1.824.356zm-13.032-4.593h13.032l.068-33.324a8.77 8.77 0 00-2.65-6.255 9.147 9.147 0 00-6.388-2.595h-4.055l-.007 42.174zM22.48 157.671H4.76a4.813 4.813 0 01-3.365-1.366A4.616 4.616 0 010 153.011v-33.268a13.32 13.32 0 014.025-9.503 13.89 13.89 0 019.703-3.941h8.754l-.003 51.372zm-8.754-46.778a9.143 9.143 0 00-6.388 2.594 8.77 8.77 0 00-2.65 6.256v33.256l13.1.058v-42.164h-4.062zm93.683 49.885H33.947V120.21a6.214 6.214 0 011.878-4.432 6.48 6.48 0 014.525-1.84h60.656a6.478 6.478 0 014.525 1.84 6.213 6.213 0 011.878 4.432v40.568zm-68.77-4.594h64.079V120.21a1.663 1.663 0 00-.502-1.185 1.738 1.738 0 00-1.21-.494H40.35a1.738 1.738 0 00-1.21.494c-.32.314-.501.741-.502 1.185v35.974z" fill="#FEE"/><path d="M92.33 130.848h-43.3a2.37 2.37 0 01-1.66-.673 2.273 2.273 0 01-.686-1.624c0-.609.247-1.194.687-1.624a2.37 2.37 0 011.658-.673h43.3a2.37 2.37 0 011.66.673c.44.43.686 1.015.686 1.624 0 .609-.247 1.193-.687 1.624a2.37 2.37 0 01-1.658.673z" fill="#FEE"/><path d="M85.483 136.928a2.37 2.37 0 01-1.658-.673 2.273 2.273 0 01-.687-1.624v-6.08c0-.609.247-1.194.687-1.624a2.37 2.37 0 011.658-.673 2.37 2.37 0 011.659.673c.44.43.687 1.015.687 1.624v6.08c0 .609-.247 1.193-.687 1.624a2.37 2.37 0 01-1.659.673zm9.916-52.381H81.502a2.37 2.37 0 01-1.659-.672 2.273 2.273 0 01-.687-1.625c0-.609.247-1.193.687-1.624a2.37 2.37 0 011.659-.672h13.897a17.959 17.959 0 007.695-1.71 17.595 17.595 0 006.167-4.82l10.245-12.56a2.38 2.38 0 013.263-.323 2.261 2.261 0 01.403 3.187l-10.245 12.56a22.243 22.243 0 01-7.797 6.098 22.704 22.704 0 01-9.731 2.161zm-35.426-.001H46.076a22.707 22.707 0 01-9.731-2.16 22.24 22.24 0 01-7.797-6.097L18.303 63.727a2.252 2.252 0 01-.22-2.543 2.31 2.31 0 01.59-.685 2.364 2.364 0 011.724-.488c.306.034.602.126.872.272.27.146.508.342.7.578l10.247 12.562a17.594 17.594 0 006.167 4.821 17.963 17.963 0 007.695 1.709h13.897a2.37 2.37 0 011.659.672c.44.431.687 1.016.687 1.625s-.247 1.193-.687 1.624a2.37 2.37 0 01-1.659.672h-.002z" fill="#FEE"/><path d="M78.657 93.128h-15.83A4.68 4.68 0 0159.56 91.8a4.487 4.487 0 01-1.357-3.2V75.361a4.49 4.49 0 011.357-3.2 4.68 4.68 0 013.269-1.327h15.83a4.68 4.68 0 013.268 1.327 4.49 4.49 0 011.357 3.2v13.233a4.486 4.486 0 01-1.355 3.204 4.68 4.68 0 01-3.27 1.33zM62.905 75.442v13.165l15.752-.073-.065-13.166-15.687.074zm22.53-46.702H56.04a2.37 2.37 0 01-1.659-.673 2.273 2.273 0 01-.687-1.624v-9.767a4.646 4.646 0 011.405-3.316 4.846 4.846 0 013.387-1.374h24.506a4.846 4.846 0 013.385 1.375 4.646 4.646 0 011.405 3.315v9.767c0 .609-.247 1.193-.687 1.624a2.37 2.37 0 01-1.659.672zm-27.05-4.594H83.09v-7.47l-24.605-.096-.098.096-.003 7.47zm55.392 15.579c-.361 0-.716-.08-1.039-.236a2.327 2.327 0 01-.825-.662 2.266 2.266 0 01-.404-1.996l7.158-26.116a2.65 2.65 0 00-.282-2.05 2.727 2.727 0 00-1.683-1.248l-10.438-2.74a2.806 2.806 0 00-2.094.274 2.732 2.732 0 00-.806.7 2.684 2.684 0 00-.471.948l-5.706 20.872a2.273 2.273 0 01-.38.846 2.325 2.325 0 01-.689.632 2.377 2.377 0 01-1.83.26 2.365 2.365 0 01-.844-.413 2.312 2.312 0 01-.61-.705 2.262 2.262 0 01-.174-1.803l5.7-20.881a7.344 7.344 0 013.464-4.419 7.613 7.613 0 015.636-.751l10.457 2.756a7.49 7.49 0 014.5 3.397 7.22 7.22 0 01.779 5.513l-7.156 26.12c-.134.488-.428.92-.837 1.227a2.37 2.37 0 01-1.426.475zm-86.079 0a2.377 2.377 0 01-1.426-.475 2.295 2.295 0 01-.837-1.227l-7.159-26.116a7.217 7.217 0 01.767-5.515 7.485 7.485 0 014.494-3.408L33.99.239a7.628 7.628 0 015.637.75A7.358 7.358 0 0143.099 5.4l5.716 20.888a2.253 2.253 0 01-.23 1.749 2.294 2.294 0 01-.604.676 2.366 2.366 0 01-1.739.456 2.38 2.38 0 01-.868-.29 2.332 2.332 0 01-.688-.596 2.274 2.274 0 01-.403-.807L38.58 6.592a2.666 2.666 0 00-.472-.949 2.727 2.727 0 00-.809-.698 2.783 2.783 0 00-2.096-.266l-10.436 2.74a2.78 2.78 0 00-.97.464c-.288.216-.53.485-.712.793a2.655 2.655 0 00-.271 2.055l7.153 26.1a2.25 2.25 0 01-.234 1.743c-.154.262-.359.49-.603.674a2.412 2.412 0 01-1.43.477z" fill="#FEE"/></svg>