<svg width="196" height="196" fill="none" xmlns="http://www.w3.org/2000/svg"><path d="M98 94.938a18.378 18.378 0 0016.976-11.344 18.373 18.373 0 00-24.008-24.008 18.376 18.376 0 00-11.343 16.977A18.396 18.396 0 0098 94.936zm0-30.626a12.252 12.252 0 0112.015 14.64 12.255 12.255 0 01-9.625 9.625 12.25 12.25 0 01-14.64-12.014A12.263 12.263 0 0198 64.313z" fill="#FEE"/><path d="M98 79.625h3.062a3.062 3.062 0 100-6.125v-3.063a3.063 3.063 0 10-6.124 0v6.126A3.063 3.063 0 0098 79.624zm24.5 36.75v-12.25a3.067 3.067 0 00-3.062-3.063H76.562a3.064 3.064 0 00-3.062 3.063v12.25a3.065 3.065 0 003.063 3.063h42.875a3.063 3.063 0 003.062-3.063zm-6.125-3.063h-36.75v-6.124h36.75v6.124zm-88.812-12.25h24.5a3.063 3.063 0 100-6.124V73.5A3.063 3.063 0 0049 70.437H30.625a3.063 3.063 0 00-3.063 3.063v21.438a3.063 3.063 0 000 6.124zm6.125-24.5h12.25v18.376h-12.25V76.561zm18.375 55.126V110.25A3.063 3.063 0 0049 107.188H30.625a3.063 3.063 0 00-3.063 3.062v21.438a3.063 3.063 0 100 6.124h24.5a3.063 3.063 0 100-6.124zm-18.376-18.376h12.25v18.376h-12.25v-18.376zm18.376 55.126V147A3.063 3.063 0 0049 143.938H30.625A3.063 3.063 0 0027.562 147v21.438a3.063 3.063 0 100 6.124h24.5a3.063 3.063 0 100-6.124zm-18.376-18.376h12.25v18.376h-12.25v-18.376zm110.251-49h24.5a3.062 3.062 0 100-6.124V73.5a3.064 3.064 0 00-3.063-3.063H147a3.063 3.063 0 00-3.062 3.063v21.438a3.062 3.062 0 100 6.124zm6.124-24.5h12.25v18.376h-12.25V76.561zm-6.124 61.25h24.5a3.062 3.062 0 100-6.124V110.25c0-.812-.323-1.591-.897-2.166a3.066 3.066 0 00-2.166-.896H147c-.812 0-1.591.322-2.166.896a3.066 3.066 0 00-.896 2.166v21.438a3.062 3.062 0 100 6.124zm6.124-24.5h12.25v18.376h-12.25v-18.376zm-6.124 61.25h24.5a3.062 3.062 0 100-6.124V147c0-.812-.323-1.591-.897-2.166a3.066 3.066 0 00-2.166-.896H147c-.812 0-1.591.322-2.166.896a3.066 3.066 0 00-.896 2.166v21.438a3.062 3.062 0 100 6.124zm6.124-24.5h12.25v18.376h-12.25v-18.376z" fill="#FEE"/><path d="M186.812 61.25a3.062 3.062 0 100-6.125h-54.129l-31.621-22.997v-7.076l14.81 2.468a3.06 3.06 0 003.282-1.733c.187-.403.283-.843.284-1.287V12.25a3.066 3.066 0 00-2.56-3.02L98.503 6.165v.003a3.045 3.045 0 00-3.566 3.018v22.94l-31.62 22.998H9.187a3.063 3.063 0 000 6.125h3.063v122.5H9.187a3.06 3.06 0 00-3.062 3.062 3.065 3.065 0 003.063 3.063h177.624a3.063 3.063 0 100-6.125h-3.062V61.25h3.062zm-91.875 122.5h-12.25v-33.688a15.337 15.337 0 0112.25-15.004v48.692zm6.125-48.692a15.333 15.333 0 0112.25 15.004v33.688h-12.25v-48.692zM98 128.625a21.46 21.46 0 00-21.438 21.437v33.688h-9.187V59.747L98 37.474l30.625 22.273V183.75h-9.187v-33.688A21.465 21.465 0 0098 128.625zm15.312-107.74l-12.25-2.042v-6.04l12.25 2.041v6.04zM18.375 61.25H61.25v122.5H18.375V61.25zm159.25 122.5H134.75V61.25h42.875v122.5z" fill="#FEE"/></svg>