<svg width="34" height="34" fill="none" xmlns="http://www.w3.org/2000/svg"><g clip-path="url(#clip0_1:638)" fill="#fff"><path d="M33.968 9.996c-.08-1.806-.372-3.048-.79-4.125a8.297 8.297 0 00-1.967-3.015 8.367 8.367 0 00-3.009-1.96c-1.082-.418-2.318-.71-4.124-.79C22.258.02 21.68 0 17.064 0s-5.194.02-7.007.1C8.25.18 7.008.472 5.932.89a8.296 8.296 0 00-3.015 1.966 8.37 8.37 0 00-1.96 3.009C.54 6.948.247 8.183.167 9.989.08 11.81.06 12.387.06 17.003s.02 5.194.1 7.008c.079 1.806.371 3.048.79 4.124a8.384 8.384 0 001.966 3.016 8.367 8.367 0 003.008 1.959c1.083.419 2.318.71 4.125.79 1.813.08 2.391.1 7.007.1 4.617 0 5.194-.02 7.008-.1 1.806-.08 3.048-.371 4.124-.79a8.696 8.696 0 004.975-4.975c.418-1.082.71-2.318.79-4.124.08-1.814.1-2.392.1-7.008s-.007-5.194-.087-7.007zm-3.062 13.882c-.073 1.66-.352 2.557-.585 3.155a5.64 5.64 0 01-3.228 3.228c-.598.232-1.5.511-3.155.584-1.793.08-2.33.1-6.867.1s-5.082-.02-6.868-.1c-1.66-.073-2.557-.352-3.155-.584a5.231 5.231 0 01-1.953-1.269 5.286 5.286 0 01-1.269-1.953c-.232-.597-.51-1.5-.584-3.155-.08-1.793-.1-2.331-.1-6.867 0-4.537.02-5.082.1-6.868.073-1.66.352-2.557.584-3.155a5.168 5.168 0 011.276-1.953 5.278 5.278 0 011.953-1.268c.597-.233 1.5-.512 3.154-.585 1.794-.08 2.332-.1 6.868-.1 4.543 0 5.081.02 6.868.1 1.66.073 2.557.352 3.155.585a5.228 5.228 0 011.952 1.268 5.284 5.284 0 011.27 1.953c.232.598.51 1.5.584 3.155.08 1.793.1 2.331.1 6.868 0 4.536-.02 5.067-.1 6.86z"/><path d="M17.062 8.269a8.736 8.736 0 00-8.734 8.734 8.736 8.736 0 008.734 8.734 8.736 8.736 0 008.734-8.734 8.736 8.736 0 00-8.734-8.734zm0 14.4a5.667 5.667 0 010-11.331 5.666 5.666 0 010 11.33zm11.12-14.745a2.04 2.04 0 11-4.079 0 2.04 2.04 0 014.079 0z"/></g><defs><clipPath id="clip0_1:638"><path fill="#fff" d="M0 0h34v34H0z"/></clipPath></defs></svg>