<svg width="94" height="96" fill="none" xmlns="http://www.w3.org/2000/svg"><circle cx="37.398" cy="37.398" r="37.398" fill="#F9D407"/><path d="M75.18 14.65L14.65 76.339l3.085 3.47 61.301-62.073-3.855-3.084zm3.856 3.856l-60.53 61.687 3.084 3.47 61.301-62.072-3.855-3.085zm3.085 4.627L21.591 84.82l3.084 3.47 61.301-62.073-3.855-3.084zm3.854 3.854l-60.53 61.687 3.084 3.47L89.83 30.072l-3.855-3.085zm3.857 3.856L29.302 92.53 32.386 96l61.301-62.073-3.855-3.084z" fill="#fff"/><g clip-path="url(#clip0_1310_3)" fill="#fff"><path d="M31.404 25.46c-3.12 0-5.658 2.691-5.658 6 0 3.307 2.538 5.999 5.658 5.999 3.12 0 5.659-2.692 5.659-6s-2.538-5.999-5.659-5.999zm12.865.858h-.039c-1.31.011-2.532.564-3.444 1.557a5.268 5.268 0 00-1.37 3.624 5.269 5.269 0 001.43 3.601c.918.968 2.135 1.5 3.43 1.5h.039c1.31-.01 2.532-.564 3.444-1.557a5.268 5.268 0 001.37-3.624c-.023-2.821-2.2-5.1-4.86-5.1zm.239 11.264h-.47a8.461 8.461 0 00-5.692 2.196c.377.289.736.604 1.076.945a10.897 10.897 0 013.19 7.16H53v-1.81c0-4.681-3.81-8.491-8.493-8.491zM40.79 47.883a9.109 9.109 0 00-3.658-6.745 9.08 9.08 0 00-5.444-1.802h-.566A9.122 9.122 0 0022 48.458v1.083h18.809v-1.083c0-.193-.006-.385-.018-.575z"/></g><defs><clipPath id="clip0_1310_3"><path fill="#fff" transform="translate(22 22)" d="M0 0h31v31H0z"/></clipPath></defs></svg>