<svg width="94" height="96" fill="none" xmlns="http://www.w3.org/2000/svg"><circle cx="37.398" cy="37.398" r="37.398" fill="#F9D407"/><path d="M75.18 14.65L14.65 76.339l3.085 3.47 61.301-62.073-3.855-3.084zm3.856 3.856l-60.53 61.687 3.084 3.47 61.301-62.072-3.855-3.085zm3.085 4.627L21.591 84.82l3.084 3.47 61.301-62.073-3.855-3.084zm3.854 3.854l-60.53 61.687 3.084 3.47L89.83 30.072l-3.855-3.085zm3.857 3.856L29.302 92.53 32.386 96l61.301-62.073-3.855-3.084z" fill="#fff"/><g clip-path="url(#clip0_1310_5)" fill="#fff"><path d="M47.337 26.859l-1.604 1.574s-.536-.12-.91-.302l-2.512-1.223a2.471 2.471 0 00-1.065-.22c-.552 0-1.12.149-1.518.43l-3.887 2.726a1.469 1.469 0 00-.332 2.077l.23.311c.317.426.834.659 1.35.659.292 0 .582-.073.837-.227l1.844-1.177c.327-.197.74-.293 1.16-.293.49 0 .987.133 1.35.394l2.678 2.453a29.4 29.4 0 012.324 1.903l2.43 2.26L54 33.236l-6.663-6.377z"/><path d="M48.964 40.026l-4.068-3.781a75.26 75.26 0 00-1.142-.89l-2.55-2.336a.82.82 0 00-.275-.044.664.664 0 00-.232.035l-1.85 1.179a3.397 3.397 0 01-1.756.483c-1.1 0-2.14-.515-2.782-1.38l-.23-.31a3.228 3.228 0 01-.6-2.452 3.233 3.233 0 011.34-2.145l.42-.293c-.605-.074-1.274-.01-1.765.2 0 0-.82.36-1.084.472-.61.26-1.466.256-1.466.256l-2.009-1.872L22 34.018l2.6 2.614.591-.618a3.302 3.302 0 012.38-1.018c.849 0 1.655.322 2.268.907l.28.267c.36.344.626.748.796 1.185a3.271 3.271 0 011.444.803l.278.266c.635.604.996 1.42 1.018 2.3.192.118.375.258.542.418l.281.268c.395.376.675.827.84 1.31.498.146.958.408 1.34.773l.285.27a3.295 3.295 0 01.524 4.114l.214.2A1.51 1.51 0 0039.808 48l.263-.285a1.502 1.502 0 00-.048-2.086l1.95 1.81a1.51 1.51 0 002.129-.08l.263-.283a1.509 1.509 0 00-.069-2.117l.502.467a1.509 1.509 0 002.126-.079l.264-.284a1.511 1.511 0 00-.079-2.128l-.423-.392c.608.53 1.54.49 2.092-.105l.265-.285a1.51 1.51 0 00-.079-2.127z"/><path d="M35.713 45.053l-.282-.268a1.5 1.5 0 00-1.038-.414 1.5 1.5 0 00-1.089.465l-.005-.009a1.51 1.51 0 00-.051-2.127l-.281-.268a1.49 1.49 0 00-1.031-.411c-.376 0-.75.139-1.041.413l.564-.59a1.509 1.509 0 00-.05-2.128l-.281-.268a1.506 1.506 0 00-2.1.025c.47-.6.424-1.475-.14-2.012l-.28-.268a1.503 1.503 0 00-1.038-.414c-.398 0-.795.156-1.09.465l-2.826 2.963a1.507 1.507 0 00.052 2.127l.28.267c.288.276.659.41 1.03.41.34 0 .682-.115.959-.341l-.745.78a1.51 1.51 0 00.05 2.127l.283.268a1.5 1.5 0 001.038.415 1.5 1.5 0 001.09-.465l.58-.61a1.505 1.505 0 00.098 2.067l.282.268c.29.276.664.414 1.038.414.398 0 .795-.156 1.09-.465l.934-.967c-.572.6-.55 1.556.05 2.128l.282.268a1.5 1.5 0 001.037.414 1.5 1.5 0 001.09-.465l1.592-1.669a1.507 1.507 0 00-.051-2.125z"/></g><defs><clipPath id="clip0_1310_5"><path fill="#fff" transform="translate(22 22)" d="M0 0h32v32H0z"/></clipPath></defs></svg>