<svg width="94" height="96" fill="none" xmlns="http://www.w3.org/2000/svg"><circle cx="37.398" cy="37.398" r="37.398" fill="#F9D407"/><path d="M75.18 14.65L14.65 76.339l3.085 3.47 61.301-62.073-3.855-3.084zm3.856 3.856l-60.53 61.687 3.084 3.47 61.301-62.072-3.855-3.085zm3.085 4.627L21.591 84.82l3.084 3.47 61.301-62.073-3.855-3.084zm3.854 3.854l-60.53 61.687 3.084 3.47L89.83 30.072l-3.855-3.085zm3.857 3.856L29.302 92.53 32.386 96l61.301-62.073-3.855-3.084z" fill="#fff"/><g clip-path="url(#clip0_1310_2)" fill="#fff"><path d="M46.436 34.994h6.393l-1.12-5.376a.85.85 0 00-.832-.676h-9.84l5.399 6.052zm-10.488-6.052h-9.825a.85.85 0 00-.832.676l-1.12 5.377h6.332l5.445-6.053zM38.5 33.74a.85.85 0 000 1.7.85.85 0 000-1.7zm-.882 11.558h1.7v4.7h-1.7v-4.7z"/><path d="M46.055 36.694a.85.85 0 01-.634-.284l-6.071-6.807v-4.355h3.862c.44 0 .712-.48.486-.857l-.756-1.267.757-1.266a.566.566 0 00-.486-.857H38.51L38.5 21a.85.85 0 00-.85.85v7.74l-6.138 6.822a.85.85 0 01-.631.282H24v12.455c0 .47.38.85.85.85h11.07v-5.55c0-.47.38-.85.849-.85h3.398c.47 0 .85.38.85.85v5.55H52.15c.47 0 .85-.38.85-.85V36.694h-6.945zm-16.877 8.888a.85.85 0 11-1.699 0v-1.133a.85.85 0 011.7 0v1.133zm0-4.531a.85.85 0 11-1.699 0v-1.133a.85.85 0 011.7 0v1.133zm3.399 4.53a.85.85 0 11-1.7 0V44.45a.85.85 0 011.7 0v1.133zm0-4.53a.85.85 0 01-1.7 0v-1.133a.85.85 0 011.7 0v1.133zm5.03 0a.85.85 0 11-1.698 0v-1.133a.85.85 0 011.699 0v1.133zm-1.656-6.46a2.552 2.552 0 012.549-2.55 2.552 2.552 0 012.549 2.55 2.552 2.552 0 01-2.549 2.548 2.552 2.552 0 01-2.549-2.549zm5.14 6.46a.85.85 0 11-1.699 0v-1.133a.85.85 0 011.7 0v1.133zm4.819 4.53a.85.85 0 01-1.7 0V44.45a.85.85 0 011.7 0v1.133zm0-4.53a.85.85 0 01-1.7 0v-1.133a.85.85 0 011.7 0v1.133zm3.398 4.53a.85.85 0 01-1.699 0V44.45a.85.85 0 011.7 0v1.133zm0-4.53a.85.85 0 01-1.699 0v-1.133a.85.85 0 011.7 0v1.133z"/></g><defs><clipPath id="clip0_1310_2"><path fill="#fff" transform="translate(24 21)" d="M0 0h29v29H0z"/></clipPath></defs></svg>