<svg width="40" height="40" fill="none" xmlns="http://www.w3.org/2000/svg"><g clip-path="url(#clip0_137_9179)" fill="#1068FF"><path d="M6.667 11.25c0-4.365 3.552-7.917 7.917-7.917h15.221C29.257 1.415 27.51 0 25.417 0H6.25a4.587 4.587 0 00-4.583 4.583v25.834A4.587 4.587 0 006.25 35h.417V11.25z"/><path d="M33.75 6.667H14.583A4.587 4.587 0 0010 11.25v24.167A4.587 4.587 0 0014.583 40H33.75a4.587 4.587 0 004.583-4.583V11.25a4.587 4.587 0 00-4.583-4.583zM30.417 35h-12.5a1.25 1.25 0 010-2.5h12.5a1.25 1.25 0 010 2.5zm0-6.666h-12.5a1.25 1.25 0 010-2.5h12.5a1.25 1.25 0 010 2.5zm0-5.834h-12.5a1.25 1.25 0 010-2.5h12.5a1.25 1.25 0 010 2.5zm0-6.666h-12.5a1.25 1.25 0 010-2.5h12.5a1.25 1.25 0 010 2.5z"/></g><defs><clipPath id="clip0_137_9179"><path fill="#fff" d="M0 0h40v40H0z"/></clipPath></defs></svg>