<svg width="94" height="96" fill="none" xmlns="http://www.w3.org/2000/svg"><circle cx="37.398" cy="37.398" r="37.398" fill="#F9D407"/><path d="M75.18 14.65L14.65 76.339l3.085 3.47 61.301-62.073-3.855-3.084zm3.856 3.856l-60.53 61.687 3.084 3.47 61.301-62.072-3.855-3.085zm3.085 4.627L21.591 84.82l3.084 3.47 61.301-62.073-3.855-3.084zm3.854 3.854l-60.53 61.687 3.084 3.47L89.83 30.072l-3.855-3.085zm3.857 3.856L29.302 92.53 32.386 96l61.301-62.073-3.855-3.084zm-37.549 2.372a1.526 1.526 0 00-2.04-.104c-.086.07-.019.009-1.336 1.325l3.419 3.419 1.228-1.213a1.525 1.525 0 000-2.155l-1.271-1.272zm-10.386 8.297l-2.011 4.309a.762.762 0 001.012 1.012l4.31-2.01c.17-.08-.346.403 6.033-5.897l-3.411-3.412c-6.326 6.325-5.852 5.824-5.933 5.998z" fill="#fff"/><path d="M46.49 45.758a2.28 2.28 0 01-.638.444l-4.31 2.011a2.282 2.282 0 01-2.581-.455 2.292 2.292 0 01-.456-2.582l2.011-4.309c.113-.242.266-.46.455-.65l6.478-6.477v-6.455A2.288 2.288 0 0045.164 25H30.285A2.288 2.288 0 0028 27.285v21.43A2.288 2.288 0 0030.285 51h14.88a2.288 2.288 0 002.284-2.285V44.81l-.958.947zM32.064 29.926h11.374a.762.762 0 110 1.523H32.063a.762.762 0 110-1.523zm0 4.062H41a.762.762 0 110 1.524h-8.937a.762.762 0 110-1.524zm-.762 4.825c0-.421.34-.762.762-.762h6.5a.762.762 0 010 1.523h-6.5a.762.762 0 01-.762-.761z" fill="#fff"/></svg>