<svg width="431" height="431" fill="none" xmlns="http://www.w3.org/2000/svg"><g clip-path="url(#clip0_93_830)" fill="#fff"><path d="M127.154 129.666L240.806 88.3a5.258 5.258 0 10-3.6-9.883l-113.634 41.386a5.258 5.258 0 00-3.145 6.74 5.259 5.259 0 006.74 3.146l-.013-.023zm25.159 7.631a5.258 5.258 0 00-3.016 6.692 5.258 5.258 0 006.613 3.187l74.119-26.976c.291-.102.572-.232.839-.387a5.259 5.259 0 00-4.431-9.494l-74.124 26.978zm19.335 99.26l103.773-37.769a10.517 10.517 0 006.277-13.473l-17.984-49.418c-1.988-5.455-8.02-8.267-13.476-6.282l-103.753 37.782c-5.455 1.988-8.267 8.019-6.283 13.475l17.98 49.41c1.991 5.446 8.015 8.254 13.466 6.275zm-21.568-59.274l103.77-37.774 17.991 49.409-103.775 37.776-17.986-49.411z"/><path d="M166.774 386.025c14.975 17.528 41.268 19.737 58.958 4.954l128.912-108.187a15.685 15.685 0 005.538-13.198 41.809 41.809 0 009.211-43.097c-.052-.091-.015-.216-.054-.315L311.79 68.052a42.064 42.064 0 00-55.104-24.708L99.744 100.468a15.459 15.459 0 00-8.848 8.108 15.497 15.497 0 00-.576 12.106l15.187 41.732-41.013 34.395c-16.646 13.51-20.692 37.27-9.454 55.528a40.79 40.79 0 003.318 4.538l108.113 128.9c.091.105.212.157.303.25zm52.235-3.126a31.64 31.64 0 01-25.066 6.992 31.283 31.283 0 01-21.863-14.258 31.865 31.865 0 013.548-37.952 15.616 15.616 0 0010.458-.038l8.871-3.228-9.72 8.174a21.033 21.033 0 00.324 32.553 21.21 21.21 0 0023.965 1.544 22.674 22.674 0 003.226-2.257l97.811-82.065 28.852-10.519-120.406 101.054zm62.676-80.049l-75.665 63.504a11.07 11.07 0 01-13.806.624 10.52 10.52 0 01-.208-16.335l31.777-26.72 57.902-21.073zm77.52-50.828a31.553 31.553 0 01-18.61 18.195l-158.12 57.555a5.26 5.26 0 11-3.604-9.881l157.548-57.347c9.645-3.338 15.588-13.023 14.198-23.134a21.034 21.034 0 00-28.005-16.619l-158.134 57.551a5.257 5.257 0 01-3.597-9.879l156.912-57.113c15.093-5.851 32.187.375 39.981 14.563a31.277 31.277 0 011.407 26.11l.024-.001zm-32.965-21.34a10.518 10.518 0 0113.976 8.38 11.042 11.042 0 01-7.405 11.604L180.215 306.21l-7.169-19.778 153.194-55.75zM100.193 117.095a5.152 5.152 0 01.236-4.071 4.978 4.978 0 012.909-2.67l148.253-53.959 9.373 25.774a5.262 5.262 0 006.741 3.145 5.258 5.258 0 003.141-6.738l-9.353-25.663c14.818-5.14 31.181 1.173 38.708 14.933a33.89 33.89 0 011.683 3.82l48.163 132.271a43.97 43.97 0 00-34.627-2.838l-33.686-92.505a5.257 5.257 0 10-9.876 3.601l33.663 92.445-148.231 53.953a15.84 15.84 0 00-4.611 2.699l-52.486-144.197zM63.919 246.724c-8.433-13.809-5.303-31.732 7.31-41.866l38.073-31.958 38.572 105.921a15.775 15.775 0 0014.943 10.316l7.854 21.575a15.575 15.575 0 00-4.817 17.518c.374 1.017.85 1.993 1.421 2.914a43.638 43.638 0 00-10.401 26.807l-90.43-107.79a32.593 32.593 0 01-2.513-3.437h-.012z"/></g><defs><clipPath id="clip0_93_830"><path fill="#fff" transform="rotate(-30 294.37 78.876)" d="M0 0h315.504v315.504H0z"/></clipPath></defs></svg>