<svg width="213" height="255" fill="none" xmlns="http://www.w3.org/2000/svg"><path d="M233.834 3.553l-19.386 8.868-6.625-6.427c-3.514-3.41-8.518-5.932-13.911-7.012-5.393-1.08-10.734-.63-14.847 1.25-4.113 1.882-6.661 5.041-7.085 8.783-.423 3.74 1.313 7.758 4.827 11.168l6.625 6.427-31.016 14.19-6.625-6.429c-3.514-3.409-8.518-5.931-13.912-7.012-5.393-1.08-10.733-.63-14.846 1.252-4.113 1.881-6.662 5.04-7.085 8.781-.424 3.742 1.312 7.759 4.827 11.168l6.625 6.428-31.017 14.189-6.625-6.428c-3.514-3.41-8.518-5.932-13.911-7.012-5.393-1.08-10.734-.63-14.847 1.251-4.113 1.882-6.661 5.04-7.085 8.782-.423 3.741 1.313 7.759 4.827 11.168l6.625 6.428-19.385 8.868c-5.141 2.352-8.327 6.3-8.856 10.977-.53 4.677 1.64 9.698 6.034 13.96l132.5 128.553c4.392 4.262 10.647 7.415 17.389 8.765 6.741 1.351 13.417.788 18.558-1.564l108.557-49.661c1.029-.47 1.666-1.26 1.772-2.195.105-.936-.329-1.94-1.207-2.792-.879-.853-2.13-1.483-3.478-1.754-1.348-.27-2.684-.157-3.712.313l-108.557 49.661c-3.089 1.403-7.092 1.735-11.133.926-4.042-.81-7.793-2.696-10.435-5.246L74.726 142.548 291.84 43.226l56.313 54.635c.879.852 2.13 1.483 3.478 1.753 1.348.27 2.683.158 3.712-.313 1.028-.47 1.665-1.26 1.771-2.195.106-.935-.328-1.94-1.207-2.792l-86.126-83.56c-4.392-4.261-10.647-7.414-17.389-8.765-6.741-1.35-13.417-.788-18.558 1.564zm-49.273 13.082c-1.757-1.704-2.625-3.713-2.413-5.584.211-1.87 1.486-3.45 3.542-4.39 2.057-.941 4.727-1.166 7.424-.626 2.696.54 5.198 1.801 6.955 3.506l19.876 19.283c1.757 1.705 2.625 3.713 2.413 5.584-.212 1.87-1.486 3.45-3.542 4.39-2.057.941-4.727 1.167-7.424.626-2.696-.54-5.199-1.801-6.956-3.506l-19.875-19.283zm-62.032 28.378c-1.757-1.705-2.626-3.713-2.414-5.584.212-1.87 1.486-3.45 3.543-4.39 2.056-.942 4.727-1.167 7.423-.626 2.697.54 5.199 1.8 6.956 3.506l19.875 19.283c1.757 1.704 2.625 3.713 2.414 5.584-.212 1.87-1.487 3.45-3.543 4.39-2.057.941-4.727 1.166-7.423.626-2.697-.54-5.199-1.801-6.956-3.506l-19.875-19.283zM60.496 73.391c-1.757-1.705-2.625-3.714-2.413-5.584.211-1.87 1.486-3.45 3.542-4.391 2.057-.94 4.727-1.166 7.424-.626 2.696.54 5.198 1.802 6.955 3.506L95.88 85.58c1.757 1.705 2.626 3.714 2.414 5.584-.212 1.871-1.486 3.45-3.543 4.391-2.056.941-4.726 1.166-7.423.626-2.697-.54-5.199-1.802-6.956-3.506L60.496 73.39zm224.719-36.593L68.101 136.12l-23.188-22.496c-2.623-2.559-3.918-5.569-3.6-8.373.316-2.803 2.22-5.172 5.294-6.59l19.385-8.868 6.625 6.428c3.514 3.41 8.518 5.932 13.912 7.012 5.393 1.081 10.734.63 14.847-1.251 4.113-1.882 6.661-5.04 7.085-8.782.423-3.741-1.313-7.758-4.827-11.168l-6.626-6.427 31.017-14.19 6.625 6.428c3.514 3.41 8.518 5.932 13.911 7.012 5.393 1.08 10.734.63 14.847-1.25 4.113-1.882 6.662-5.041 7.085-8.783.424-3.74-1.313-7.758-4.827-11.168l-6.625-6.427 31.016-14.19 6.625 6.428c3.514 3.41 8.519 5.932 13.912 7.013 5.393 1.08 10.734.63 14.847-1.252 4.113-1.881 6.661-5.04 7.085-8.781.423-3.742-1.313-7.759-4.827-11.168l-6.625-6.428 19.385-8.868c3.089-1.402 7.092-1.735 11.133-.925 4.042.81 7.793 2.695 10.435 5.246l23.188 22.496z" fill="#6DA3FF"/><path d="M198.717 118.932c-1.757-1.705-4.259-2.966-6.955-3.506-2.697-.541-5.367-.316-7.424.625l-15.508 7.095c-2.056.94-3.331 2.52-3.542 4.391-.212 1.87.656 3.879 2.413 5.584l9.938 9.641c1.757 1.705 4.259 2.966 6.956 3.506 2.696.54 5.366.315 7.423-.626l15.508-7.094c2.057-.941 3.331-2.52 3.543-4.391.211-1.871-.657-3.879-2.414-5.584l-9.938-9.641zm-13.324 20.283l-9.938-9.642 15.508-7.094 9.938 9.641-15.508 7.095zm-33.2.999c-1.757-1.704-4.259-2.966-6.956-3.506-2.696-.54-5.367-.315-7.423.626l-15.508 7.094c-2.057.941-3.331 2.521-3.543 4.391-.211 1.871.657 3.88 2.414 5.584l9.937 9.642c1.757 1.704 4.26 2.966 6.956 3.506 2.697.54 5.367.315 7.423-.626l15.509-7.094c2.056-.941 3.33-2.521 3.542-4.391.212-1.871-.656-3.879-2.413-5.584l-9.938-9.642zm-13.325 20.283l-9.937-9.641 15.508-7.094 9.938 9.641-15.509 7.094zm43.138 8.642c-1.757-1.705-4.26-2.966-6.956-3.506-2.697-.541-5.367-.316-7.424.625l-15.508 7.095c-2.056.94-3.33 2.52-3.542 4.391-.212 1.87.656 3.879 2.413 5.584l9.938 9.641c1.757 1.705 4.259 2.966 6.956 3.506 2.696.54 5.367.315 7.423-.626l15.508-7.094c2.057-.941 3.331-2.52 3.543-4.391.211-1.87-.657-3.879-2.414-5.584l-9.937-9.641zm-13.325 20.283l-9.938-9.642 15.509-7.094 9.937 9.641-15.508 7.095zm28.758 5.762l-15.508 7.094c-2.057.941-3.331 2.52-3.543 4.391-.211 1.871.657 3.879 2.414 5.584l9.937 9.641c1.757 1.705 4.26 2.966 6.956 3.506 2.697.541 5.367.316 7.424-.625l15.508-7.095c2.056-.94 3.33-2.52 3.542-4.391.212-1.87-.656-3.879-2.413-5.584l-9.938-9.641c-1.757-1.705-4.259-2.966-6.956-3.506-2.696-.54-5.367-.315-7.423.626zm1.054 23.163l-9.937-9.641 15.508-7.095 9.938 9.642-15.509 7.094z" fill="#6DA3FF"/></svg>