<svg width="151" height="151" fill="none" xmlns="http://www.w3.org/2000/svg"><g opacity=".2" fill="#F2F7FF"><path d="M67.242 40.11a3.539 3.539 0 100 7.077 3.539 3.539 0 000-7.078zm21.235 0a3.539 3.539 0 100 7.077 3.539 3.539 0 000-7.078zM77.86 54.266a2.362 2.362 0 01-2.36-2.36h-4.719a7.079 7.079 0 0014.156 0H80.22a2.363 2.363 0 01-2.36 2.36z"/><path d="M145.447 90.217a2.368 2.368 0 00-1.913-.528l-21.331 3.556a10.737 10.737 0 00-3.952 1.497l-1.626-4.105a15.709 15.709 0 00-2.707-4.52l.616-5.58c.157-1.421.24-2.85.248-4.28a38.489 38.489 0 00-3.139-15.203 34.077 34.077 0 01-2.691-15.07l.401-8.167c.025-.515.05-1.047.05-1.575A31.566 31.566 0 0077.859 4.719a31.54 31.54 0 00-31.494 33.1l.4 8.14c.023.607.045 1.181.045 1.749a33.634 33.634 0 01-2.735 13.345 38.553 38.553 0 00-2.89 19.5l.614 5.502c-.714.834-1.34 1.74-1.869 2.702l-3.22-8.052a6.95 6.95 0 10-12.668 5.69l.453.902h-4.638a11.855 11.855 0 01-5.275-1.246l-2.351-1.175a5.19 5.19 0 00-7.512 4.642v6.66a7.039 7.039 0 003.913 6.33l3.84 1.92a16.594 16.594 0 007.385 1.744h1.377v6.987l-1.695 22.033a10.299 10.299 0 0010.791 11.076 9.498 9.498 0 009.371-6.225l10.77-20.025a20.637 20.637 0 003.795 8.214v18.049h4.718v-18.875a2.36 2.36 0 00-.546-1.51 16.087 16.087 0 012.057-22.63l-3.021-3.626a20.788 20.788 0 00-2.931 2.993c-.09.092-.17.19-.244.295l-.006-.003-.041.073c-.011.017-.02.035-.03.052a20.657 20.657 0 00-3.067 5.734l-11.046 20.539v-28.664l3.353-8.349a11.31 11.31 0 012.483-3.808 11.941 11.941 0 018.462-3.564h7.896l13.485 24.723a2.357 2.357 0 003.276.899c.364-.216.664-.527.867-.899l5.007-9.179v31.643a2.361 2.361 0 001.896 2.314l9.9 1.98v9.862h4.719v-8.919l9.027 1.803c.059.01.333.038.411.038h4.463l.453.844a9.56 9.56 0 008.957 6.234 8.908 8.908 0 001.555-.128 9.564 9.564 0 007.385-6.161l6.275-1.046a4.696 4.696 0 003.932-4.413l.472-.094a2.362 2.362 0 001.898-2.314v-40.11a2.358 2.358 0 00-.834-1.798zm-78.036-5.768a5.668 5.668 0 003.37-5.174v-7.22a23.604 23.604 0 0014.156 0v7.22a5.667 5.667 0 003.37 5.173l-2.839 5.208H70.25l-2.84-5.207zm10.448-16.027a18.897 18.897 0 01-18.875-18.875V38.984a34.468 34.468 0 0010.212-11.69 61.115 61.115 0 0027.538 12.467v9.786A18.896 18.896 0 0177.86 68.422zm31.886 20.12l.044.046a10.933 10.933 0 012.447 3.778l1.014 2.559a10.734 10.734 0 00-4.234-1.681l-18.453-3.076 2.853-5.23h7.872a11.693 11.693 0 018.457 3.605zm1.379 12.911l-10.735-2.147-10.735-2.147V94.8l18.584 3.097a5.97 5.97 0 014.533 3.556h-1.647zm11.856-3.555l18.583-3.097v2.359l-11.097 2.22-10.371 2.073h-1.647a5.973 5.973 0 014.531-3.555h.001zm-108.398 2.31l-3.84-1.92a2.347 2.347 0 01-1.304-2.11v-6.66a.452.452 0 01.223-.4.451.451 0 01.46-.021l2.35 1.175a16.6 16.6 0 007.386 1.744h8.456a2.36 2.36 0 002.11-3.415l-2.16-4.32a2.23 2.23 0 011.454-3.16 2.238 2.238 0 012.611 1.334l3.063 7.656v11.342H19.857a11.852 11.852 0 01-5.275-1.245zm20.809 5.964v4.719h-9.438v-4.719h9.438zm-11.146 29.381l1.534-19.944h9.612v20.372a5.587 5.587 0 01-5.178 5.561c-.088 0-.177.004-.265.013-.047 0-.092.007-.139.007a5.586 5.586 0 01-5.27-3.745 5.58 5.58 0 01-.294-2.264zm30.058-32.622c.047-.064.098-.124.15-.183l-.143.187-.007-.004zm-8.158-20.483l-.27-2.425a33.828 33.828 0 012.536-17.111 38.325 38.325 0 003.118-15.205c0-.66-.025-1.306-.05-1.957l-.401-8.164a26.82 26.82 0 1153.608-1.346c0 .416-.022.87-.045 1.347l-.401 8.158a38.837 38.837 0 003.065 17.162 33.8 33.8 0 012.76 13.348 36.074 36.074 0 01-.222 3.775l-.268 2.431a16.5 16.5 0 00-8.287-2.242H90.6a.956.956 0 01-.944-.944v-9.309a23.602 23.602 0 0011.797-20.42V37.75a2.36 2.36 0 00-2.026-2.336 56.41 56.41 0 01-28.155-12.516l-1.34-1.117a2.36 2.36 0 00-3.62.758l-.915 1.828a29.725 29.725 0 01-10.08 11.42 2.36 2.36 0 00-1.051 1.963v11.797a23.601 23.601 0 0011.797 20.42v9.308a.956.956 0 01-.944.944H54.407a16.62 16.62 0 00-8.262 2.229zm31.714 21.156l-5.034-9.229h10.068l-5.034 9.229zm11.797-1.632l18.875 3.775v28.219l-18.875-3.775v-28.219zm23.594 4.2h4.719v28.312h-4.719v-28.312zm12.259 35.331a4.828 4.828 0 01-4.904-2.318c.045-.005.089-.012.133-.02.017-.003.035-.004.052-.008h.004l.016-.003 4.85-.97a4.66 4.66 0 002.376 2.069 4.916 4.916 0 01-2.527 1.25zm13.694-7.212l-9.437 1.574v-8.77a.706.706 0 01.595-.702l8.013-1.336a.711.711 0 01.829.702l.002 8.532h-.002zm-1.605-13.888l-8.013 1.335a5.413 5.413 0 00-4.538 5.357v6.4l-2.359.472v-28.22l18.875-3.775v19.311a5.42 5.42 0 00-3.965-.88z"/></g></svg>