<svg width="74" height="74" fill="none" xmlns="http://www.w3.org/2000/svg"><g clip-path="url(#clip0_93_1597)"><path d="M48.554 42.45h.268a2.466 2.466 0 100-4.933h-23.64a2.466 2.466 0 100 4.933h.267c.677 3.187 2.65 5.874 5.328 7.543l2.216 24.008h8.017l2.216-24.008c2.679-1.67 4.652-4.356 5.328-7.543zm-12.707-8.953c4.996 0 8.566-3.18 10.433-7.813 3.237-8.041-2.621-23.896-9.5-23.896 2.716 3.854 3.858 10.33-1.446 15.725-.963-1.8-.525-4.436-.617-6.71-4.24 1.93-7.915 6.84-7.915 13.649a9.045 9.045 0 009.045 9.045z" fill="#FFE031"/><path d="M33.293 7.109c1.18.176 2.7-.256 2.735-1.544.03-1.234-.817-1.764-1.407-3.086-.475-1.065-.516-1.532.052-2.449-1.233-.37-3.415 2.721-3.372 4.379.03 1.286.68 2.505 1.992 2.7zM7.842 25.341c1.026.212 2.1-.754 2.524-2.163.343-1.392 1.118-5.386.248-5.865-.985-.499-3.47 3.17-3.87 4.777-.482 1.573.077 3.04 1.098 3.251zm.179 7.013c.713 1.064 1.913 1.026 2.674.094.725-.983 2.402-3.941 1.899-4.963-.538-1.098-3.383.135-4.252 1.123-.889.932-1.038 2.688-.32 3.746zM30.08 59.766c-1.045-.595-3.405 1.108-4.017 1.958-.598.858-.102 2.231 1.201 2.975 1.299.74 2.773.487 3.207-.465.419-.96.65-3.868-.39-4.468zM9.066 39c-.59 1.105-.252 2.774.718 3.562.976.793 2.115.417 2.597-.658.373-1.168 1.864-5.728 1.185-6.494-.81-.918-3.975 2.38-4.5 3.59zm5.344 13.248c1.34.533 2.47-.272 2.648-1.609.007-1.414.296-6.776-.667-7.359-1.178-.744-3.736 3.791-3.924 5.312-.313 1.4.607 3.131 1.944 3.656zm7.611 8.739c1.672.104 2.578-1.195 2.274-2.705-.564-1.554-2.038-7.422-3.233-7.718-1.53-.424-2.864 5.345-2.505 7.09.145 1.642 1.802 3.24 3.464 3.333zM5.879 32.281c.768-1.07.913-2.768.342-3.967-.607-1.144-2.667-3.763-3.62-2.732-1.032 1.101-.17 5.461.604 6.605.71 1.198 1.91 1.154 2.674.094z" fill="#1068FF"/><path d="M24.99 68.698c.474-.058.93-.292 1.25-.694a1.886 1.886 0 00-.294-2.66s-.558-.452-1.537-1.232c-3.57-2.87-2.12-1.513-6.21-5.663-2.38-2.143-5.388-7.278-6.884-9.744-4.418-8.862-4.237-21.74-4.237-21.74S5.765 38.737 9.605 49.517c1.226 2.467 4.018 8.27 6.383 10.815 4.028 4.836 2.744 3.403 7.415 7.813-.877-.149-1.655-.008-2.033.536-.608.846-.9 3.977.794 4.946 1.701.968 4.293-.855 4.71-1.817.436-.948-.453-2.29-1.884-3.112zM6.416 43.413c.434-1.243.101-2.912-.785-3.9-.944-.857-4.57-4.548-5.217-3.358-.796 1.385 2.288 7.101 3.405 7.915 1.017.962 2.161.586 2.597-.657zm4.129 11.188c.051-1.541-.881-3.304-2.187-4.121-1.334-.64-6.538-3.71-6.89-2.168-.479 1.833 4.874 7.376 6.433 7.906 1.467.74 2.596-.07 2.644-1.617z" fill="#1068FF"/><path d="M15.07 60.816c-1.69-.226-8.44-1.958-8.3-.144.07 2.23 7.997 6.621 9.95 6.624 1.913.298 2.819-1 2.274-2.703-.549-1.715-2.206-3.312-3.923-3.777zm42.941-.485c2.36-2.542 5.155-8.347 6.383-10.816 3.837-10.779 2.527-22.551 2.527-22.551s.178 12.878-4.237 21.74c-1.496 2.466-4.548 7.643-6.887 9.743-4.21 4.274-2.079 2.267-7.742 6.897a1.887 1.887 0 00.954 3.353c-1.433.823-2.32 2.165-1.884 3.112.42.962 3.006 2.785 4.707 1.816 1.696-.968 1.407-4.1.797-4.945-.378-.545-1.158-.685-2.035-.536l4.025-3.807c.342-.342 3.081-3.633 3.392-4.006zm8.145-34.99c1.022-.212 1.58-1.679 1.099-3.252-.4-1.606-2.886-5.275-3.869-4.776-.872.479-.096 4.473.246 5.865.426 1.41 1.498 2.375 2.524 2.163z" fill="#1068FF"/><path d="M65.98 32.354c.715-1.058.565-2.814-.321-3.746-.87-.988-3.715-2.22-4.255-1.123-.5 1.022 1.176 3.98 1.901 4.963.764.932 1.961.97 2.674-.094zm-18.045 29.37c-.607-.85-2.973-2.553-4.016-1.958-1.043.6-.812 3.507-.392 4.468.433.952 1.907 1.205 3.208.465 1.3-.744 1.797-2.117 1.2-2.975zm16.279-19.161c.974-.788 1.31-2.457.718-3.563-.523-1.209-3.688-4.507-4.497-3.589-.682.766.812 5.326 1.183 6.494.481 1.075 1.623 1.45 2.596.658zm-2.68 6.029c-.19-1.52-2.749-6.056-3.924-5.312-.964.583-.675 5.945-.67 7.36.465 3.488 5.345 1.285 4.594-2.048zm-6.09 9.061c.359-1.744-.976-7.513-2.507-7.089-1.19.296-2.67 6.164-3.233 7.718-.81 4.024 5.396 3.276 5.74-.629zm15.35-25.466c.77-1.144 1.636-5.504.602-6.605-.954-1.03-3.01 1.588-3.618 2.732-.573 1.2-.429 2.898.342 3.967.764 1.06 1.963 1.104 2.674-.094zm-3.21 11.226c.436 1.243 1.578 1.619 2.595.657 1.12-.814 4.203-6.53 3.408-7.915-.648-1.19-4.273 2.5-5.217 3.358-.89.987-1.222 2.657-.786 3.9zM65.64 50.48c-3.156 1.974-2.767 7.365.46 5.738 1.559-.53 6.911-6.073 6.432-7.906-.352-1.542-5.555 1.527-6.892 2.168zm-6.711 10.337c-1.72.465-3.377 2.062-3.926 3.777-.545 1.703.364 3.002 2.276 2.703 1.954-.002 9.879-4.394 9.951-6.624.14-1.814-6.61-.082-8.301.144z" fill="#1068FF"/></g><defs><clipPath id="clip0_93_1597"><path fill="#fff" d="M0 0h74v74H0z"/></clipPath></defs></svg>