<svg width="66" height="66" fill="none" xmlns="http://www.w3.org/2000/svg"><g clip-path="url(#clip0_93_1652)"><path d="M3.883 0v9.076a18.95 18.95 0 0011.7 17.525 17.48 17.48 0 005.898 11.768 11.008 11.008 0 013.577 6.278h15.885a11.007 11.007 0 013.577-6.278 17.48 17.48 0 005.897-11.768A18.948 18.948 0 0062.118 9.076V0H3.883zm3.882 9.076V3.882h7.765V22.27A15.07 15.07 0 017.765 9.076zm30.107 13.003l1.15 6.705L33 25.618l-6.022 3.166 1.15-6.705-4.87-4.748 6.73-.978 3.012-6.1 3.01 6.1 6.732.978-4.871 4.748zM58.236 9.076a15.07 15.07 0 01-7.765 13.193V3.882h7.765v5.194z" fill="#FFE031"/><path d="M19.412 48.53H46.59v5.823H19.412v-5.824z" fill="#1068FF"/><path d="M50.471 58.235H15.53v3.883h-3.882V66h42.705v-3.882h-3.882v-3.883z" fill="#FFE031"/><path d="M33.432 19.902L33 19.025l-.432.877-.967.14.7.682-.166.963.865-.454.865.454-.165-.963.7-.682-.968-.14z" fill="#000"/></g><defs><clipPath id="clip0_93_1652"><path fill="#fff" d="M0 0h66v66H0z"/></clipPath></defs></svg>