<svg width="69" height="69" fill="none" xmlns="http://www.w3.org/2000/svg"><path d="M66.978 10.242h-2.021v42.451c0 3.344-2.855 6.065-6.2 6.065H40.22A6.077 6.077 0 0134.5 62.8a6.077 6.077 0 01-5.719-4.043H10.242c-3.344 0-6.199-2.72-6.199-6.065v-42.45H2.021A2.02 2.02 0 000 12.262V60.78a2.02 2.02 0 002.021 2.022h22.717a6.077 6.077 0 005.719 4.043h8.086a6.077 6.077 0 005.719-4.043h22.716A2.02 2.02 0 0069 60.779V12.264a2.02 2.02 0 00-2.022-2.022z" fill="#1068FF"/><path d="M32.478 53.234V6.865c-2.798-2.338-7.29-4.709-14.15-4.709a2.02 2.02 0 00-2.021 2.022v40.43a2.02 2.02 0 002.021 2.02c9.35 0 13.25 5.173 14.15 6.606zm26.28 1.481a2.02 2.02 0 002.021-2.022V8.221a2.02 2.02 0 00-2.021-2.022H42.586c-2.284 0-4.37.79-6.064 2.073v48.464c0-1.115.906-2.021 2.021-2.021h20.215z" fill="#FFE031"/><path d="M10.242 6.2a2.02 2.02 0 00-2.021 2.02v44.473a2.02 2.02 0 002.021 2.022H28.55c-1.132-1.373-4.101-4.043-10.222-4.043a6.071 6.071 0 01-6.064-6.065V6.2h-2.022z" fill="#FFE031"/></svg>