<svg width="86" height="86" fill="none" xmlns="http://www.w3.org/2000/svg"><path d="M20.156 44.434l-4.031-2.15v14.834c.02.015.043.028.063.043a5.356 5.356 0 013.968-4.564v-8.163z" fill="#FFE031"/><path d="M43 32.25c1.484 0 2.688-.602 2.688-1.344 0-.742-1.204-1.343-2.688-1.343-1.484 0-2.688.601-2.688 1.343S41.517 32.25 43 32.25z" fill="#1068FF"/><path d="M38.126 32.61c-.314-.517-.501-1.09-.501-1.704 0-2.26 2.361-4.031 5.375-4.031s5.375 1.771 5.375 4.031-2.361 4.032-5.375 4.032c-.949 0-1.82-.191-2.585-.503l-16.648 8.878L43 53.57l37.457-19.976L43 13.616 5.543 33.594l15.37 8.197 17.213-9.18zM21.5 63.156a5.3 5.3 0 01-1.956-.382 24.76 24.76 0 00-.732 5.975v2.983l.744.37a4.422 4.422 0 003.89 0l.741-.37v-2.983c0-2.02-.245-4.02-.73-5.975a5.324 5.324 0 01-1.957.382z" fill="#FFE031"/><path d="M43 56.438c-.218 0-.434-.053-.633-.157L22.844 45.868v6.73c2.312.6 4.031 2.686 4.031 5.184 0 1.228-.43 2.347-1.126 3.254.168.575.321 1.152.451 1.735a43.08 43.08 0 0015.995 3.073h1.609a43.52 43.52 0 0026.07-8.726V42.284L43.633 56.281a1.354 1.354 0 01-.633.157z" fill="#FFE031"/><path d="M21.5 60.469a2.688 2.688 0 100-5.375 2.688 2.688 0 000 5.375z" fill="#1068FF"/></svg>