<svg width="71" height="71" fill="none" xmlns="http://www.w3.org/2000/svg"><g clip-path="url(#clip0_93_1645)"><path d="M24.165 24.936l9.793-12.67L24.85.477A1.206 1.206 0 0023.883 0H7.393a1.221 1.221 0 00-.966 1.97l17.738 22.966zM46.15.477L27.605 24.483h17.688a3.548 3.548 0 011.604.38L64.573 1.97A1.221 1.221 0 0063.606 0H47.117a1.206 1.206 0 00-.967.477zm-.856 26.453H25.708c-.676 0-1.225.549-1.225 1.225v3.672c0 .676.549 1.224 1.224 1.224h19.587c.676 0 1.224-.548 1.224-1.224v-3.672c0-.676-.548-1.224-1.224-1.224z" fill="#1068FF"/><path d="M37.949 39.356V35.5h-4.897v3.856c-8.214 1.279-14.06 8.664-13.418 16.952.641 8.288 7.554 14.686 15.866 14.686 8.313 0 15.225-6.398 15.867-14.686.641-8.288-5.205-15.673-13.418-16.952z" fill="#FFE031"/></g><defs><clipPath id="clip0_93_1645"><path fill="#fff" d="M0 0h71v71H0z"/></clipPath></defs></svg>