<svg width="36" height="23" fill="none" xmlns="http://www.w3.org/2000/svg"><path d="M29.873 13.189c-.582-.805-.415-1.163 0-1.883.008-.008 4.813-7.28 5.308-9.745l.003-.002C35.43.66 35.184 0 33.994 0h-3.936c-1.002 0-1.464.567-1.712 1.2 0 0-2.004 5.255-4.839 8.66-.915.985-1.338 1.3-1.837 1.3-.246 0-.629-.316-.629-1.214V1.559c0-1.078-.28-1.559-1.11-1.559h-6.189a.981.981 0 00-1.002.97c0 1.023 1.418 1.258 1.565 4.133v6.238c0 1.367-.227 1.618-.73 1.618-1.338 0-4.585-5.275-6.51-11.313C6.677.475 6.297.002 5.288.002H1.35C.227.002 0 .568 0 1.202c0 1.121 1.338 6.692 6.222 14.052C9.477 20.278 14.062 23 18.232 23c2.506 0 2.812-.605 2.812-1.645 0-4.8-.226-5.253 1.03-5.253.581 0 1.583.315 3.923 2.738C28.672 21.714 29.111 23 30.61 23h3.936c1.122 0 1.69-.605 1.363-1.797-.748-2.509-5.806-7.67-6.035-8.014z" fill="#fff"/></svg>