<svg width="40" height="40" fill="none" xmlns="http://www.w3.org/2000/svg"><g clip-path="url(#clip0_1:887)" fill="#fff"><path d="M32.97 0v1.172a3.507 3.507 0 01-1.172 2.617V6.54a5.881 5.881 0 003.398-4.196h2.461v.078c0 5.624-2.644 10.643-6.754 13.879a11.859 11.859 0 01-3.59 4.747 19.952 19.952 0 006.83-4.484A19.869 19.869 0 0040 2.422V0h-7.032zM9.097 16.3c-4.11-3.235-6.753-8.254-6.753-13.878v-.078h2.461A5.88 5.88 0 008.203 6.54V3.79a3.507 3.507 0 01-1.172-2.618V0H0v2.422a19.87 19.87 0 005.858 14.142 19.946 19.946 0 006.83 4.484 11.86 11.86 0 01-3.59-4.747zm14.543 6.719a11.788 11.788 0 01-7.28 0l-.518 2.919h8.318l-.52-2.92zm8.157 7.606v-2.344H8.203v2.344h2.344v7.031H8.203V40h23.594v-2.344h-2.344v-7.031h2.344zm-7.031 4.688h-9.532v-2.344h9.532v2.343z"/><path d="M10.547 0v11.797a9.453 9.453 0 0018.906 0V0H10.547z"/></g><defs><clipPath id="clip0_1:887"><path fill="#fff" d="M0 0h40v40H0z"/></clipPath></defs></svg>