<svg width="40" height="40" fill="none" xmlns="http://www.w3.org/2000/svg"><g clip-path="url(#clip0_1:879)"><path d="M39.987 11.098l-.523-2.86a.826.826 0 00-.812-.678h-.005c-.4.002-.74.29-.809.685L33.13 35.369l-23.994.001a2.007 2.007 0 01-1.5-.669c-.45-.496-.7-1.235-.64-1.868.176-1.527 1.28-2.636 2.623-2.636h20.024c.402 0 .747-.29.813-.687l4.688-27.714a.825.825 0 00-.813-.963H14.322c-4.564 0-9.02 3.712-9.933 8.271L.114 30.037c-.385 2.45.212 4.754 1.68 6.488 1.443 1.703 3.557 2.64 5.955 2.64h.404l25.954.003c.924 0 1.711-.662 1.875-1.592L39.99 11.37a.817.817 0 00-.003-.273z" fill="#fff"/></g><defs><clipPath id="clip0_1:879"><path fill="#fff" d="M0 0h40v40H0z"/></clipPath></defs></svg>