<svg width="235" height="93" fill="none" xmlns="http://www.w3.org/2000/svg"><path d="M-2.639 16.328c-4.373 0-8.164-3.498-8.164-8.164 0-4.373 3.5-8.164 8.165-8.164 4.373 0 8.164 3.499 8.164 8.164 0 4.666-3.79 8.164-8.165 8.164zm0-13.12a5.227 5.227 0 00-5.248 5.248 5.227 5.227 0 005.248 5.248A5.227 5.227 0 002.61 8.456a5.227 5.227 0 00-5.248-5.249zm38.198 13.12c-4.374 0-8.164-3.498-8.164-8.164C27.395 3.791 30.893 0 35.559 0c4.373 0 8.164 3.499 8.164 8.164 0 4.666-3.79 8.164-8.164 8.164zm0-13.12a5.227 5.227 0 00-5.249 5.248 5.227 5.227 0 005.249 5.248 5.227 5.227 0 005.248-5.248 5.227 5.227 0 00-5.248-5.249zm38.197 13.12c-4.374 0-8.164-3.498-8.164-8.164C65.592 3.791 69.09 0 73.756 0c4.374 0 8.164 3.499 8.164 8.164 0 4.666-3.79 8.164-8.164 8.164zm0-13.12a5.227 5.227 0 00-5.248 5.248 5.227 5.227 0 005.248 5.248 5.227 5.227 0 005.248-5.248 5.227 5.227 0 00-5.248-5.249zm38.197 13.12c-4.373 0-8.164-3.498-8.164-8.164 0-4.373 3.499-8.164 8.164-8.164 4.374 0 8.165 3.499 8.165 8.164 0 4.666-3.499 8.164-8.165 8.164zm0-13.12a5.227 5.227 0 00-5.248 5.248 5.227 5.227 0 005.248 5.248 5.227 5.227 0 005.249-5.248 5.227 5.227 0 00-5.249-5.249zm38.198 13.12c-4.374 0-8.165-3.498-8.165-8.164 0-4.373 3.499-8.164 8.165-8.164 4.373 0 8.164 3.499 8.164 8.164 0 4.666-3.499 8.164-8.164 8.164zm0-13.12a5.227 5.227 0 00-5.249 5.248 5.227 5.227 0 005.249 5.248 5.227 5.227 0 005.248-5.248 5.227 5.227 0 00-5.248-5.249z" fill="#404040"/><path d="M188.348 16.328c-4.374 0-8.164-3.498-8.164-8.164 0-4.373 3.499-8.164 8.164-8.164 4.374 0 8.164 3.499 8.164 8.164 0 4.666-3.499 8.164-8.164 8.164zm0-13.12a5.227 5.227 0 00-5.249 5.248 5.227 5.227 0 005.249 5.248 5.226 5.226 0 005.248-5.248 5.226 5.226 0 00-5.248-5.249z" fill="#005DFF"/><path d="M226.836 16.328c-4.374 0-8.164-3.498-8.164-8.164 0-4.373 3.499-8.164 8.164-8.164C231.21 0 235 3.499 235 8.164c-.291 4.666-3.79 8.164-8.164 8.164zm0-13.12a5.226 5.226 0 00-5.248 5.248 5.226 5.226 0 005.248 5.248 5.227 5.227 0 005.249-5.248c-.292-2.916-2.625-5.249-5.249-5.249zM-2.639 54.526c-4.373 0-8.164-3.5-8.164-8.165 0-4.373 3.5-8.164 8.165-8.164 4.373 0 8.164 3.5 8.164 8.164 0 4.666-3.79 8.165-8.165 8.165zm0-13.121a5.227 5.227 0 00-5.248 5.248 5.227 5.227 0 005.248 5.249 5.227 5.227 0 005.249-5.249 5.227 5.227 0 00-5.248-5.248zm38.198 13.121c-4.374 0-8.164-3.5-8.164-8.165 0-4.373 3.498-8.164 8.164-8.164 4.373 0 8.164 3.5 8.164 8.164 0 4.666-3.79 8.165-8.164 8.165zm0-13.121a5.227 5.227 0 00-5.249 5.248 5.227 5.227 0 005.249 5.249 5.227 5.227 0 005.248-5.249 5.227 5.227 0 00-5.248-5.248zm38.197 13.121c-4.374 0-8.164-3.5-8.164-8.165 0-4.373 3.499-8.164 8.164-8.164 4.374 0 8.164 3.5 8.164 8.164 0 4.666-3.79 8.165-8.164 8.165zm0-13.121a5.227 5.227 0 00-5.248 5.248 5.227 5.227 0 005.248 5.249 5.227 5.227 0 005.248-5.249 5.227 5.227 0 00-5.248-5.248zm38.197 13.121c-4.373 0-8.164-3.5-8.164-8.165 0-4.373 3.499-8.164 8.164-8.164 4.374 0 8.165 3.5 8.165 8.164 0 4.666-3.499 8.165-8.165 8.165zm0-13.121a5.227 5.227 0 00-5.248 5.248 5.227 5.227 0 005.248 5.249 5.227 5.227 0 005.249-5.249 5.227 5.227 0 00-5.249-5.248zm38.198 13.121c-4.374 0-8.165-3.5-8.165-8.165 0-4.373 3.499-8.164 8.165-8.164 4.373 0 8.164 3.5 8.164 8.164 0 4.666-3.499 8.165-8.164 8.165zm0-13.121a5.227 5.227 0 00-5.249 5.248 5.227 5.227 0 005.249 5.249 5.227 5.227 0 005.248-5.249 5.227 5.227 0 00-5.248-5.248zm38.197 13.121c-4.374 0-8.164-3.5-8.164-8.165 0-4.373 3.499-8.164 8.164-8.164 4.374 0 8.164 3.5 8.164 8.164 0 4.666-3.499 8.165-8.164 8.165zm0-13.121a5.227 5.227 0 00-5.249 5.248 5.227 5.227 0 005.249 5.249 5.226 5.226 0 005.248-5.249 5.226 5.226 0 00-5.248-5.248zm38.488 13.121c-4.374 0-8.164-3.5-8.164-8.165 0-4.373 3.499-8.164 8.164-8.164 4.374 0 8.164 3.5 8.164 8.164-.291 4.666-3.79 8.165-8.164 8.165zm0-13.121a5.226 5.226 0 00-5.248 5.248 5.226 5.226 0 005.248 5.249 5.227 5.227 0 005.249-5.249c-.292-2.916-2.625-5.248-5.249-5.248zM-2.639 92.723c-4.373 0-8.164-3.499-8.164-8.164 0-4.374 3.5-8.165 8.165-8.165 4.373 0 8.164 3.5 8.164 8.165 0 4.665-3.79 8.164-8.165 8.164zm0-13.121a5.227 5.227 0 00-5.248 5.248 5.227 5.227 0 005.248 5.25 5.227 5.227 0 005.249-5.25 5.227 5.227 0 00-5.248-5.248zm38.198 13.121c-4.374 0-8.164-3.499-8.164-8.164 0-4.374 3.498-8.165 8.164-8.165 4.373 0 8.164 3.5 8.164 8.165 0 4.665-3.79 8.164-8.164 8.164zm0-13.121a5.227 5.227 0 00-5.249 5.248 5.227 5.227 0 005.25 5.25 5.227 5.227 0 005.248-5.249 5.227 5.227 0 00-5.248-5.248zm38.197 13.121c-4.374 0-8.164-3.499-8.164-8.164 0-4.374 3.499-8.165 8.164-8.165 4.374 0 8.164 3.5 8.164 8.165 0 4.665-3.79 8.164-8.164 8.164zm0-13.121a5.227 5.227 0 00-5.248 5.248 5.227 5.227 0 005.248 5.249 5.227 5.227 0 005.248-5.249 5.227 5.227 0 00-5.248-5.248zm38.197 13.121c-4.373 0-8.164-3.499-8.164-8.164 0-4.374 3.499-8.165 8.164-8.165 4.374 0 8.165 3.5 8.165 8.165 0 4.665-3.499 8.164-8.165 8.164zm0-13.121a5.227 5.227 0 00-5.248 5.248 5.227 5.227 0 005.248 5.249 5.227 5.227 0 005.249-5.249 5.227 5.227 0 00-5.249-5.248zm38.198 13.121c-4.374 0-8.165-3.499-8.165-8.164 0-4.374 3.499-8.165 8.165-8.165 4.373 0 8.164 3.5 8.164 8.165 0 4.665-3.499 8.164-8.164 8.164zm0-13.121a5.227 5.227 0 00-5.249 5.248 5.227 5.227 0 005.249 5.249 5.227 5.227 0 005.248-5.249 5.227 5.227 0 00-5.248-5.248zm38.197 13.121c-4.374 0-8.164-3.499-8.164-8.164 0-4.374 3.499-8.165 8.164-8.165 4.374 0 8.164 3.5 8.164 8.165 0 4.665-3.499 8.164-8.164 8.164zm0-13.121a5.227 5.227 0 00-5.249 5.248 5.227 5.227 0 005.249 5.249 5.226 5.226 0 005.248-5.249 5.226 5.226 0 00-5.248-5.248zm38.488 13.121c-4.374 0-8.164-3.499-8.164-8.164 0-4.374 3.499-8.165 8.164-8.165 4.374 0 8.164 3.5 8.164 8.165-.291 4.665-3.79 8.164-8.164 8.164zm0-13.121a5.226 5.226 0 00-5.248 5.248 5.226 5.226 0 005.248 5.249 5.227 5.227 0 005.249-5.249c-.292-2.915-2.625-5.248-5.249-5.248z" fill="#404040"/></svg>