<svg width="193" height="176" fill="none" xmlns="http://www.w3.org/2000/svg"><path d="M148.23 184.538H42.286a5.976 5.976 0 01-4.173-1.696 5.73 5.73 0 01-1.732-4.087V69.851c.012-9.874 4.023-19.34 11.153-26.322 7.13-6.982 16.795-10.91 26.878-10.922h41.691c10.084.011 19.751 3.938 26.882 10.92 7.131 6.982 11.142 16.449 11.155 26.324v108.904a5.735 5.735 0 01-1.734 4.089 5.978 5.978 0 01-4.176 1.694zM74.42 37.715c-8.7.01-17.042 3.4-23.195 9.423-6.153 6.025-9.616 14.192-9.628 22.713v108.904c0 .179.073.351.202.477a.694.694 0 00.487.198H148.23a.693.693 0 00.486-.198.663.663 0 00.202-.477V69.851c-.012-8.52-3.474-16.686-9.625-22.71-6.151-6.024-14.491-9.413-23.19-9.425H74.42z" fill="#FEE"/><path d="M168.623 181.082h-19.699v-57.124h9.728c4.047.005 7.928 1.581 10.79 4.383 2.862 2.803 4.471 6.603 4.475 10.566v36.981a5.102 5.102 0 01-.4 1.986 5.208 5.208 0 01-1.147 1.686 5.31 5.31 0 01-1.719 1.126 5.394 5.394 0 01-2.028.396zm-14.491-5.108h14.491l.076-37.054a9.75 9.75 0 00-2.947-6.955 10.17 10.17 0 00-7.103-2.886h-4.509l-.008 46.895zm-112.536 5.108H21.892a5.35 5.35 0 01-3.74-1.519A5.133 5.133 0 0116.6 175.9v-36.993c.004-3.963 1.613-7.763 4.475-10.566 2.862-2.802 6.742-4.378 10.79-4.383h9.733l-.002 57.124zm-9.734-52.015a10.164 10.164 0 00-7.102 2.885 9.748 9.748 0 00-2.947 6.955v36.981l14.567.063v-46.884h-4.518zm104.172 55.471H54.348v-45.11a6.91 6.91 0 012.087-4.929 7.211 7.211 0 015.033-2.046h67.445a7.213 7.213 0 015.033 2.046 6.91 6.91 0 012.088 4.929v45.11zm-76.47-5.108h71.253v-40.002c0-.494-.201-.968-.558-1.318a1.934 1.934 0 00-1.346-.549H61.468a1.933 1.933 0 00-1.346.549 1.85 1.85 0 00-.558 1.318v40.002z" fill="#FEE"/><path d="M119.266 151.256H71.118a2.636 2.636 0 01-1.844-.748 2.528 2.528 0 01-.764-1.806c0-.677.275-1.327.764-1.806a2.636 2.636 0 011.844-.748h48.148c.692 0 1.355.269 1.844.748.49.479.764 1.129.764 1.806s-.274 1.327-.764 1.806a2.635 2.635 0 01-1.844.748z" fill="#FEE"/><path d="M111.653 158.017a2.635 2.635 0 01-1.844-.748 2.529 2.529 0 01-.764-1.806v-6.761c0-.677.275-1.327.764-1.806a2.635 2.635 0 011.844-.748c.692 0 1.355.269 1.844.748.489.479.764 1.129.764 1.806v6.761c0 .677-.275 1.327-.764 1.806a2.635 2.635 0 01-1.844.748zm11.027-58.245h-15.453a2.637 2.637 0 01-1.844-.748 2.528 2.528 0 01-.764-1.806c0-.677.275-1.327.764-1.806a2.637 2.637 0 011.844-.748h15.453a19.97 19.97 0 008.557-1.9 19.556 19.556 0 006.857-5.361l11.392-13.966a2.647 2.647 0 013.629-.36 2.54 2.54 0 01.961 1.684c.084.662-.1 1.33-.513 1.861l-11.392 13.966a24.727 24.727 0 01-8.67 6.781 25.25 25.25 0 01-10.821 2.403zm-39.392 0H67.835a25.25 25.25 0 01-10.82-2.402 24.731 24.731 0 01-8.67-6.78L36.953 76.622a2.505 2.505 0 01-.245-2.828c.165-.294.388-.553.656-.762a2.661 2.661 0 012.888-.24c.3.162.564.38.777.642l11.395 13.968a19.564 19.564 0 006.857 5.361 19.974 19.974 0 008.557 1.9h15.453c.692 0 1.355.27 1.844.749a2.52 2.52 0 01.764 1.805c0 .678-.275 1.328-.764 1.806a2.636 2.636 0 01-1.844.749h-.002z" fill="#FEE"/><path d="M104.064 109.314H86.462a5.21 5.21 0 01-3.635-1.476 4.99 4.99 0 01-1.509-3.558V89.558A4.989 4.989 0 0182.828 86a5.204 5.204 0 013.633-1.476h17.603A5.204 5.204 0 01107.698 86a4.99 4.99 0 011.509 3.558v14.714a4.99 4.99 0 01-1.506 3.563 5.21 5.21 0 01-3.637 1.479zM86.548 89.647v14.64l17.516-.082-.073-14.64-17.443.082zM111.6 37.716H78.913a2.635 2.635 0 01-1.844-.748 2.528 2.528 0 01-.764-1.806v-10.86a5.166 5.166 0 011.562-3.687 5.389 5.389 0 013.766-1.528h27.25a5.389 5.389 0 013.764 1.529 5.166 5.166 0 011.561 3.686v10.86c0 .678-.274 1.327-.764 1.806a2.635 2.635 0 01-1.844.748zm-30.08-5.108h27.472v-8.306l-27.359-.107-.11.107-.002 8.306zm61.595 17.324c-.4 0-.796-.09-1.155-.263a2.592 2.592 0 01-.917-.736 2.504 2.504 0 01-.45-2.219l7.96-29.04a2.925 2.925 0 00-.314-2.279 3.015 3.015 0 00-.794-.877 3.08 3.08 0 00-1.077-.512l-11.607-3.047a3.118 3.118 0 00-2.328.306 3.03 3.03 0 00-.896.777 2.953 2.953 0 00-.523 1.055l-6.346 23.209a2.516 2.516 0 01-.422.94 2.588 2.588 0 01-.766.703 2.641 2.641 0 01-2.035.29 2.63 2.63 0 01-.938-.46 2.563 2.563 0 01-.678-.784 2.517 2.517 0 01-.195-2.005l6.338-23.218a8.166 8.166 0 013.852-4.914 8.467 8.467 0 016.268-.836l11.627 3.065a8.324 8.324 0 015.004 3.778 8.024 8.024 0 01.866 6.13l-7.957 29.044a2.55 2.55 0 01-.931 1.364 2.643 2.643 0 01-1.586.529zm-95.716-.001a2.644 2.644 0 01-1.586-.528 2.552 2.552 0 01-.93-1.364l-7.96-29.04a8.025 8.025 0 01.851-6.133 8.323 8.323 0 014.998-3.79l11.622-3.051a8.482 8.482 0 016.268.833 8.181 8.181 0 013.862 4.906L70.88 34.99a2.503 2.503 0 01-.255 1.945c-.171.291-.4.547-.672.752a2.661 2.661 0 01-2.9.183 2.59 2.59 0 01-.765-.661 2.533 2.533 0 01-.447-.898l-6.343-23.222a2.964 2.964 0 00-.525-1.055 3.034 3.034 0 00-.9-.776 3.095 3.095 0 00-2.33-.296l-11.604 3.047c-.39.1-.757.275-1.078.515-.321.24-.59.54-.793.883a2.952 2.952 0 00-.302 2.285l7.955 29.021a2.5 2.5 0 01-.26 1.939c-.171.29-.4.545-.671.75a2.693 2.693 0 01-1.59.53z" fill="#FEE"/></svg>