<svg width="149" height="178" fill="none" xmlns="http://www.w3.org/2000/svg"><path d="M128.482 122.17l-10.975-3.222-23.878-15.596v-3.574c6.913-5.214 11.661-13.185 12.543-22.321 3.467-.558 6.124-3.57 6.124-7.192v-9.827c0-.038-.004-.075-.006-.113V47.877a5.401 5.401 0 002.258-4.408V32.078l16.478-2.807c2.708-.461 4.656-2.612 4.847-5.353.191-2.74-1.439-5.14-4.057-5.973L76.265.276a5.812 5.812 0 00-3.542 0L17.17 17.946c-2.618.832-4.248 3.232-4.057 5.972.121 1.741.953 3.242 2.237 4.226V43.04h-.136a5.68 5.68 0 00-5.673 5.674v7.394L5.88 77.603c-.633 3.718 2.23 7.12 6.01 7.12h12.4c3.772 0 6.645-3.394 6.01-7.12l-3.66-21.496v-7.394a5.68 5.68 0 00-5.674-5.674h-.135V29.76l13.621 2.32v11.39c0 1.799.873 3.407 2.247 4.398l.005 12.571v9.825c0 3.623 2.657 6.635 6.124 7.193.882 9.131 5.624 17.098 12.53 22.313v3.59l-23.872 15.593-10.966 3.219C8.784 125.616.5 136.389.5 148.913v8.163a2.74 2.74 0 105.478 0v-8.163c0-9.871 6.614-18.705 16.085-21.485l10.218-2.999 40.82 24.256a2.769 2.769 0 002.8 0l40.823-24.257 10.216 2.999c9.47 2.78 16.084 11.614 16.084 21.484v26.457a6.161 6.161 0 01-6.154 6.154h-12.074v-11.807a2.74 2.74 0 10-5.479 0v11.807H29.67v-11.807a2.74 2.74 0 10-5.478 0v11.807H12.13a6.161 6.161 0 01-6.154-6.154v-5.487a2.739 2.739 0 10-5.479 0v5.486C.498 181.781 5.716 187 12.13 187h124.738c6.414 0 11.632-5.219 11.632-11.633V148.91c0-12.228-8.003-23.212-20.018-26.74zM24.29 79.245h-12.4a.618.618 0 01-.61-.723l3.313-19.443h6.994L24.9 78.522a.617.617 0 01-.61.723zm-3.13-30.532v4.888h-6.14v-4.887c0-.108.087-.196.195-.196h5.75c.108 0 .195.088.195.196zm43.543 87.581l1.09 1.676-27.966-16.617 17.75-11.594a57.533 57.533 0 009.126 26.535zm-.02-11.824c6.448.916 13.18.917 19.632 0a52.326 52.326 0 01-4.61 8.837l-5.206 8-5.205-8a52.326 52.326 0 01-4.61-8.837zm19.613 11.824a57.527 57.527 0 009.124-26.535l17.751 11.594-27.965 16.617 1.09-1.676zm16.023-87.397h6.493v8.801h-3.223a3.274 3.274 0 01-3.27-3.27v-5.531zm-81.488-25.73L74.384 5.495a.36.36 0 01.22 0l55.552 17.67c.115.037.272.086.252.372-.02.284-.182.312-.301.332l-18.367 3.128-6.896-.852a2.74 2.74 0 00-.672 5.436l4.898.606v11.23l-69.14-.002V32.188l28.344-3.507c4.129-.51 8.314-.51 12.44 0l10.728 1.327a2.74 2.74 0 00.673-5.437l-10.728-1.327a56.198 56.198 0 00-13.785 0l-30.35 3.755L18.88 23.87c-.119-.02-.281-.048-.301-.332-.02-.286.137-.336.252-.372zm23.35 34.531l-.005-8.801h6.503v5.532a3.274 3.274 0 01-3.27 3.27H42.18zm6.028 18.351c-.141-2.23-1.995-3.978-4.22-3.978a1.81 1.81 0 01-1.808-1.807v-7.087h3.228c4.824 0 8.749-3.925 8.749-8.748v-5.532H94.84v5.532c0 4.823 3.925 8.748 8.748 8.748h3.228v7.087a1.81 1.81 0 01-1.807 1.807c-2.226 0-4.08 1.748-4.221 3.978-.872 13.831-12.42 24.666-26.29 24.666S49.082 89.88 48.209 76.049zm26.29 30.144c4.872 0 9.503-1.114 13.652-3.094v1.736c0 4.683-.632 9.303-1.848 13.759-7.445 1.419-15.86 1.476-23.607 0a52.207 52.207 0 01-1.849-13.759c0-.058-.008-.115-.011-.172v-1.57a31.62 31.62 0 0013.663 3.1z" fill="#FEE"/></svg>