<svg width="184" height="177" fill="none" xmlns="http://www.w3.org/2000/svg"><path d="M180.812 55.25a3.062 3.062 0 100-6.125h-54.129l-31.62-22.997v-7.076l14.809 2.468a3.06 3.06 0 003.282-1.733c.187-.403.283-.843.284-1.287V6.25a3.066 3.066 0 00-2.56-3.02L92.503.165V.17a3.045 3.045 0 00-3.566 3.018v22.94l-31.62 22.998H3.187a3.063 3.063 0 000 6.125H6.25v122.5H3.187a3.06 3.06 0 00-3.062 3.062 3.065 3.065 0 003.063 3.063h177.624a3.063 3.063 0 100-6.125h-3.062V55.25h3.062zm-91.875 122.5h-12.25v-33.688a15.337 15.337 0 0112.25-15.004v48.692zm6.126-48.692a15.335 15.335 0 0112.249 15.004v33.688h-12.25v-48.692zM92 122.625a21.46 21.46 0 00-21.438 21.437v33.688h-9.187V53.747L92 31.474l30.625 22.273V177.75h-9.187v-33.688A21.465 21.465 0 0092 122.625zm15.312-107.74l-12.25-2.042v-6.04l12.25 2.041v6.04zM12.375 55.25H55.25v122.5H12.375V55.25zm159.25 122.5H128.75V55.25h42.875v122.5z" fill="#FEE"/></svg>