<svg width="1920" height="357" fill="none" xmlns="http://www.w3.org/2000/svg"><path fill="#1063F1" d="M0 0h1920v357H0z"/><g filter="url(#filter0_d_138_92)"><rect x="288.5" y="96.5" width="602" height="202" rx="8.5" stroke="#fff" stroke-width="3" stroke-dasharray="9 9"/></g><path fill="#1063F1" d="M476 77h228v41H476z"/><path d="M626.469 58.688h-7.11v-1.422A4.271 4.271 0 00615.094 53a4.271 4.271 0 00-4.266 4.266v1.422h-42.656v-1.422A4.271 4.271 0 00563.906 53a4.271 4.271 0 00-4.265 4.266v1.422h-7.11a5.692 5.692 0 00-5.687 5.687v59.719a5.692 5.692 0 005.687 5.687h8.531a1.421 1.421 0 100-2.843h-8.531a2.848 2.848 0 01-2.843-2.844V75.75h79.624v48.344a2.848 2.848 0 01-2.843 2.844h-8.531a1.421 1.421 0 100 2.843h8.531a5.692 5.692 0 005.687-5.687V64.375a5.692 5.692 0 00-5.687-5.688zm-61.141 5.687c0 .784-.638 1.422-1.422 1.422a1.424 1.424 0 01-1.422-1.422v-7.11c0-.783.638-1.421 1.422-1.421.784 0 1.422.638 1.422 1.422v7.109zm51.188 0c0 .784-.638 1.422-1.422 1.422a1.424 1.424 0 01-1.422-1.422v-7.11c0-.783.638-1.421 1.422-1.421.784 0 1.422.638 1.422 1.422v7.109z" fill="#F9D407"/><path d="M596.609 97.078c0-3.93-3.178-7.11-7.109-7.11-3.92 0-7.109 3.19-7.109 7.11-6.674 2.79-11.375 9.388-11.375 17.063v22.75c0 3.954 3.221 7.109 7.109 7.109h22.75c3.434 0 6.306-2.446 6.967-5.688.204-1.009.142.476.142-24.171 0-7.675-4.701-14.272-11.375-17.063zm-7.109-4.266a4.261 4.261 0 014.159 3.317c-.013-.018-1.903-.473-4.159-.473-2.086 0-4.065.425-4.157.471a4.271 4.271 0 014.157-3.314zm12.797 41.235a4.271 4.271 0 01-4.266 4.265h-17.062a4.271 4.271 0 01-4.266-4.265v-8.531a4.271 4.271 0 014.266-4.266h17.062a4.271 4.271 0 014.266 4.266v8.531zm-1.422-18.485a1.421 1.421 0 01-1.422-1.421c0-5.489-4.465-9.953-9.953-9.953-5.488 0-9.953 4.464-9.953 9.953a1.421 1.421 0 11-2.844 0c0-7.056 5.741-12.797 12.797-12.797 7.056 0 12.797 5.741 12.797 12.797 0 .785-.636 1.421-1.422 1.421zm-36.969 9.954v5.688a7.103 7.103 0 002.847 5.687c.584.438 1.419.015 1.419-.715v-15.632c0-.73-.835-1.153-1.419-.715a7.103 7.103 0 00-2.847 5.687zm46.922-4.972v15.632c0 .73.835 1.153 1.419.715a7.103 7.103 0 002.847-5.687v-5.688a7.103 7.103 0 00-2.847-5.687c-.584-.438-1.419-.015-1.419.715z" fill="#F9D407"/><path d="M598.031 124.094h-17.062c-.784 0-1.422.638-1.422 1.422v8.531c0 .784.638 1.422 1.422 1.422h17.062c.784 0 1.422-.638 1.422-1.422v-8.531c0-.784-.638-1.422-1.422-1.422z" fill="#F9D407"/><g opacity=".1" fill="#fff"><path d="M841.875 174.75h-8.437v-1.688a5.07 5.07 0 00-5.063-5.062 5.07 5.07 0 00-5.063 5.062v1.688h-50.624v-1.688a5.07 5.07 0 00-5.063-5.062 5.07 5.07 0 00-5.063 5.062v1.688h-8.437a6.756 6.756 0 00-6.75 6.75v70.875a6.756 6.756 0 006.75 6.75h10.125a1.687 1.687 0 100-3.375h-10.125a3.38 3.38 0 01-3.375-3.375V195h94.5v57.375a3.38 3.38 0 01-3.375 3.375H831.75a1.688 1.688 0 100 3.375h10.125a6.756 6.756 0 006.75-6.75V181.5a6.756 6.756 0 00-6.75-6.75zm-72.563 6.75a1.69 1.69 0 01-1.687 1.688 1.69 1.69 0 01-1.687-1.688v-8.438c0-.93.757-1.687 1.687-1.687s1.687.757 1.687 1.687v8.438zm60.75 0a1.69 1.69 0 01-1.687 1.688 1.69 1.69 0 01-1.687-1.688v-8.438c0-.93.757-1.687 1.687-1.687s1.687.757 1.687 1.687v8.438z"/><path d="M806.438 220.312a8.432 8.432 0 00-8.438-8.437c-4.652 0-8.437 3.785-8.437 8.437-7.921 3.312-13.501 11.142-13.501 20.25v27c0 4.693 3.824 8.438 8.438 8.438h27c4.075 0 7.484-2.903 8.269-6.75.241-1.198.169.565.169-28.688 0-9.108-5.58-16.938-13.5-20.25zM798 215.25a5.057 5.057 0 014.936 3.936c-.016-.021-2.259-.561-4.936-.561-2.476 0-4.825.505-4.934.559A5.07 5.07 0 01798 215.25zm15.188 48.938a5.07 5.07 0 01-5.063 5.062h-20.25a5.069 5.069 0 01-5.062-5.062v-10.126a5.069 5.069 0 015.062-5.062h20.25a5.07 5.07 0 015.063 5.062v10.126zM811.5 242.25a1.687 1.687 0 01-1.687-1.688c0-6.513-5.299-11.812-11.813-11.812s-11.812 5.299-11.812 11.812a1.688 1.688 0 11-3.375 0c0-8.374 6.813-15.187 15.187-15.187 8.374 0 15.188 6.813 15.188 15.187 0 .933-.756 1.688-1.688 1.688zm-43.875 11.813v6.75a8.428 8.428 0 003.379 6.749c.692.521 1.684.018 1.684-.848v-18.552c0-.867-.992-1.369-1.684-.848a8.428 8.428 0 00-3.379 6.749zm55.687-5.901v18.552c0 .866.992 1.369 1.684.848a8.428 8.428 0 003.379-6.749v-6.75a8.428 8.428 0 00-3.379-6.749c-.692-.521-1.684-.019-1.684.848z"/><path d="M808.125 252.375h-20.25a1.69 1.69 0 00-1.687 1.687v10.126c0 .93.757 1.687 1.687 1.687h20.25a1.69 1.69 0 001.687-1.687v-10.126a1.69 1.69 0 00-1.687-1.687z"/></g><path d="M405.148 198.2c2.063 0 3.854.34 5.372 1.02 1.542.68 2.72 1.655 3.536 2.924.816 1.269 1.224 2.777 1.224 4.522 0 1.723-.408 3.23-1.224 4.522-.816 1.269-1.994 2.244-3.536 2.924-1.518.68-3.309 1.02-5.372 1.02h-5.372V222h-4.42v-23.8h9.792zm-.204 13.192c1.927 0 3.389-.408 4.386-1.224.998-.816 1.496-1.983 1.496-3.502 0-1.519-.498-2.686-1.496-3.502-.997-.816-2.459-1.224-4.386-1.224h-5.168v9.452h5.168zm20.642-7.752c2.675 0 4.715.646 6.12 1.938 1.428 1.269 2.142 3.196 2.142 5.78V222h-4.012v-2.21c-.521.793-1.269 1.405-2.244 1.836-.952.408-2.108.612-3.468.612-1.36 0-2.55-.227-3.57-.68-1.02-.476-1.813-1.122-2.38-1.938-.544-.839-.816-1.779-.816-2.822 0-1.632.601-2.935 1.802-3.91 1.224-.997 3.139-1.496 5.746-1.496h4.692v-.272c0-1.269-.385-2.244-1.156-2.924-.748-.68-1.87-1.02-3.366-1.02-1.02 0-2.029.159-3.026.476-.975.317-1.802.759-2.482 1.326l-1.666-3.094c.952-.725 2.097-1.281 3.434-1.666a15.29 15.29 0 014.25-.578zm-.578 15.504c1.065 0 2.006-.238 2.822-.714a4.036 4.036 0 001.768-2.108v-2.108h-4.386c-2.448 0-3.672.805-3.672 2.414 0 .771.306 1.383.918 1.836.612.453 1.462.68 2.55.68zm22.361 3.094c-1.881 0-3.57-.397-5.066-1.19-1.496-.793-2.663-1.893-3.502-3.298-.839-1.428-1.258-3.037-1.258-4.828 0-1.791.419-3.389 1.258-4.794.839-1.405 1.995-2.505 3.468-3.298 1.496-.793 3.196-1.19 5.1-1.19 1.791 0 3.355.363 4.692 1.088 1.36.725 2.38 1.768 3.06 3.128l-3.264 1.904c-.521-.839-1.179-1.462-1.972-1.87a5.136 5.136 0 00-2.55-.646c-1.587 0-2.901.521-3.944 1.564-1.043 1.02-1.564 2.391-1.564 4.114 0 1.723.51 3.105 1.53 4.148 1.043 1.02 2.369 1.53 3.978 1.53.929 0 1.779-.204 2.55-.612.793-.431 1.451-1.065 1.972-1.904l3.264 1.904a7.436 7.436 0 01-3.094 3.162c-1.337.725-2.89 1.088-4.658 1.088zm28.902-18.394V222h-4.216v-14.552h-8.942V222h-4.25v-18.156h17.408zm5.734 0h4.25v11.968l10.03-11.968h3.876V222h-4.25v-11.968L485.915 222h-3.91v-18.156zm32.135 18.394c-1.881 0-3.57-.397-5.066-1.19-1.496-.793-2.663-1.893-3.502-3.298-.838-1.428-1.258-3.037-1.258-4.828 0-1.791.42-3.389 1.258-4.794.839-1.405 1.995-2.505 3.468-3.298 1.496-.793 3.196-1.19 5.1-1.19 1.791 0 3.355.363 4.692 1.088 1.36.725 2.38 1.768 3.06 3.128l-3.264 1.904c-.521-.839-1.178-1.462-1.972-1.87a5.131 5.131 0 00-2.55-.646c-1.586 0-2.901.521-3.944 1.564-1.042 1.02-1.564 2.391-1.564 4.114 0 1.723.51 3.105 1.53 4.148 1.043 1.02 2.369 1.53 3.978 1.53.93 0 1.78-.204 2.55-.612.794-.431 1.451-1.065 1.972-1.904l3.264 1.904a7.43 7.43 0 01-3.094 3.162c-1.337.725-2.89 1.088-4.658 1.088zm18.26-18.598c2.675 0 4.715.646 6.12 1.938 1.428 1.269 2.142 3.196 2.142 5.78V222h-4.012v-2.21c-.521.793-1.269 1.405-2.244 1.836-.952.408-2.108.612-3.468.612-1.36 0-2.55-.227-3.57-.68-1.02-.476-1.813-1.122-2.38-1.938-.544-.839-.816-1.779-.816-2.822 0-1.632.601-2.935 1.802-3.91 1.224-.997 3.14-1.496 5.746-1.496h4.692v-.272c0-1.269-.385-2.244-1.156-2.924-.748-.68-1.87-1.02-3.366-1.02a9.94 9.94 0 00-3.026.476c-.974.317-1.802.759-2.482 1.326l-1.666-3.094c.952-.725 2.097-1.281 3.434-1.666a15.295 15.295 0 014.25-.578zm-.578 15.504c1.066 0 2.006-.238 2.822-.714a4.036 4.036 0 001.768-2.108v-2.108h-4.386c-2.448 0-3.672.805-3.672 2.414 0 .771.306 1.383.918 1.836.612.453 1.462.68 2.55.68zm14.099-15.3h4.25v7.378h9.146v-7.378h4.25V222h-4.25v-7.174h-9.146V222h-4.25v-18.156zm23.342 0h4.25v11.968l10.03-11.968h3.876V222h-4.25v-11.968L573.173 222h-3.91v-18.156zm40.873 9.18c0 .295-.022.714-.068 1.258h-14.246c.25 1.337.896 2.403 1.938 3.196 1.066.771 2.38 1.156 3.944 1.156 1.995 0 3.638-.657 4.93-1.972l2.278 2.618c-.816.975-1.847 1.711-3.094 2.21-1.246.499-2.652.748-4.216.748-1.994 0-3.751-.397-5.27-1.19-1.518-.793-2.697-1.893-3.536-3.298-.816-1.428-1.224-3.037-1.224-4.828 0-1.768.397-3.355 1.19-4.76a8.645 8.645 0 013.366-3.332c1.428-.793 3.038-1.19 4.828-1.19 1.768 0 3.344.397 4.726 1.19a8.022 8.022 0 013.264 3.298c.794 1.405 1.19 3.037 1.19 4.896zm-9.18-5.984c-1.36 0-2.516.408-3.468 1.224-.929.793-1.496 1.859-1.7 3.196h10.302c-.181-1.315-.736-2.38-1.666-3.196-.929-.816-2.085-1.224-3.468-1.224zm34.071 5.508c1.134.317 2.006.839 2.618 1.564.635.703.952 1.553.952 2.55 0 1.111-.374 2.097-1.122 2.958-.748.839-1.779 1.496-3.094 1.972-1.314.476-2.81.714-4.488.714-1.405 0-2.776-.159-4.114-.476-1.337-.34-2.55-.816-3.638-1.428l1.224-3.162c.884.499 1.882.884 2.992 1.156 1.111.272 2.222.408 3.332.408 1.428 0 2.539-.215 3.332-.646.816-.453 1.224-1.065 1.224-1.836 0-.703-.317-1.247-.952-1.632-.612-.385-1.484-.578-2.618-.578h-3.536v-2.856h3.196c1.066 0 1.893-.181 2.482-.544.612-.363.918-.873.918-1.53s-.362-1.179-1.088-1.564c-.725-.385-1.722-.578-2.992-.578-1.813 0-3.728.442-5.746 1.326l-1.088-3.128c2.38-1.111 4.783-1.666 7.208-1.666 1.542 0 2.924.215 4.148.646 1.224.408 2.176.997 2.856 1.768.703.748 1.054 1.609 1.054 2.584 0 .884-.272 1.677-.816 2.38-.544.68-1.292 1.213-2.244 1.598zm21.138 0c2.244.68 3.366 2.131 3.366 4.352 0 1.632-.612 2.89-1.836 3.774-1.224.884-3.037 1.326-5.44 1.326h-9.248v-18.156h8.874c2.222 0 3.956.408 5.202 1.224 1.247.816 1.87 1.972 1.87 3.468 0 .929-.249 1.734-.748 2.414-.476.68-1.156 1.213-2.04 1.598zm-9.112-1.122h4.454c2.199 0 3.298-.759 3.298-2.278 0-1.473-1.099-2.21-3.298-2.21h-4.454v4.488zm4.862 7.48c2.335 0 3.502-.759 3.502-2.278 0-.793-.272-1.383-.816-1.768-.544-.408-1.394-.612-2.55-.612h-4.998v4.658h4.862zm20.235 3.332c-1.836 0-3.491-.397-4.964-1.19-1.473-.793-2.629-1.893-3.468-3.298-.816-1.428-1.224-3.037-1.224-4.828 0-1.791.408-3.389 1.224-4.794.839-1.405 1.995-2.505 3.468-3.298 1.473-.793 3.128-1.19 4.964-1.19 1.859 0 3.525.397 4.998 1.19 1.473.793 2.618 1.893 3.434 3.298.839 1.405 1.258 3.003 1.258 4.794 0 1.791-.419 3.4-1.258 4.828-.816 1.405-1.961 2.505-3.434 3.298-1.473.793-3.139 1.19-4.998 1.19zm0-3.638c1.564 0 2.856-.521 3.876-1.564 1.02-1.043 1.53-2.414 1.53-4.114 0-1.7-.51-3.071-1.53-4.114-1.02-1.043-2.312-1.564-3.876-1.564s-2.856.521-3.876 1.564c-.997 1.043-1.496 2.414-1.496 4.114 0 1.7.499 3.071 1.496 4.114 1.02 1.043 2.312 1.564 3.876 1.564zm13.889-14.756h4.25v7.378h9.146v-7.378h4.25V222h-4.25v-7.174h-9.146V222h-4.25v-18.156zm30.889 10.88h-3.298V222h-4.25v-18.156h4.25v7.344h3.4l5.372-7.344h4.556l-6.596 8.738L727.4 222h-4.998l-5.474-7.276zm20.964 7.514c-1.836 0-3.49-.397-4.964-1.19-1.473-.793-2.629-1.893-3.468-3.298-.816-1.428-1.224-3.037-1.224-4.828 0-1.791.408-3.389 1.224-4.794.839-1.405 1.995-2.505 3.468-3.298 1.474-.793 3.128-1.19 4.964-1.19 1.859 0 3.525.397 4.998 1.19 1.474.793 2.618 1.893 3.434 3.298.839 1.405 1.258 3.003 1.258 4.794 0 1.791-.419 3.4-1.258 4.828-.816 1.405-1.96 2.505-3.434 3.298-1.473.793-3.139 1.19-4.998 1.19zm0-3.638c1.564 0 2.856-.521 3.876-1.564 1.02-1.043 1.53-2.414 1.53-4.114 0-1.7-.51-3.071-1.53-4.114-1.02-1.043-2.312-1.564-3.876-1.564s-2.856.521-3.876 1.564c-.997 1.043-1.496 2.414-1.496 4.114 0 1.7.499 3.071 1.496 4.114 1.02 1.043 2.312 1.564 3.876 1.564zm27.047-6.052c2.244.68 3.366 2.131 3.366 4.352 0 1.632-.612 2.89-1.836 3.774-1.224.884-3.038 1.326-5.44 1.326h-9.248v-18.156h8.874c2.221 0 3.955.408 5.202 1.224 1.246.816 1.87 1.972 1.87 3.468 0 .929-.25 1.734-.748 2.414-.476.68-1.156 1.213-2.04 1.598zm-9.112-1.122h4.454c2.198 0 3.298-.759 3.298-2.278 0-1.473-1.1-2.21-3.298-2.21h-4.454v4.488zm4.862 7.48c2.334 0 3.502-.759 3.502-2.278 0-.793-.272-1.383-.816-1.768-.544-.408-1.394-.612-2.55-.612h-4.998v4.658h4.862z" fill="#fff"/><g filter="url(#filter1_d_138_92)"><rect x="1027.5" y="96.5" width="602" height="202" rx="8.5" stroke="#fff" stroke-width="3" stroke-dasharray="9 9"/></g><path fill="#1063F1" d="M1214 77h228v41h-228z"/><g filter="url(#filter2_d_138_92)" fill="#F9D407"><path d="M1360.62 63.844h-2.46v-2.461c0-4.071-3.32-7.383-7.39-7.383s-7.38 3.312-7.38 7.383v2.46h-34.78v-2.46c0-4.071-3.31-7.383-7.38-7.383s-7.39 3.312-7.39 7.383v2.46h-2.46c-4.07 0-7.38 3.313-7.38 7.384v59.39c0 4.071 3.31 7.383 7.38 7.383h69.24c4.07 0 7.38-3.312 7.38-7.383v-59.39c0-4.071-3.31-7.383-7.38-7.383zm-12.31-2.461a2.467 2.467 0 012.46-2.461 2.46 2.46 0 012.46 2.46v9.845a2.46 2.46 0 01-2.46 2.46 2.467 2.467 0 01-2.46-2.46v-9.844zm-49.54 0c0-1.357 1.1-2.461 2.46-2.461 1.35 0 2.46 1.104 2.46 2.46v9.845c0 1.356-1.11 2.46-2.46 2.46a2.461 2.461 0 01-2.46-2.46v-9.844zm64.31 69.234a2.467 2.467 0 01-2.46 2.461h-69.24a2.467 2.467 0 01-2.46-2.461V88.781h74.16v41.836zm0-46.758h-74.16V71.227a2.467 2.467 0 012.46-2.461h2.46v2.46c0 4.071 3.32 7.383 7.39 7.383s7.38-3.312 7.38-7.382v-2.461h34.78v2.46c0 4.071 3.31 7.383 7.38 7.383s7.39-3.312 7.39-7.382v-2.461h2.46c1.35 0 2.46 1.104 2.46 2.46V83.86z"/><path d="M1311.23 93.703h-9.84a2.46 2.46 0 00-2.46 2.461v9.844a2.46 2.46 0 002.46 2.461h9.84c1.36 0 2.47-1.102 2.47-2.461v-9.844c0-1.359-1.11-2.46-2.47-2.46zm-2.46 9.844h-4.92v-4.922h4.92v4.922zm2.46 9.844h-9.84a2.46 2.46 0 00-2.46 2.461v9.843a2.46 2.46 0 002.46 2.461h9.84c1.36 0 2.47-1.102 2.47-2.461v-9.843c0-1.36-1.11-2.461-2.47-2.461zm-2.46 9.843h-4.92v-4.922h4.92v4.922zm22.15-9.843h-9.84a2.46 2.46 0 00-2.46 2.461v9.843a2.46 2.46 0 002.46 2.461h9.84a2.46 2.46 0 002.46-2.461v-9.843a2.46 2.46 0 00-2.46-2.461zm-2.46 9.843h-4.92v-4.922h4.92v4.922zm2.46-29.531h-9.84a2.46 2.46 0 00-2.46 2.461v9.844a2.46 2.46 0 002.46 2.461h9.84a2.46 2.46 0 002.46-2.461v-9.844a2.46 2.46 0 00-2.46-2.46zm-2.46 9.844h-4.92v-4.922h4.92v4.922zm22.15-9.844h-9.84a2.468 2.468 0 00-2.47 2.461v9.844a2.468 2.468 0 002.47 2.461h9.84a2.46 2.46 0 002.46-2.461v-9.844a2.46 2.46 0 00-2.46-2.46zm-2.46 9.844h-4.92v-4.922h4.92v4.922zm2.46 9.844h-9.84a2.468 2.468 0 00-2.47 2.461v9.843a2.468 2.468 0 002.47 2.461h9.84a2.46 2.46 0 002.46-2.461v-9.843a2.46 2.46 0 00-2.46-2.461zm-2.46 9.843h-4.92v-4.922h4.92v4.922z"/></g><g opacity=".1" fill="#fff"><path d="M1591.21 190.719h-2.93v-2.93c0-4.846-3.94-8.789-8.79-8.789-4.84 0-8.79 3.943-8.79 8.789v2.93h-41.4v-2.93c0-4.846-3.95-8.789-8.79-8.789-4.85 0-8.79 3.943-8.79 8.789v2.93h-2.93c-4.85 0-8.79 3.943-8.79 8.789v70.703c0 4.846 3.94 8.789 8.79 8.789h82.42c4.85 0 8.79-3.943 8.79-8.789v-70.703c0-4.846-3.94-8.789-8.79-8.789zm-14.65-2.93c0-1.615 1.32-2.93 2.93-2.93a2.93 2.93 0 012.93 2.93v11.719a2.93 2.93 0 01-2.93 2.93 2.937 2.937 0 01-2.93-2.93v-11.719zm-58.98 0a2.93 2.93 0 012.93-2.93c1.61 0 2.93 1.315 2.93 2.93v11.719c0 1.615-1.32 2.93-2.93 2.93a2.93 2.93 0 01-2.93-2.93v-11.719zm76.56 82.422a2.93 2.93 0 01-2.93 2.93h-82.42a2.93 2.93 0 01-2.93-2.93v-49.805h88.28v49.805zm0-55.664h-88.28v-15.039a2.93 2.93 0 012.93-2.93h2.93v2.93c0 4.846 3.94 8.789 8.79 8.789 4.84 0 8.79-3.943 8.79-8.789v-2.93h41.4v2.93c0 4.846 3.95 8.789 8.79 8.789 4.85 0 8.79-3.943 8.79-8.789v-2.93h2.93a2.93 2.93 0 012.93 2.93v15.039z"/><path d="M1532.42 226.266h-11.72a2.935 2.935 0 00-2.93 2.929v11.719c0 1.618 1.32 2.93 2.93 2.93h11.72c1.62 0 2.93-1.312 2.93-2.93v-11.719a2.928 2.928 0 00-2.93-2.929zm-2.93 11.718h-5.86v-5.859h5.86v5.859zm2.93 11.719h-11.72a2.935 2.935 0 00-2.93 2.93v11.719a2.935 2.935 0 002.93 2.929h11.72c1.62 0 2.93-1.311 2.93-2.929v-11.719c0-1.618-1.31-2.93-2.93-2.93zm-2.93 11.719h-5.86v-5.86h5.86v5.86zm26.37-11.719h-11.72a2.929 2.929 0 00-2.93 2.93v11.719a2.928 2.928 0 002.93 2.929h11.72c1.62 0 2.93-1.311 2.93-2.929v-11.719c0-1.618-1.31-2.93-2.93-2.93zm-2.93 11.719h-5.86v-5.86h5.86v5.86zm2.93-35.156h-11.72a2.928 2.928 0 00-2.93 2.929v11.719c0 1.618 1.31 2.93 2.93 2.93h11.72c1.62 0 2.93-1.312 2.93-2.93v-11.719a2.928 2.928 0 00-2.93-2.929zm-2.93 11.718h-5.86v-5.859h5.86v5.859zm26.37-11.718h-11.72a2.928 2.928 0 00-2.93 2.929v11.719c0 1.618 1.31 2.93 2.93 2.93h11.72c1.61 0 2.93-1.312 2.93-2.93v-11.719a2.935 2.935 0 00-2.93-2.929zm-2.93 11.718h-5.86v-5.859h5.86v5.859zm2.93 11.719h-11.72a2.929 2.929 0 00-2.93 2.93v11.719a2.928 2.928 0 002.93 2.929h11.72c1.61 0 2.93-1.311 2.93-2.929v-11.719c0-1.618-1.32-2.93-2.93-2.93zm-2.93 11.719h-5.86v-5.86h5.86v5.86z"/></g><path d="M1140.15 211.97h-4.42V222h-4.35v-23.8h4.35v9.962h4.55l6.84-9.962h4.69l-8.13 11.526 8.44 12.274h-5l-6.97-10.03zm21.49-8.33c2.67 0 4.71.646 6.12 1.938 1.43 1.269 2.14 3.196 2.14 5.78V222h-4.01v-2.21c-.52.793-1.27 1.405-2.24 1.836-.96.408-2.11.612-3.47.612-1.36 0-2.55-.227-3.57-.68-1.02-.476-1.82-1.122-2.38-1.938-.55-.839-.82-1.779-.82-2.822 0-1.632.6-2.935 1.8-3.91 1.23-.997 3.14-1.496 5.75-1.496h4.69v-.272c0-1.269-.38-2.244-1.15-2.924-.75-.68-1.87-1.02-3.37-1.02-1.02 0-2.03.159-3.03.476-.97.317-1.8.759-2.48 1.326l-1.66-3.094c.95-.725 2.09-1.281 3.43-1.666 1.34-.385 2.75-.578 4.25-.578zm-.58 15.504c1.07 0 2.01-.238 2.82-.714a4.035 4.035 0 001.77-2.108v-2.108h-4.38c-2.45 0-3.68.805-3.68 2.414 0 .771.31 1.383.92 1.836.61.453 1.46.68 2.55.68zm30.56-15.3V222h-4.25v-14.552h-6.8l-.17 3.604c-.12 2.403-.34 4.42-.68 6.052-.32 1.609-.88 2.89-1.67 3.842-.77.929-1.84 1.394-3.2 1.394-.63 0-1.41-.125-2.34-.374l.2-3.57c.32.068.59.102.82.102.86 0 1.51-.34 1.94-1.02.43-.703.7-1.53.81-2.482.14-.975.25-2.357.34-4.148l.31-7.004h14.69zm22.72 9.18c0 .295-.02.714-.07 1.258h-14.24c.25 1.337.89 2.403 1.93 3.196 1.07.771 2.38 1.156 3.95 1.156 1.99 0 3.64-.657 4.93-1.972l2.28 2.618c-.82.975-1.85 1.711-3.1 2.21-1.24.499-2.65.748-4.21.748-2 0-3.75-.397-5.27-1.19-1.52-.793-2.7-1.893-3.54-3.298-.82-1.428-1.22-3.037-1.22-4.828 0-1.768.39-3.355 1.19-4.76a8.577 8.577 0 013.36-3.332c1.43-.793 3.04-1.19 4.83-1.19 1.77 0 3.34.397 4.73 1.19 1.4.771 2.49 1.87 3.26 3.298.79 1.405 1.19 3.037 1.19 4.896zm-9.18-5.984c-1.36 0-2.52.408-3.47 1.224-.93.793-1.49 1.859-1.7 3.196h10.3c-.18-1.315-.73-2.38-1.66-3.196-.93-.816-2.09-1.224-3.47-1.224zm13.83-3.196h4.25v7.378h9.14v-7.378h4.25V222h-4.25v-7.174h-9.14V222h-4.25v-18.156zm42.72 14.552v7.65h-3.98V222h-14.01v4.046h-3.94v-7.65h.85c1.16-.045 1.94-.782 2.35-2.21.43-1.451.71-3.491.85-6.12l.23-6.222h14.96v14.552h2.69zm-14.01-8.024c-.09 2.085-.26 3.785-.51 5.1-.25 1.315-.7 2.289-1.36 2.924h8.94v-10.948h-6.97l-.1 2.924zm24.57-6.732c2.68 0 4.72.646 6.12 1.938 1.43 1.269 2.14 3.196 2.14 5.78V222h-4.01v-2.21c-.52.793-1.27 1.405-2.24 1.836-.95.408-2.11.612-3.47.612-1.36 0-2.55-.227-3.57-.68-1.02-.476-1.81-1.122-2.38-1.938a5.11 5.11 0 01-.82-2.822c0-1.632.61-2.935 1.81-3.91 1.22-.997 3.14-1.496 5.74-1.496h4.69v-.272c0-1.269-.38-2.244-1.15-2.924-.75-.68-1.87-1.02-3.37-1.02-1.02 0-2.03.159-3.02.476-.98.317-1.81.759-2.49 1.326l-1.66-3.094c.95-.725 2.1-1.281 3.43-1.666 1.34-.385 2.76-.578 4.25-.578zm-.58 15.504c1.07 0 2.01-.238 2.83-.714a4.016 4.016 0 001.76-2.108v-2.108h-4.38c-2.45 0-3.67.805-3.67 2.414 0 .771.3 1.383.91 1.836.62.453 1.47.68 2.55.68zm24.17-15.504c1.77 0 3.34.385 4.72 1.156a8.265 8.265 0 013.3 3.264c.79 1.405 1.19 3.026 1.19 4.862 0 1.836-.4 3.468-1.19 4.896a8.265 8.265 0 01-3.3 3.264c-1.38.771-2.95 1.156-4.72 1.156-2.45 0-4.39-.816-5.82-2.448v8.806h-4.25v-24.752h4.05v2.38a6.576 6.576 0 012.58-1.938c1.05-.431 2.19-.646 3.44-.646zm-.48 14.96c1.57 0 2.85-.521 3.84-1.564 1.02-1.043 1.53-2.414 1.53-4.114 0-1.7-.51-3.071-1.53-4.114-.99-1.043-2.27-1.564-3.84-1.564-1.02 0-1.94.238-2.75.714-.82.453-1.46 1.111-1.94 1.972s-.71 1.859-.71 2.992.23 2.131.71 2.992c.48.861 1.12 1.53 1.94 2.006.81.453 1.73.68 2.75.68zm13.92-14.756h4.25v7.378h9.15v-7.378h4.25V222h-4.25v-7.174h-9.15V222h-4.25v-18.156zm32.18 5.984c2.32 0 4.08.521 5.31 1.564 1.22 1.043 1.83 2.516 1.83 4.42 0 1.995-.68 3.536-2.04 4.624-1.33 1.088-3.24 1.621-5.71 1.598l-8.23-.034v-18.156h4.25v5.95l4.59.034zm9.49-5.984h4.25V222h-4.25v-18.156zm-10.47 15.062c1.24.023 2.2-.238 2.85-.782.66-.544.99-1.337.99-2.38 0-1.02-.32-1.768-.95-2.244-.64-.476-1.6-.725-2.89-.748l-3.61-.034v6.154l3.61.034zm20.43-15.062h4.25v11.968l10.03-11.968h3.88V222h-4.25v-11.968l-10 11.968h-3.91v-18.156zm8.81-2.142c-1.84 0-3.24-.419-4.22-1.258-.95-.861-1.44-2.108-1.46-3.74h2.82c.02.816.27 1.462.75 1.938.5.476 1.19.714 2.07.714.87 0 1.55-.238 2.04-.714.53-.476.8-1.122.82-1.938h2.89c-.02 1.632-.52 2.879-1.5 3.74-.97.839-2.38 1.258-4.21 1.258zm38.4 5.746h-9.69V222h-4.25v-18.156h13.94v3.604zm13.16-3.808c1.77 0 3.34.385 4.72 1.156a8.265 8.265 0 013.3 3.264c.8 1.405 1.19 3.026 1.19 4.862 0 1.836-.39 3.468-1.19 4.896a8.265 8.265 0 01-3.3 3.264c-1.38.771-2.95 1.156-4.72 1.156-2.45 0-4.39-.816-5.82-2.448v8.806h-4.25v-24.752h4.05v2.38a6.576 6.576 0 012.58-1.938c1.05-.431 2.19-.646 3.44-.646zm-.48 14.96c1.57 0 2.85-.521 3.84-1.564 1.02-1.043 1.53-2.414 1.53-4.114 0-1.7-.51-3.071-1.53-4.114-.99-1.043-2.27-1.564-3.84-1.564-1.02 0-1.94.238-2.75.714-.82.453-1.46 1.111-1.94 1.972s-.71 1.859-.71 2.992.23 2.131.71 2.992c.48.861 1.12 1.53 1.94 2.006.81.453 1.73.68 2.75.68zm20.46-14.96c2.67 0 4.71.646 6.12 1.938 1.42 1.269 2.14 3.196 2.14 5.78V222h-4.01v-2.21c-.53.793-1.27 1.405-2.25 1.836-.95.408-2.11.612-3.47.612-1.36 0-2.55-.227-3.57-.68-1.02-.476-1.81-1.122-2.38-1.938-.54-.839-.81-1.779-.81-2.822 0-1.632.6-2.935 1.8-3.91 1.22-.997 3.14-1.496 5.75-1.496h4.69v-.272c0-1.269-.39-2.244-1.16-2.924-.75-.68-1.87-1.02-3.36-1.02-1.02 0-2.03.159-3.03.476-.97.317-1.8.759-2.48 1.326l-1.67-3.094c.95-.725 2.1-1.281 3.44-1.666 1.33-.385 2.75-.578 4.25-.578zm-.58 15.504c1.06 0 2-.238 2.82-.714a4.035 4.035 0 001.77-2.108v-2.108h-4.39c-2.45 0-3.67.805-3.67 2.414 0 .771.31 1.383.92 1.836.61.453 1.46.68 2.55.68zm38.1-6.256c0 2.811-.94 5.021-2.82 6.63-1.86 1.609-4.52 2.527-7.99 2.754v6.324h-4.01v-6.29c-3.47-.227-6.13-1.145-7.99-2.754-1.86-1.609-2.79-3.831-2.79-6.664 0-2.811.93-4.998 2.79-6.562 1.86-1.587 4.52-2.493 7.99-2.72v-6.834h4.01v6.834c3.47.227 6.13 1.133 7.99 2.72 1.88 1.587 2.82 3.774 2.82 6.562zm-21.42 0c0 1.745.53 3.105 1.6 4.08 1.09.975 2.75 1.564 5 1.768V207.21c-2.25.181-3.91.748-5 1.7-1.07.952-1.6 2.278-1.6 3.978zm10.61 5.848c4.44-.408 6.66-2.357 6.66-5.848 0-1.723-.55-3.049-1.66-3.978-1.09-.952-2.76-1.519-5-1.7v11.526zm14.93-14.892h4.25v11.968l10.03-11.968h3.88V222h-4.25v-11.968l-10 11.968h-3.91v-18.156zm31.42 10.88h-3.3V222h-4.25v-18.156h4.25v7.344h3.4l5.38-7.344h4.55l-6.59 8.738 7.03 9.418h-4.99l-5.48-7.276z" fill="#fff"/><defs><filter id="filter0_d_138_92" x="262" y="74" width="655" height="255" filterUnits="userSpaceOnUse" color-interpolation-filters="sRGB"><feFlood flood-opacity="0" result="BackgroundImageFix"/><feColorMatrix in="SourceAlpha" values="0 0 0 0 0 0 0 0 0 0 0 0 0 0 0 0 0 0 127 0" result="hardAlpha"/><feOffset dy="4"/><feGaussianBlur stdDeviation="12.5"/><feColorMatrix values="0 0 0 0 0 0 0 0 0 0 0 0 0 0 0 0 0 0 0.07 0"/><feBlend in2="BackgroundImageFix" result="effect1_dropShadow_138_92"/><feBlend in="SourceGraphic" in2="effect1_dropShadow_138_92" result="shape"/></filter><filter id="filter1_d_138_92" x="1001" y="74" width="655" height="255" filterUnits="userSpaceOnUse" color-interpolation-filters="sRGB"><feFlood flood-opacity="0" result="BackgroundImageFix"/><feColorMatrix in="SourceAlpha" values="0 0 0 0 0 0 0 0 0 0 0 0 0 0 0 0 0 0 127 0" result="hardAlpha"/><feOffset dy="4"/><feGaussianBlur stdDeviation="12.5"/><feColorMatrix values="0 0 0 0 0 0 0 0 0 0 0 0 0 0 0 0 0 0 0.07 0"/><feBlend in2="BackgroundImageFix" result="effect1_dropShadow_138_92"/><feBlend in="SourceGraphic" in2="effect1_dropShadow_138_92" result="shape"/></filter><filter id="filter2_d_138_92" x="1280" y="54" width="92" height="92" filterUnits="userSpaceOnUse" color-interpolation-filters="sRGB"><feFlood flood-opacity="0" result="BackgroundImageFix"/><feColorMatrix in="SourceAlpha" values="0 0 0 0 0 0 0 0 0 0 0 0 0 0 0 0 0 0 127 0" result="hardAlpha"/><feOffset dy="4"/><feGaussianBlur stdDeviation="2"/><feComposite in2="hardAlpha" operator="out"/><feColorMatrix values="0 0 0 0 0 0 0 0 0 0 0 0 0 0 0 0 0 0 0.25 0"/><feBlend in2="BackgroundImageFix" result="effect1_dropShadow_138_92"/><feBlend in="SourceGraphic" in2="effect1_dropShadow_138_92" result="shape"/></filter></defs></svg>