<svg width="216" height="216" fill="none" xmlns="http://www.w3.org/2000/svg"><g clip-path="url(#clip0_121_2060)" fill="#F2F7FF"><path d="M42.667 52.907c-15.998 0-29.013 13.015-29.013 29.013 0 15.998 13.015 29.013 29.013 29.013a3.414 3.414 0 000-6.826c-12.233 0-22.187-9.953-22.187-22.187 0-12.233 9.953-22.187 22.187-22.187 12.234 0 22.187 9.953 22.187 22.187 0 4.053-1.108 8.02-3.203 11.474a3.413 3.413 0 105.837 3.54 28.934 28.934 0 004.193-15.014c0-15.998-13.016-29.013-29.014-29.013z"/><path d="M42.667 39.253C19.14 39.253 0 58.393 0 81.92c0 21.306 15.915 39.489 37.018 42.293a3.411 3.411 0 003.833-2.933 3.414 3.414 0 00-2.934-3.833C20.192 115.09 6.825 99.817 6.825 81.919c0-19.763 16.079-35.84 35.84-35.84 19.761 0 35.84 16.077 35.84 35.84 0 3.724-.57 7.393-1.695 10.907a3.413 3.413 0 106.5 2.082 42.457 42.457 0 002.022-12.988c.001-23.526-19.139-42.667-42.665-42.667z"/><path d="M107.52 39.253c-13.07 0-25.248 5.888-33.41 16.157a3.412 3.412 0 105.344 4.248c6.86-8.63 17.09-13.578 28.066-13.578 19.761 0 35.84 16.077 35.84 35.84 0 3.519-.51 6.996-1.519 10.334a3.415 3.415 0 006.537 1.97 42.545 42.545 0 001.809-12.304c0-23.526-19.141-42.667-42.667-42.667z"/><path d="M107.52 52.907c-15.998 0-29.013 13.015-29.013 29.013 0 3.772.717 7.446 2.132 10.918a3.415 3.415 0 006.323-2.574 22.02 22.02 0 01-1.628-8.344c0-12.233 9.953-22.187 22.187-22.187 12.233 0 22.187 9.953 22.187 22.187a22.1 22.1 0 01-3.195 11.46 3.413 3.413 0 005.837 3.54 28.933 28.933 0 004.185-15c-.002-15.998-13.017-29.013-29.015-29.013z"/><path d="M76.8 90.453c-23.526 0-42.667 19.14-42.667 42.667 0 23.526 19.14 42.667 42.667 42.667 23.526 0 42.667-19.14 42.667-42.667 0-23.526-19.141-42.667-42.667-42.667zm0 78.507c-19.762 0-35.84-16.077-35.84-35.84S57.038 97.28 76.8 97.28c19.76 0 35.84 16.077 35.84 35.84s-16.078 35.84-35.84 35.84z"/><path d="M76.8 104.107c-15.998 0-29.013 13.015-29.013 29.013 0 15.998 13.015 29.013 29.013 29.013 15.998 0 29.013-13.015 29.013-29.013 0-15.998-13.015-29.013-29.013-29.013zm0 51.2c-12.233 0-22.187-9.953-22.187-22.187 0-12.233 9.953-22.187 22.187-22.187 12.233 0 22.187 9.953 22.187 22.187 0 12.233-9.954 22.187-22.187 22.187zM201.387 81.92c0-15.998-13.015-29.013-29.013-29.013-15.998 0-29.014 13.015-29.014 29.013 0 4.717 1.164 9.404 3.366 13.553a3.412 3.412 0 106.03-3.198 22.192 22.192 0 01-2.569-10.354c0-12.233 9.953-22.187 22.187-22.187 12.234 0 22.187 9.953 22.187 22.187a22.115 22.115 0 01-19.93 22.074 3.412 3.412 0 10.686 6.791 28.922 28.922 0 0026.07-28.866z"/><path d="M172.373 39.253c-14.177 0-27.399 7.037-35.367 18.825a3.413 3.413 0 005.656 3.822c6.699-9.907 17.804-15.821 29.711-15.821 19.761 0 35.84 16.077 35.84 35.84 0 16.655-11.795 31.37-28.046 34.987a3.414 3.414 0 101.483 6.665c19.345-4.308 33.389-21.823 33.389-41.651.001-23.526-19.139-42.667-42.666-42.667z"/><path d="M141.653 90.453c-13.391 0-25.75 6.124-33.913 16.8a3.415 3.415 0 005.424 4.147c6.859-8.974 17.244-14.12 28.489-14.12 19.761 0 35.84 16.076 35.84 35.839 0 19.763-16.078 35.84-35.84 35.84-11.788 0-22.833-5.823-29.544-15.573a3.413 3.413 0 10-5.623 3.869c7.985 11.604 21.132 18.531 35.168 18.531 23.526 0 42.667-19.14 42.667-42.667-.001-23.525-19.141-42.666-42.668-42.666z"/><path d="M141.653 162.133c15.998 0 29.013-13.015 29.013-29.013 0-15.998-13.015-29.013-29.013-29.013-15.998 0-29.013 13.015-29.013 29.013 0 15.998 13.015 29.013 29.013 29.013zm0-51.2c12.233 0 22.187 9.953 22.187 22.187 0 12.233-9.953 22.187-22.187 22.187-12.233 0-22.187-9.953-22.187-22.187.001-12.233 9.954-22.187 22.187-22.187z"/></g><defs><clipPath id="clip0_121_2060"><path fill="#fff" d="M0 0h215.04v215.04H0z"/></clipPath></defs></svg>