<svg width="193" height="189" fill="none" xmlns="http://www.w3.org/2000/svg"><path d="M7.875 173.424A5.58 5.58 0 0013.449 179h54.076a2.461 2.461 0 000-4.922H33.112v-34.134a2.46 2.46 0 10-4.922 0v34.134H13.45a.654.654 0 01-.653-.652v-33.868c0-13.239 11.18-18.198 11.846-18.48l27.342-10.6c2.96 3.146 9.686 11.359 21.282 11.359 6.83 0 13.503-3.093 18.789-8.709l2.65-2.816.632.244c-.137 1.121-.13 2.124-.13 2.124 0 13.074 7.791 23.718 18.213 31.704v29.694H79.009a2.46 2.46 0 100 4.922h54.72a5.554 5.554 0 005.547-5.547v-26.766c7.971-5.438 18.007-14.568 20.743-27.266a2.462 2.462 0 00-4.812-1.037c-2.792 12.957-15.21 23.299-26.919 29.054a.821.821 0 01-.702 0c-13.81-6.823-27.472-19.122-27.457-34.754.013-12.984 17.322-17.574 23.739-6.224.595 1.05 2.229 2.282 4.11 2.283h.004c1.872 0 3.508-1.223 4.108-2.274 5.384-9.476 19.194-8.144 22.921 1.811a2.461 2.461 0 104.61-1.725c-5.147-13.748-24.039-15.601-31.639-2.814-7.354-12.431-25.697-11.219-31.362 2.032l-1.682-.651-4.73-1.832a.8.8 0 01-.51-.743v-7.994c5.556-4.253 9.383-10.648 10.242-17.94 6.634-.547 11.492-5.821 11.492-11.797 0-2.779-1.068-5.49-2.964-7.616V46.202C108.468 26.79 92.678 11 73.267 11c-19.41 0-35.202 15.791-35.202 35.202v11.26c-1.917 2.102-2.962 4.675-2.962 7.354 0 5.968 4.85 11.249 11.49 11.796.847 7.254 4.655 13.95 10.822 18.353v7.464a.978.978 0 01-.619.905l-33.963 13.167-.046.018c-.61.25-14.912 6.323-14.912 23.039v33.866zm110.468-25.587a74.007 74.007 0 007.062 4.015c1.461.721 3.405.815 5.054.005a70.999 70.999 0 003.895-2.082v23.678c0 .344-.28.625-.626.625h-15.386v-26.241h.001zm-11.833-83.02c0 3.46-2.84 6.276-6.381 6.822V57.996c3.539.545 6.381 3.36 6.381 6.82zm-60.105 6.822c-3.53-.543-6.38-3.353-6.38-6.823 0-3.32 3.091-5.994 6.38-6.689v13.512zm.07-18.516c-1.24.158-2.497.517-3.488.923v-7.844c0-16.696 13.584-30.28 30.28-30.28s30.278 13.584 30.278 30.28v7.631a13.853 13.853 0 00-3.416-.796v-.702c.002-2.27-.311-2.159-8.936-11.43a4.68 4.68 0 00-6-.731c-10.086 6.588-22.39 9.897-33.75 9.082a4.7 4.7 0 00-4.967 3.867zm4.852 20.37v-19.31c12.29.824 25.53-2.734 36.395-9.781 4.425 4.754 6.836 7.253 7.486 8.09 0 24.192.005 20.607-.01 21.412-.39 12.422-10.37 21.182-21.583 21.182-13.17 0-22.288-10.165-22.288-21.591zm7.247 34.431a5.93 5.93 0 003.763-5.494v-4.688c3.29 1.412 7.208 2.266 11.278 2.266 3.89 0 7.71-.858 11.162-2.468v5.007a5.754 5.754 0 003.654 5.333l1.321.513-1.28 1.361c-4.055 4.309-9.239 7.161-15.205 7.161-5.537 0-10.795-2.476-15.204-7.161l-1.126-1.196 1.637-.634z" fill="#F2F7FF"/></svg>