<svg width="195" height="169" fill="none" xmlns="http://www.w3.org/2000/svg"><path d="M86.836 51.797a4.57 4.57 0 100 9.14 4.57 4.57 0 000-9.14zm27.422 0a4.568 4.568 0 00-4.483 5.462 4.577 4.577 0 003.591 3.59 4.572 4.572 0 005.462-4.482 4.573 4.573 0 00-4.57-4.57zm-13.711 18.281a3.05 3.05 0 01-3.047-3.047h-6.094a9.141 9.141 0 0018.282 0h-6.094a3.048 3.048 0 01-3.047 3.047z" fill="#F2F7FF"/><path d="M187.829 116.505a3.045 3.045 0 00-2.47-.681l-27.547 4.591c-1.812.3-3.547.958-5.103 1.934l-2.1-5.301a20.314 20.314 0 00-3.496-5.838l.795-7.205c.203-1.836.311-3.681.321-5.528a49.734 49.734 0 00-4.054-19.633 44.009 44.009 0 01-3.476-19.461l.519-10.547c.031-.664.064-1.352.064-2.034a40.767 40.767 0 00-40.735-40.708 40.73 40.73 0 00-40.672 42.744l.516 10.512c.03.785.06 1.526.06 2.26a43.436 43.436 0 01-3.533 17.233 49.788 49.788 0 00-3.732 25.182l.792 7.105a20.7 20.7 0 00-2.413 3.49l-4.159-10.398a8.977 8.977 0 00-8.503-5.643 8.975 8.975 0 00-7.856 12.99l.586 1.165h-5.99a15.3 15.3 0 01-6.812-1.608l-3.036-1.518a6.707 6.707 0 00-6.522.293 6.706 6.706 0 00-3.18 5.702v8.599a9.093 9.093 0 005.054 8.176l4.959 2.48a21.436 21.436 0 009.538 2.251h1.778v9.023l-2.189 28.454a13.3 13.3 0 0013.935 14.303c.194.009.388.017.581.017a12.266 12.266 0 0011.521-8.056l13.909-25.86a26.65 26.65 0 004.9 10.608v23.308h6.093v-24.375c0-.712-.25-1.403-.706-1.95a20.774 20.774 0 012.657-29.225l-3.902-4.681a26.84 26.84 0 00-3.785 3.864c-.115.119-.22.246-.315.381l-.007-.004-.054.095c-.014.021-.025.045-.038.067a26.669 26.669 0 00-3.961 7.405l-14.264 26.524V129.99l4.33-10.781a14.617 14.617 0 013.206-4.918 15.426 15.426 0 0110.928-4.603h10.196l17.415 31.927a3.041 3.041 0 002.675 1.588 3.04 3.04 0 001.555-.427c.471-.279.858-.68 1.12-1.161l6.466-11.854v40.864a3.046 3.046 0 002.449 2.988l12.785 2.557v12.736h6.094v-11.518l11.657 2.328c.076.014.429.05.53.05h5.764l.585 1.09a12.35 12.35 0 0011.567 8.05 11.45 11.45 0 002.008-.166 12.352 12.352 0 009.537-7.956l8.103-1.35a6.067 6.067 0 005.078-5.699l.61-.122a3.048 3.048 0 002.451-2.988v-51.797a3.042 3.042 0 00-1.077-2.323zm-100.776-7.448a7.315 7.315 0 004.353-6.682V93.05a30.485 30.485 0 0018.282 0v9.325a7.315 7.315 0 004.352 6.681l-3.667 6.725H90.721l-3.668-6.724zm13.494-20.698a24.403 24.403 0 01-24.375-24.375v-13.64a44.51 44.51 0 0013.187-15.097 78.922 78.922 0 0035.563 16.1v12.637a24.404 24.404 0 01-24.375 24.375zm41.177 25.985l.056.057a14.122 14.122 0 013.161 4.879l1.309 3.305a13.852 13.852 0 00-5.468-2.171l-23.829-3.972 3.684-6.754h10.165a15.089 15.089 0 0110.922 4.656zm1.781 16.672l-13.863-2.773-13.864-2.772v-3.047l23.999 3.999a7.712 7.712 0 015.855 4.593h-2.127zm15.31-4.591l23.998-4v3.046l-14.331 2.867-13.393 2.678h-2.127a7.713 7.713 0 015.852-4.591h.001zm-139.984 2.982l-4.96-2.479a3.032 3.032 0 01-1.683-2.726v-8.599a.581.581 0 01.289-.518.587.587 0 01.592-.027l3.037 1.518a21.437 21.437 0 009.538 2.252h10.919a3.047 3.047 0 002.725-4.409l-2.79-5.579a2.88 2.88 0 011.878-4.082 2.887 2.887 0 013.372 1.724l3.955 9.886v14.648h-20.06a15.314 15.314 0 01-6.812-1.609zm26.872 7.702v6.094H33.516v-6.094h12.187zM31.31 175.052l1.981-25.755h12.413v26.308a7.214 7.214 0 01-6.686 7.181 3.27 3.27 0 00-.343.017c-.06 0-.118.009-.179.009a7.2 7.2 0 01-6.806-4.837 7.2 7.2 0 01-.38-2.923zm38.818-42.128c.06-.082.125-.16.194-.236-.063.08-.123.161-.185.241l-.01-.005zm-10.535-26.452l-.35-3.131a43.686 43.686 0 013.276-22.098 49.49 49.49 0 004.026-19.635c0-.851-.032-1.686-.065-2.526l-.518-10.544A34.636 34.636 0 11135.19 46.8c0 .537-.028 1.123-.057 1.74l-.518 10.535a50.125 50.125 0 003.958 22.162 43.67 43.67 0 013.564 17.238 46.712 46.712 0 01-.287 4.875l-.346 3.14a21.302 21.302 0 00-10.702-2.896H117a1.233 1.233 0 01-1.219-1.219V90.354a30.477 30.477 0 0015.235-26.37V48.75a3.05 3.05 0 00-2.616-3.016A72.847 72.847 0 0192.04 29.57l-1.73-1.442a3.046 3.046 0 00-4.676.978l-1.18 2.361a38.385 38.385 0 01-13.019 14.748 3.048 3.048 0 00-1.357 2.535v15.234a30.48 30.48 0 0015.235 26.37v12.021a1.236 1.236 0 01-1.22 1.219H70.262a21.468 21.468 0 00-10.67 2.878zm40.955 27.321l-6.501-11.918h13.002l-6.501 11.918zm15.234-2.107l24.375 4.875v36.441l-24.375-4.875v-36.441zm30.469 5.423h6.094v36.563h-6.094v-36.563zm15.832 45.627a6.232 6.232 0 01-4.055-.747 6.23 6.23 0 01-2.278-2.247c.057-.006.114-.016.171-.026.022-.004.045-.005.067-.009h.005l.021-.005 6.263-1.252a6.015 6.015 0 003.068 2.671 6.34 6.34 0 01-3.262 1.615zm17.684-9.313l-12.188 2.031v-11.325a.918.918 0 01.768-.906l10.349-1.725a.922.922 0 011.071.907l.002 11.017-.002.001zm-2.073-17.936l-10.349 1.725a6.993 6.993 0 00-5.86 6.917v8.265l-3.046.609v-36.442l24.375-4.875v24.938a6.995 6.995 0 00-5.12-1.137z" fill="#F2F7FF"/></svg>