<svg width="168" height="161" fill="none" xmlns="http://www.w3.org/2000/svg"><g clip-path="url(#clip0_121_1935)" fill="#F2F7FF"><path d="M156.119 59.09h-10.291v-1.207a5.136 5.136 0 00-5.131-5.131h-20.184a2.461 2.461 0 000 4.923h20.184c.115 0 .208.093.208.208v44.25a2.461 2.461 0 104.923 0v-38.12h10.291c.372 0 .675.302.675.674v87.879c0 5.795-4.715 10.511-10.511 10.511H21.716c-5.796 0-10.51-4.716-10.51-10.511V64.687c0-.372.302-.675.674-.675h10.627v86.208a6.392 6.392 0 006.385 6.385h110.551a6.392 6.392 0 006.385-6.385v-37.596a2.462 2.462 0 10-4.923 0v23.021h-40.811c-5.313 0-10.105 2.268-13.465 5.883v-30.264h4.929c7.297 0 13.234-5.937 13.234-13.234V86.008a5.795 5.795 0 00-5.789-5.789h-12.87v-2.816h3.411c5.193 0 9.418-4.225 9.418-9.418V65.57a3.99 3.99 0 00-3.985-3.985h-4.35a9.36 9.36 0 00-4.494 1.144v-8.567l12.48 6.561a4.598 4.598 0 002.143.533 4.57 4.57 0 002.696-.883 4.563 4.563 0 001.827-4.492l-2.822-16.456 11.956-11.655a4.565 4.565 0 001.162-4.71 4.564 4.564 0 00-3.708-3.126l-16.523-2.4L87.956 2.56A4.566 4.566 0 0083.835 0a4.564 4.564 0 00-4.12 2.561l-7.39 14.972-3.092.45a2.461 2.461 0 10.708 4.871l3.264-.474a4.592 4.592 0 003.458-2.513l7.171-14.529 7.17 14.529a4.593 4.593 0 003.46 2.513l16.034 2.33-11.602 11.31a4.592 4.592 0 00-1.321 4.066l2.739 15.97-14.341-7.54a4.592 4.592 0 00-4.276 0l-14.341 7.54 2.739-15.97a4.594 4.594 0 00-1.321-4.066L57.172 24.71l2.359-.342a2.461 2.461 0 10-.708-4.872l-3.018.438a4.565 4.565 0 00-3.71 3.127 4.566 4.566 0 001.163 4.709l11.956 11.655-2.822 16.455a4.565 4.565 0 001.827 4.493 4.567 4.567 0 004.839.35l12.152-6.389v8.395a9.357 9.357 0 00-4.495-1.144h-4.349a3.99 3.99 0 00-3.985 3.986v2.415c0 5.193 4.225 9.418 9.418 9.418h3.411v2.816H68.34a5.795 5.795 0 00-5.789 5.788v12.023c0 7.296 5.937 13.233 13.234 13.233h5.92v30.264c-3.36-3.615-8.15-5.883-13.464-5.883H51.638a2.461 2.461 0 100 4.923H68.24c6.623 0 12.14 4.807 13.255 11.114H28.892a1.463 1.463 0 01-1.462-1.462v-9.652h13.718a2.46 2.46 0 100-4.923H27.43V57.883c0-.115.093-.208.208-.208h20.184a2.461 2.461 0 100-4.923H27.638a5.137 5.137 0 00-5.131 5.13v1.207H11.88a5.604 5.604 0 00-5.598 5.598v87.879c0 8.51 6.924 15.434 15.434 15.434h124.567c8.51 0 15.434-6.924 15.434-15.434V64.687a5.604 5.604 0 00-5.598-5.598zm-56.025 81.478h40.811v9.652c0 .806-.656 1.462-1.462 1.462H86.839c1.116-6.307 6.632-11.114 13.255-11.114zM86.133 71.003a4.5 4.5 0 014.495-4.495h3.411v1.477a4.5 4.5 0 01-4.495 4.495h-3.411v-1.477zm-8.334 1.477a4.5 4.5 0 01-4.495-4.495v-1.477h3.411a4.5 4.5 0 014.495 4.495v1.477H77.8zm-2.014 33.861c-4.582 0-8.31-3.728-8.31-8.31V86.007c0-.477.388-.865.865-.865h30.663c.478 0 .866.388.866.865V98.03c0 4.583-3.728 8.311-8.31 8.311H75.784zm50.475-90.87c.656 0 1.31-.26 1.795-.776l5.531-5.888a2.462 2.462 0 00-3.589-3.37l-5.531 5.887a2.462 2.462 0 001.794 4.147z"/><path d="M126.564 30.628a2.461 2.461 0 002.462 2.461h5.798a2.461 2.461 0 100-4.923h-5.798a2.462 2.462 0 00-2.462 2.462zM39.616 14.695a2.456 2.456 0 001.795.776 2.462 2.462 0 001.794-4.147l-5.53-5.887a2.462 2.462 0 00-3.59 3.37l5.531 5.888zM32.847 33.09h5.798a2.461 2.461 0 100-4.924h-5.798a2.461 2.461 0 100 4.923zm100.867 48.712h-19.308a2.461 2.461 0 100 4.923h19.308a2.46 2.46 0 100-4.923zm0 12.482h-19.308a2.461 2.461 0 100 4.923h19.308a2.46 2.46 0 100-4.923zm-.001 12.481h-23.542a2.462 2.462 0 100 4.923h23.542a2.46 2.46 0 100-4.923zm.001 12.481H99.671a2.461 2.461 0 100 4.923h34.043a2.461 2.461 0 000-4.923zM53.93 81.802H34.622a2.461 2.461 0 100 4.923H53.93a2.461 2.461 0 100-4.923zM34.622 99.207H53.93a2.461 2.461 0 100-4.923H34.622a2.461 2.461 0 100 4.923zm23.542 7.558H34.622a2.461 2.461 0 100 4.923h23.542a2.461 2.461 0 100-4.923zM32.16 121.708a2.461 2.461 0 002.462 2.461h34.043a2.461 2.461 0 100-4.923H34.622a2.461 2.461 0 00-2.462 2.462z"/></g><defs><clipPath id="clip0_121_1935"><path fill="#fff" d="M0 0h168v168H0z"/></clipPath></defs></svg>