<svg width="149" height="149" fill="none" xmlns="http://www.w3.org/2000/svg"><path d="M65.347 28.839H61.02L55.106 9.613h-8.358l-5.914 19.226h-4.326v4.806h2.848l-2.742 8.906 4.592 1.413 3.177-10.319h13.088l3.175 10.32 4.592-1.414-2.74-8.906h2.849V28.84zm-19.486 0l4.439-14.42h1.254l4.437 14.42H45.86zm42.659-2.404a9.59 9.59 0 003.261-7.21c0-5.3-4.31-9.612-9.612-9.612h-9.613v33.645h9.613c5.301 0 9.612-4.311 9.612-9.613a9.589 9.589 0 00-3.26-7.21zm-6.35 12.017h-4.807v-9.613h4.807a4.811 4.811 0 014.806 4.806 4.811 4.811 0 01-4.806 4.806zm0-14.42h-4.807V14.42h4.807a4.811 4.811 0 014.806 4.807 4.811 4.811 0 01-4.806 4.806zm31.24-9.612V9.612c-9.276 0-16.822 7.546-16.822 16.822 0 9.277 7.546 16.823 16.822 16.823v-4.806c-6.625 0-12.016-5.39-12.016-12.017 0-6.625 5.391-12.016 12.016-12.016zM29.298 48.065v43.258h91.322V48.065H29.298zm86.516 38.451h-81.71V52.871h81.71v33.645zm2.403 9.613H31.701v4.806h86.516v-4.806zm0 9.613H31.701v4.806h86.516v-4.806zm.001 9.613h-4.807v4.806h4.807v-4.806zm-9.614 0H31.701v4.806h76.903v-4.806z" fill="#F2F7FF"/><path d="M148.541 9.613h-18.308V0H12.475C5.85 0 .46 5.39.46 12.016v124.968C.459 143.61 5.849 149 12.475 149h117.758v-4.806h-7.21c-3.974 0-7.209-3.235-7.209-7.21s3.235-7.21 7.209-7.21h7.21V33.645h18.308l-6.008-12.016 6.008-12.016zm-35.068 134.581H12.475c-3.975 0-7.21-3.235-7.21-7.21s3.235-7.21 7.21-7.21h100.998c-1.526 2.014-2.466 4.494-2.466 7.21s.94 5.196 2.466 7.21zm11.954-19.226H24.491v-9.613h-4.806v9.613h-7.21c-2.704 0-5.2.899-7.21 2.408V12.016c0-3.975 3.235-7.21 7.21-7.21h7.21v105.742h4.806V4.806h100.936v120.162zm15.337-96.13h-10.531V14.42h10.531l-3.605 7.21 3.605 7.21z" fill="#F2F7FF"/><path d="M106.201 134.581H19.685v4.806H106.2v-4.806zm-91.322 0h-4.807v4.806h4.807v-4.806z" fill="#F2F7FF"/></svg>