<svg width="178" height="169" fill="none" xmlns="http://www.w3.org/2000/svg"><g clip-path="url(#clip0_121_1899)" fill="#F2F7FF"><path d="M175.219 94.562a2.78 2.78 0 002.781-2.78V80.655a2.78 2.78 0 00-2.781-2.781h-39.901a29.228 29.228 0 0011.785-19.469h5.866v-5.562h-5.598a29.2 29.2 0 00-58.336 0h-8.413a29.201 29.201 0 00-58.337 0h-5.598v5.562h5.866a29.224 29.224 0 0011.785 19.469H21.756A21.78 21.78 0 000 99.63v9.331a21.7 21.7 0 007.247 16.194H2.78A2.78 2.78 0 000 127.937v11.125a2.782 2.782 0 002.781 2.782h8.344v19.468H2.781A2.78 2.78 0 000 164.094v11.125A2.78 2.78 0 002.781 178h153.463A21.783 21.783 0 00178 156.244v-9.332a21.7 21.7 0 00-7.247-16.193h4.466a2.778 2.778 0 002.781-2.782v-11.125a2.778 2.778 0 00-2.781-2.781h-8.344V94.562h8.344zm-57.016-63.968a23.64 23.64 0 11-23.64 23.64 23.666 23.666 0 0123.64-23.64zm-17.115 47.28h-32.52a29.224 29.224 0 0011.785-19.468h8.95a29.222 29.222 0 0011.785 19.469zm-73.275-23.64a23.64 23.64 0 1123.64 23.64 23.668 23.668 0 01-23.64-23.64zM16.688 152.97h69.53v-5.563h-69.53v-5.562h136.976a7.655 7.655 0 017.648 7.648v3.974a7.655 7.655 0 01-7.648 7.649H16.688v-8.146zm155.75-6.057v9.332a16.213 16.213 0 01-16.194 16.193H5.563v-5.562h8.343v-.198h139.758a13.223 13.223 0 0013.211-13.211v-3.974a13.224 13.224 0 00-13.211-13.211H5.563v-5.562h150.681a16.213 16.213 0 0116.194 16.193zm0-21.756H21.756a16.213 16.213 0 01-16.194-16.194v-9.33a16.212 16.212 0 0116.194-16.195h150.682V89H24.336c-7.284 0-13.211 6.014-13.211 13.409v3.974a13.227 13.227 0 0013.21 13.211h148.103v5.562zm-11.126-30.594v19.469H24.336a7.656 7.656 0 01-7.648-7.648v-3.974c0-4.254 3.502-7.847 7.648-7.847h136.976z"/><path d="M63.969 102.906h72.312v5.563H63.969v-5.563zM33.375 54.234h5.563A12.53 12.53 0 0151.453 41.72v-5.563a18.099 18.099 0 00-18.078 18.078zm84.828-12.515v-5.563a18.098 18.098 0 00-18.078 18.078h5.563a12.527 12.527 0 0112.515-12.515zm43.11-5.563a11.122 11.122 0 0010.278-6.867 11.127 11.127 0 00-8.108-15.169 11.127 11.127 0 00-13.295 10.911 11.135 11.135 0 0011.125 11.125zm0-16.687a5.562 5.562 0 110 11.125 5.562 5.562 0 010-11.125zM1.447 22.366l7.98 4.364 4.364 7.98a2.781 2.781 0 004.88 0l4.364-7.98 7.98-4.364a2.782 2.782 0 000-4.88l-7.98-4.365-4.364-7.98a2.781 2.781 0 00-4.88 0l-4.364 7.98-7.98 4.364a2.782 2.782 0 000 4.88zM12.81 17.61a2.78 2.78 0 001.105-1.105l2.315-4.233 2.315 4.233c.256.466.64.85 1.106 1.105l4.232 2.315-4.233 2.315a2.78 2.78 0 00-1.105 1.106l-2.315 4.233-2.315-4.233a2.781 2.781 0 00-1.106-1.106l-4.232-2.315 4.233-2.315zm65.065 4.64h5.563v5.563h-5.563V22.25zm25.031-11.125h5.563v5.563h-5.563v-5.563z"/></g><defs><clipPath id="clip0_121_1899"><path fill="#fff" d="M0 0h178v178H0z"/></clipPath></defs></svg>