<svg width="127" height="155" fill="none" xmlns="http://www.w3.org/2000/svg"><path d="M36.325 75.655c6.66 0 12.079-5.419 12.079-12.079 0-6.66-5.419-12.079-12.079-12.079-6.66 0-12.079 5.419-12.079 12.079 0 6.66 5.418 12.079 12.079 12.079zm0-19.646c4.172 0 7.567 3.395 7.567 7.567 0 4.172-3.395 7.567-7.567 7.567-4.172 0-7.567-3.395-7.567-7.567 0-4.172 3.395-7.567 7.567-7.567zm26.593 7.004c6.499 0 11.786-5.287 11.786-11.786 0-6.498-5.287-11.785-11.786-11.785-6.498 0-11.785 5.287-11.785 11.785 0 6.499 5.287 11.786 11.785 11.786zm0-19.06c4.011 0 7.274 3.264 7.274 7.274s-3.263 7.274-7.274 7.274c-4.01 0-7.273-3.263-7.273-7.274 0-4.01 3.263-7.273 7.273-7.273zm-21.745 88.932c6.498 0 11.786-5.287 11.786-11.785 0-6.499-5.287-11.786-11.786-11.786-6.498 0-11.785 5.287-11.785 11.786 0 6.498 5.287 11.785 11.785 11.785zm0-19.058c4.011 0 7.274 3.262 7.274 7.273 0 4.011-3.263 7.274-7.274 7.274-4.01 0-7.273-3.263-7.273-7.274s3.263-7.273 7.273-7.273zm27.753 27.963c6.498 0 11.786-5.286 11.786-11.785 0-6.498-5.287-11.785-11.786-11.785-6.498 0-11.785 5.287-11.785 11.785 0 6.499 5.287 11.785 11.785 11.785zm0-19.059c4.01 0 7.274 3.263 7.274 7.274s-3.263 7.274-7.274 7.274c-4.01 0-7.274-3.263-7.274-7.274s3.264-7.274 7.274-7.274zM11.673 93.315c0 7.584 6.17 13.753 13.753 13.753 7.584 0 13.753-6.169 13.753-13.753 0-7.583-6.17-13.753-13.753-13.753s-13.753 6.17-13.753 13.753zm13.753-9.241c5.096 0 9.241 4.145 9.241 9.241s-4.145 9.242-9.24 9.242c-5.097 0-9.242-4.146-9.242-9.242 0-5.096 4.145-9.241 9.241-9.241z" fill="#F2F7FF"/><path d="M0 90.95c0 34.03 29.316 59.897 63.526 61.981a2.256 2.256 0 10.274-4.504C30.554 146.402 4.512 121.155 4.512 90.95c0-34.223 32.584-60.629 69.82-57.256 1.695 1.765 3.779 3.18 5.96 4.216a5.332 5.332 0 00.07 2.499l4.464 16.421a4.822 4.822 0 00-.986 4.392l1.063 3.91c.646 2.38 3.025 3.904 5.458 3.482l2.107 9.126c-7.62 3.471-11.787 8.12-11.787 13.21 0 5.11 4.259 9.835 11.991 13.307 2.75 1.234 5.13 2.926 7.081 5.032 2.481 10.893 3.245 14.35 5.063 19.826-1.683 7.344-6.718 12.974-13.892 15.5a69.333 69.333 0 01-16.932 3.67 2.256 2.256 0 00.396 4.494 73.81 73.81 0 0018.035-3.908c6.636-2.337 11.875-7.071 14.83-13.176 3.017 7.402 5.767 11.976 8.323 16.434a5.714 5.714 0 0010.668-2.901c-.077-7.557.122-18.916-5.188-35.841a2.255 2.255 0 10-4.304 1.35c4.984 15.886 4.898 26.426 4.981 34.537a1.201 1.201 0 01-2.243.61c-9.491-16.552-10.687-21.462-15.472-42.179L94.723 67.45l6.629-1.802 3.359 10.71 8.888 28.331a2.257 2.257 0 004.305-1.351l-8.226-26.223c12.429-5.036 15.906-21.729 5.265-31.02-4.361-3.808-9.249-7.056-14.532-9.681l-.369-1.357a5.232 5.232 0 00-1.208-2.187c2.277-3.363 4.549-8.563 2.894-14.65-1.588-5.84-5.493-8.094-9.627-10.48-2.507-1.447-5.1-2.944-7.602-5.433a4.339 4.339 0 00-7.317 1.989c-.897 3.414-2.375 6.017-3.805 8.534-2.383 4.197-5.285 9.081-2.211 16.137C32.872 27.318 0 55.093 0 90.95zm98.086 11.122a27.276 27.276 0 00-3.566-1.931c-5.928-2.662-9.327-6.012-9.327-9.19 0-3.027 2.995-6.137 8.313-8.716l4.58 19.837zm13.889-52.579c7.986 6.974 5.41 19.412-3.652 23.307l-2.621-8.357a4.833 4.833 0 002.942-5.767l-1.062-3.91a4.83 4.83 0 00-3.075-3.287l-2.47-9.085a63.181 63.181 0 019.938 7.1zm-9.118 6.245c.145-.04.324.04.371.212l1.062 3.91a.302.302 0 01-.212.371l-14.45 3.929a.303.303 0 01-.372-.213l-1.063-3.91a.309.309 0 01.213-.37l14.451-3.93zm-2.923-3.881L88.96 54.84l-4.245-15.616a.764.764 0 01.53-.925l9.518-2.588c.37-.102.81.1.926.53l4.245 15.616zM77.301 15.059c1.468-2.586 3.128-5.509 4.184-9.388 2.865 2.805 5.782 4.488 8.36 5.977 3.733 2.154 6.43 3.71 7.53 7.757 1.345 4.946-.97 9.258-2.888 11.79a5.6 5.6 0 00-.908.163l-9.518 2.588c-.29.078-.623.204-.864.318-3.99-1.638-7.32-4.506-8.461-8.704-1.1-4.047.437-6.754 2.565-10.501z" fill="#F2F7FF"/></svg>