<svg width="203" height="203" fill="none" xmlns="http://www.w3.org/2000/svg"><path d="M96.512 169.63h-56.16a3.121 3.121 0 01-3.1-2.775l-2.028-18.186-4.313 18.548a3.117 3.117 0 01-3.038 2.413H9.155a3.121 3.121 0 01-3.033-3.858l11.511-47.314C23.772 97.983 43.537 84.42 64.7 86.041c50.064 3.853 86.363 4.545 102.194 1.95a10.913 10.913 0 0110.803 4.707 10.944 10.944 0 011.449 8.95 10.796 10.796 0 01-5.706 6.88c-12.361 5.975-37.494 15.474-69.276 13.549l-4.55 44.75a3.118 3.118 0 01-3.101 2.803zm-53.369-6.242h50.55l4.57-44.958c.172-1.69 1.638-2.977 3.364-2.791 31.754 2.632 56.915-6.84 69.095-12.73a4.496 4.496 0 002.405-2.906 4.713 4.713 0 00-.622-3.846c-1.008-1.513-2.793-2.319-4.598-2.008-20.926 3.416-67.93.862-103.69-1.889-18.21-1.415-35.307 10.3-40.562 27.829l-10.531 43.299h12.274l7.864-33.866c.343-1.479 1.743-2.495 3.22-2.406a3.12 3.12 0 012.92 2.765l3.741 33.507z" fill="#F2F7FF"/><path d="M67.842 151.24a3.112 3.112 0 01-2.405-1.134l-14.888-18.021c-2.845-3.435-3.544-8.159-1.836-12.327 1.645-4.017 5.159-6.67 9.39-7.103 3.537-.333 7.068.742 9.738 2.95 2.668-2.208 6.267-3.283 9.728-2.95 4.242.435 7.754 3.086 9.4 7.103 1.709 4.168 1.008 8.889-1.835 12.327l-14.889 18.021a3.107 3.107 0 01-2.403 1.134zm-8.39-32.412c-.243 0-.483.013-.724.036-2.734.28-3.877 2.375-4.242 3.261-.653 1.594-.769 4.003.87 5.988l12.486 15.108 12.484-15.108c1.643-1.985 1.524-4.394.873-5.988-.366-.886-1.508-2.981-4.253-3.261-2.409-.254-5.074.924-6.505 3.079-1.157 1.737-4.04 1.737-5.199 0a6.944 6.944 0 00-5.79-3.115zM72.66 81.68c-14.381 0-26.082-11.702-26.082-26.085 0-14.383 11.7-26.084 26.083-26.084s26.085 11.7 26.085 26.084c0 14.383-11.702 26.085-26.085 26.085zm0-45.93c-10.94 0-19.842 8.904-19.842 19.845 0 10.942 8.901 19.845 19.843 19.845 10.943 0 19.846-8.903 19.846-19.845 0-10.941-8.903-19.845-19.846-19.845zm63.155 48.838c-12.822 0-23.253-10.43-23.253-23.25 0-12.824 10.431-23.256 23.253-23.256 12.822 0 23.253 10.432 23.253 23.255 0 12.82-10.431 23.251-23.253 23.251zm0-40.268c-9.381 0-17.014 7.632-17.014 17.017 0 9.38 7.633 17.013 17.014 17.013 9.382 0 17.014-7.633 17.014-17.013 0-9.385-7.632-17.017-17.014-17.017zm57.411 125.31h-22.963a3.121 3.121 0 01-2.832-1.809l-5.532-11.948v10.637a3.119 3.119 0 01-3.12 3.12h-49.788a3.125 3.125 0 01-2.321-1.032 3.126 3.126 0 01-.784-2.417l3.862-36.28a3.118 3.118 0 013.101-2.79c.375 0 37.781-.194 63.518-14.899a3.082 3.082 0 012.709-.185 3.102 3.102 0 011.831 2.007l15.311 51.59c.28.942.098 1.962-.489 2.751a3.134 3.134 0 01-2.503 1.255zm-20.972-6.242h16.79l-13.028-43.899c-22.797 11.633-51.341 13.504-60.355 13.802l-3.201 30.097h43.2v-21.677a3.117 3.117 0 012.45-3.045 3.13 3.13 0 013.499 1.737l10.645 22.985z" fill="#F2F7FF"/></svg>