<svg width="169" height="169" fill="none" xmlns="http://www.w3.org/2000/svg"><g clip-path="url(#clip0_121_2045)" fill="#F2F7FF"><path d="M77.38 36.99H43.176a2.476 2.476 0 000 4.951H77.38a2.476 2.476 0 000-4.95zm46.492 83.278h-18.311a2.475 2.475 0 100 4.951h18.311a2.475 2.475 0 100-4.951z"/><path d="M157.197 44.998a2.476 2.476 0 003.365-.968c4.853-8.774 7.768-17.691 8.43-25.789.122-1.5-1.17-2.79-2.67-2.668-9.445.772-19.788 4.592-29.694 10.75-1.071-4.35-2.425-7.747-4.108-10.316-2.587-3.948-5.962-5.95-10.03-5.95H14.453c-5.116 0-8.979 1.645-11.48 4.888C-1.88 21.24.643 31.14.753 31.557a2.476 2.476 0 002.395 1.847H24.94c2.213 14.087 2.1 34.119 1.996 52.557-.053 9.362-.109 19.042.116 27.864a2.476 2.476 0 004.95-.126c-.223-8.745-.168-18.385-.115-27.71.125-22.094.246-43.348-2.846-57.705a58.488 58.488 0 00-1.021-4.068c-1.091-3.748-2.478-6.868-4.241-9.207h98.711c4.485 0 7.674 4.651 9.727 14.208a99.861 99.861 0 00-7.804 6.103c-5.651 4.878-10.869 10.44-15.356 16.468H43.175a2.476 2.476 0 000 4.951h62.433a88.44 88.44 0 00-4.906 8.511H43.175a2.476 2.476 0 000 4.951h55.243a67.505 67.505 0 00-2.934 8.51H43.175a2.476 2.476 0 000 4.952h51.202a49.424 49.424 0 00-.482 3.504l-7.646 7.646a2.475 2.475 0 000 3.5c.937.936 2.538.964 3.502 0l7.642-7.642c4.59-.466 9.096-1.594 13.436-3.144 4.466-1.595 8.766-3.646 12.871-6.019a94.668 94.668 0 0011.319-7.714 2330.22 2330.22 0 01-.048 12.165c-.101 17.793-.205 36.149 1.615 49.637H54.48c-1.569 0-2.759 1.499-2.41 3.026.006.024.008.049.014.073l.01.041c.138.572 1.812 7.927-1.241 12.129l-.027.038c-1.758 2.387-4.866 3.103-7.682 3.087-6.016-.034-9.53-10.002-10.742-30.472a2.476 2.476 0 00-4.942.292c.968 16.357 3.63 35.132 15.715 35.132h108.037c5.116 0 8.979-1.644 11.48-4.888 4.854-6.294 2.329-16.194 2.219-16.612a2.477 2.477 0 00-2.395-1.847h-20.929c-1.87-13.177-1.766-31.68-1.664-49.608.03-5.4.061-10.969.039-16.366a103.74 103.74 0 004.054-3.84c4.129-4.13 7.88-8.561 11.147-13.173a2.476 2.476 0 00-4.04-2.862 97.476 97.476 0 01-10.609 12.535c-3.1 3.1-6.408 6-9.895 8.66-8.519 6.492-17.637 11.155-26.302 13.434-.279.073-.56.142-.84.21l43.995-43.993a2.475 2.475 0 10-3.501-3.5L99.977 81.085c.063-.256.123-.51.191-.767 2.527-9.67 7.379-18.5 13.449-26.367l.006-.008.057-.074a98.614 98.614 0 0119.887-19.518c9.861-7.23 20.437-12.009 30.133-13.488-1.008 6.587-3.561 13.703-7.471 20.77a2.477 2.477 0 00.968 3.365zM24.005 28.452H5.195a23.82 23.82 0 01-.244-2.908c-.046-2.252.255-5.397 1.95-7.586 1.518-1.96 3.946-2.925 7.42-2.95l1.621.179.07.018c3.274.852 5.83 4.784 7.622 11.71.133.51.254 1.023.37 1.537zm136.459 112.095c.376 2.624.649 7.448-1.692 10.484-1.537 1.991-4.01 2.96-7.56 2.96H54.705c3.184-4.187 3.141-9.937 2.724-13.444h103.035z"/></g><defs><clipPath id="clip0_121_2045"><path fill="#fff" d="M0 0h169v169H0z"/></clipPath></defs></svg>