<svg width="161" height="161" fill="none" xmlns="http://www.w3.org/2000/svg"><path d="M133.328 5.031H27.672a2.515 2.515 0 00-2.516 2.516v120.75a2.517 2.517 0 002.516 2.515h28.854l-7.094 15.195a2.515 2.515 0 003.145 3.421l7.672-2.792 2.793 7.672a2.528 2.528 0 002.264 1.661h.1c.481.001.953-.136 1.359-.394.405-.259.728-.629.93-1.065l9.912-21.333c1.923.201 3.863.201 5.786 0l9.912 21.333c.202.436.525.806.93 1.065.406.258.878.395 1.359.394h.1a2.54 2.54 0 002.264-1.661l2.793-7.672 7.672 2.792a2.51 2.51 0 002.715-.661 2.511 2.511 0 00.43-2.76l-7.094-15.195h28.854a2.516 2.516 0 002.516-2.515V7.547a2.515 2.515 0 00-2.516-2.516zM59.922 141.403l-3.346 1.233 6.667-14.289a26.67 26.67 0 002.163 1.258l-5.484 11.798zm5.761 5.484l-1.208-3.345 5.56-11.95c.805.252 1.61.503 2.44.705l-6.792 14.59zm14.817-18.59a27.67 27.67 0 01-25.566-17.082 27.674 27.674 0 0120.168-37.73 27.672 27.672 0 0133.07 27.14A27.693 27.693 0 0180.5 128.297zm14.817 18.59l-6.792-14.59a39.09 39.09 0 002.44-.705l5.56 11.95-1.208 3.345zm5.761-5.484l-5.484-11.798a26.67 26.67 0 002.163-1.258l6.667 14.289-3.346-1.233zm29.734-15.622h-28.703l-.226-.478a32.699 32.699 0 009.266-36.152 32.701 32.701 0 00-49.31-15.449 32.703 32.703 0 00-2.722 51.601l-.226.478H30.188V10.062h100.624v115.719z" fill="#F2F7FF"/><path d="M101.431 94.663a8.62 8.62 0 01-1.862-1.937 8.347 8.347 0 01-.075-2.818 8.373 8.373 0 00-1.56-6.716 8.32 8.32 0 00-6.691-1.56 8.47 8.47 0 01-2.843-.076 9.218 9.218 0 01-1.937-1.861 8.275 8.275 0 00-5.962-3.723 8.276 8.276 0 00-5.962 3.723 9.216 9.216 0 01-1.937 1.861 8.47 8.47 0 01-2.843.076 8.32 8.32 0 00-6.691 1.56 8.374 8.374 0 00-1.56 6.716c.135.937.109 1.89-.076 2.818a8.608 8.608 0 01-1.861 1.937 8.277 8.277 0 00-3.723 5.962 8.281 8.281 0 003.723 5.962 8.606 8.606 0 011.861 1.937c.185.928.21 1.881.076 2.817a8.378 8.378 0 001.56 6.717 8.313 8.313 0 006.691 1.56 8.48 8.48 0 012.843.075 9.223 9.223 0 011.937 1.862 8.284 8.284 0 005.962 3.723 8.283 8.283 0 005.962-3.723 9.225 9.225 0 011.937-1.862 8.48 8.48 0 012.843-.075 8.328 8.328 0 006.691-1.56 8.376 8.376 0 001.56-6.717 8.345 8.345 0 01.075-2.817 8.618 8.618 0 011.862-1.937 8.287 8.287 0 003.723-5.962 8.282 8.282 0 00-3.723-5.962zm-3.32 8.15a10.735 10.735 0 00-3.196 3.774 11.281 11.281 0 00-.453 5.081 9.028 9.028 0 01-.075 2.818 8.405 8.405 0 01-2.843.101 11.648 11.648 0 00-5.081.452 10.736 10.736 0 00-3.774 3.195c-.528.604-1.76 2.013-2.188 2.013-.428 0-1.66-1.409-2.189-2.013a10.736 10.736 0 00-3.773-3.195 8.138 8.138 0 00-3.195-.528c-.654 0-1.283.025-1.887.076a9.028 9.028 0 01-2.817-.076 8.396 8.396 0 01-.1-2.843 11.28 11.28 0 00-.454-5.081 10.736 10.736 0 00-3.195-3.774c-.603-.528-2.012-1.761-2.012-2.188 0-.428 1.409-1.66 2.012-2.189a10.732 10.732 0 003.195-3.773c.537-1.637.692-3.376.453-5.082a9.025 9.025 0 01.076-2.817 8.398 8.398 0 012.842-.1c1.706.238 3.445.083 5.082-.454a10.731 10.731 0 003.773-3.195c.529-.603 1.761-2.012 2.189-2.012.427 0 1.66 1.409 2.188 2.012a10.732 10.732 0 003.774 3.195 11.28 11.28 0 005.081.453 9.022 9.022 0 012.818.076c.195.934.229 1.896.1 2.842a11.284 11.284 0 00.453 5.082 10.73 10.73 0 003.195 3.773c.604.528 2.013 1.761 2.013 2.189 0 .427-1.41 1.66-2.013 2.188zM67.922 17.61h25.156v5.03H67.922v-5.03zM40.25 32.703h80.5v5.031h-80.5v-5.03zm0 15.094h80.5v5.031h-80.5v-5.031z" fill="#F2F7FF"/></svg>