<svg width="92" height="92" fill="none" xmlns="http://www.w3.org/2000/svg"><g filter="url(#filter0_d_97_1132)" fill="#F9D407"><path d="M80.617 9.844h-2.46V7.383C78.156 3.312 74.843 0 70.772 0c-4.07 0-7.382 3.312-7.382 7.383v2.46H28.609v-2.46C28.61 3.312 25.297 0 21.227 0c-4.071 0-7.383 3.312-7.383 7.383v2.46h-2.461C7.312 9.844 4 13.157 4 17.228v59.39C4 80.688 7.312 84 11.383 84h69.234C84.688 84 88 80.688 88 76.617v-59.39c0-4.071-3.312-7.383-7.383-7.383zM68.312 7.383a2.464 2.464 0 012.461-2.461 2.464 2.464 0 012.461 2.46v9.845a2.464 2.464 0 01-2.46 2.46 2.464 2.464 0 01-2.462-2.46V7.383zm-49.546 0a2.464 2.464 0 012.46-2.461 2.464 2.464 0 012.462 2.46v9.845a2.464 2.464 0 01-2.461 2.46 2.464 2.464 0 01-2.461-2.46V7.383zm64.312 69.234a2.464 2.464 0 01-2.46 2.461H11.382a2.464 2.464 0 01-2.461-2.46V34.78h74.156v41.836zm0-46.758H8.922V17.227a2.464 2.464 0 012.46-2.461h2.462v2.46c0 4.071 3.312 7.383 7.383 7.383 4.07 0 7.382-3.312 7.382-7.382v-2.461h34.782v2.46c0 4.071 3.312 7.383 7.382 7.383 4.071 0 7.383-3.312 7.383-7.382v-2.461h2.461a2.464 2.464 0 012.461 2.46V29.86z"/><path d="M31.234 39.703h-9.843a2.461 2.461 0 00-2.461 2.461v9.844a2.461 2.461 0 002.46 2.46h9.844a2.46 2.46 0 002.461-2.46v-9.844a2.461 2.461 0 00-2.46-2.46zm-2.46 9.844h-4.922v-4.922h4.921v4.922zm2.46 9.843h-9.843a2.461 2.461 0 00-2.461 2.462v9.843a2.46 2.46 0 002.46 2.461h9.844a2.46 2.46 0 002.461-2.46v-9.844a2.461 2.461 0 00-2.46-2.461zm-2.46 9.844h-4.922v-4.921h4.921v4.921zm22.148-9.844h-9.844a2.461 2.461 0 00-2.46 2.462v9.843a2.46 2.46 0 002.46 2.461h9.844a2.46 2.46 0 002.46-2.46v-9.844a2.461 2.461 0 00-2.46-2.461zm-2.461 9.844h-4.922v-4.921h4.922v4.921zm2.461-29.531h-9.844a2.461 2.461 0 00-2.46 2.461v9.844a2.461 2.461 0 002.46 2.46h9.844a2.46 2.46 0 002.46-2.46v-9.844a2.461 2.461 0 00-2.46-2.46zm-2.461 9.844h-4.922v-4.922h4.922v4.922zm22.149-9.844h-9.844a2.461 2.461 0 00-2.461 2.461v9.844a2.461 2.461 0 002.46 2.46h9.844a2.46 2.46 0 002.461-2.46v-9.844a2.461 2.461 0 00-2.46-2.46zm-2.462 9.844h-4.921v-4.922h4.921v4.922zm2.462 9.843h-9.844a2.461 2.461 0 00-2.461 2.462v9.843a2.46 2.46 0 002.46 2.461h9.844a2.46 2.46 0 002.461-2.46v-9.844a2.461 2.461 0 00-2.46-2.461zm-2.462 9.844h-4.921v-4.921h4.921v4.921z"/></g><defs><filter id="filter0_d_97_1132" x="0" y="0" width="92" height="92" filterUnits="userSpaceOnUse" color-interpolation-filters="sRGB"><feFlood flood-opacity="0" result="BackgroundImageFix"/><feColorMatrix in="SourceAlpha" values="0 0 0 0 0 0 0 0 0 0 0 0 0 0 0 0 0 0 127 0" result="hardAlpha"/><feOffset dy="4"/><feGaussianBlur stdDeviation="2"/><feComposite in2="hardAlpha" operator="out"/><feColorMatrix values="0 0 0 0 0 0 0 0 0 0 0 0 0 0 0 0 0 0 0.25 0"/><feBlend in2="BackgroundImageFix" result="effect1_dropShadow_97_1132"/><feBlend in="SourceGraphic" in2="effect1_dropShadow_97_1132" result="shape"/></filter></defs></svg>