<svg width="91" height="91" fill="none" xmlns="http://www.w3.org/2000/svg"><path d="M82.469 5.688h-7.11V4.266A4.271 4.271 0 0071.094 0a4.271 4.271 0 00-4.266 4.266v1.421H24.172V4.266A4.271 4.271 0 0019.906 0a4.271 4.271 0 00-4.265 4.266v1.421H8.53a5.693 5.693 0 00-5.687 5.688v59.719A5.693 5.693 0 008.53 76.78h8.531a1.421 1.421 0 100-2.844h-8.53a2.847 2.847 0 01-2.845-2.843V22.75h79.626v48.344a2.847 2.847 0 01-2.844 2.844h-8.531a1.422 1.422 0 100 2.843h8.53a5.693 5.693 0 005.688-5.687V11.375a5.693 5.693 0 00-5.687-5.688zm-61.14 5.687c0 .784-.639 1.422-1.423 1.422a1.424 1.424 0 01-1.422-1.422v-7.11c0-.783.638-1.421 1.422-1.421.784 0 1.422.638 1.422 1.422v7.109zm51.187 0c0 .784-.638 1.422-1.422 1.422a1.424 1.424 0 01-1.422-1.422v-7.11c0-.783.638-1.421 1.422-1.421.784 0 1.422.638 1.422 1.422v7.109z" fill="#F9D407"/><path d="M52.61 44.078c0-3.93-3.18-7.11-7.11-7.11-3.92 0-7.11 3.19-7.11 7.11-6.673 2.79-11.374 9.388-11.374 17.063v22.75c0 3.953 3.221 7.109 7.109 7.109h22.75c3.434 0 6.306-2.446 6.967-5.688.204-1.009.142.477.142-24.171 0-7.675-4.7-14.272-11.375-17.063zm-7.11-4.266a4.262 4.262 0 014.16 3.317c-.014-.018-1.904-.473-4.16-.473-2.086 0-4.066.425-4.157.471a4.272 4.272 0 014.157-3.315zm12.797 41.235a4.271 4.271 0 01-4.266 4.266H36.97a4.271 4.271 0 01-4.266-4.266v-8.531a4.271 4.271 0 014.266-4.266h17.06a4.271 4.271 0 014.266 4.266v8.53zm-1.422-18.484a1.422 1.422 0 01-1.422-1.422c0-5.489-4.465-9.953-9.953-9.953-5.488 0-9.953 4.464-9.953 9.953a1.422 1.422 0 11-2.844 0c0-7.056 5.741-12.797 12.797-12.797 7.056 0 12.797 5.74 12.797 12.797 0 .785-.636 1.422-1.422 1.422zm-36.969 9.953v5.688a7.102 7.102 0 002.847 5.687c.584.438 1.419.015 1.419-.715V67.544c0-.73-.835-1.153-1.419-.715a7.103 7.103 0 00-2.847 5.687zm46.922-4.972v15.632c0 .73.835 1.153 1.419.715a7.102 7.102 0 002.847-5.687v-5.688a7.103 7.103 0 00-2.847-5.687c-.584-.438-1.419-.015-1.419.715z" fill="#F9D407"/><path d="M54.031 71.094H36.97c-.784 0-1.422.638-1.422 1.422v8.53c0 .785.638 1.423 1.422 1.423h17.06c.784 0 1.422-.638 1.422-1.422v-8.531c0-.784-.638-1.422-1.422-1.422z" fill="#F9D407"/></svg>