<svg width="55" height="56" fill="none" xmlns="http://www.w3.org/2000/svg"><circle cx="21.815" cy="21.815" r="21.815" fill="#F9D407"/><path d="M41.606 6.297L6.296 42.281l1.8 2.025 35.76-36.21-2.25-1.799zm2.249 2.249L8.545 44.53l1.8 2.024 35.76-36.208-2.25-1.8zm2.249 2.249L10.794 46.78l1.8 2.024 35.76-36.208-2.25-1.8zm1.8 2.699l-35.31 35.984 1.8 2.024 35.759-36.209-2.249-1.799zm2.248 2.249l-35.31 35.984 1.8 2.024 35.76-36.21-2.25-1.798zm2.25 2.249l-35.31 35.984 1.8 2.024 35.76-36.21-2.25-1.798zM38.008 5.397L2.698 41.381l1.8 2.025 35.759-36.21-2.25-1.799z" fill="#fff"/></svg>