<svg width="319" height="750" fill="none" xmlns="http://www.w3.org/2000/svg"><path stroke="#1068FF" d="M366.646-435.354l-527 527m527-507l-527 527m527-507l-527 527m527-507l-527 527m527-507l-527 527m527-507l-527 527m527-507l-527 527m527-507l-527 527m527-507l-527 527m527-507l-527 527m527-507l-527 527m527-507l-527 527m527-507l-527 527m527-507l-527 527m527-507l-527 527m527-507l-527 527m527-507l-527 527m527-507l-527 527m527-507l-527 527m527-507l-527 527m527-507l-527 527m527-507l-527 527m527-507l-527 527m527-507l-527 527m527-507l-527 527m527-507l-527 527m527-507l-527 527m527-507l-527 527m527-507l-527 527m527-507l-527 527m527-507l-527 527m527-507l-527 527m527-507l-527 527m527-507l-527 527m527-507l-527 527m527-507l-527 527m527-507l-527 527m527-507l-527 527m527-507l-527 527m527-507l-527 527m527-507l-527 527m527-507l-527 527m527-507l-527 527m527-507l-527 527m527-507l-527 527m527-507l-527 527m527-507l-527 527m527-507l-527 527m527-507l-527 527m527-507l-527 527m527-507l-527 527m527-507l-527 527m527-507l-527 527m527-507l-527 527m527-507l-527 527m527-507l-527 527m527-507l-527 527m527-507l-527 527m527-507l-527 527m527-507l-527 527"/></svg>